<svg version="1.1" xmlns="http://www.w3.org/2000/svg" xmlns:xlink="http://www.w3.org/1999/xlink" width="508" height="452"><defs/><g><text fill="#eeeeee" stroke="none" font-family="Arial" font-size="24px" font-style="normal" font-weight="normal" text-decoration="none" x="0" y="0"></text><text fill="#eeeeee" stroke="none" font-family="Arial" font-size="24px" font-style="normal" font-weight="normal" text-decoration="none" x="0" y="30"></text><text fill="#eeeeee" stroke="none" font-family="Arial" font-size="24px" font-style="normal" font-weight="normal" text-decoration="none" x="0" y="60"></text><text fill="#eeeeee" stroke="none" font-family="Arial" font-size="24px" font-style="normal" font-weight="normal" text-decoration="none" x="0" y="90"></text><text fill="#eeeeee" stroke="none" font-family="Arial" font-size="24px" font-style="normal" font-weight="normal" text-decoration="none" x="0" y="120"></text><text fill="#eeeeee" stroke="none" font-family="Arial" font-size="24px" font-style="normal" font-weight="normal" text-decoration="none" x="0" y="150"></text><text fill="#eeeeee" stroke="none" font-family="Arial" font-size="24px" font-style="normal" font-weight="normal" text-decoration="none" x="0" y="180"></text><text fill="#eeeeee" stroke="none" font-family="Arial" font-size="24px" font-style="normal" font-weight="normal" text-decoration="none" x="0" y="210"></text><text fill="#eeeeee" stroke="none" font-family="Arial" font-size="24px" font-style="normal" font-weight="normal" text-decoration="none" x="0" y="240"></text><text fill="#eeeeee" stroke="none" font-family="Arial" font-size="24px" font-style="normal" font-weight="normal" text-decoration="none" x="0" y="270"></text><text fill="#eeeeee" stroke="none" font-family="Arial" font-size="24px" font-style="normal" font-weight="normal" text-decoration="none" x="0" y="300"></text><text fill="#eeeeee" stroke="none" font-family="Arial" font-size="24px" font-style="normal" font-weight="normal" text-decoration="none" x="0" y="330"></text><text fill="#eeeeee" stroke="none" font-family="Arial" font-size="24px" font-style="normal" font-weight="normal" text-decoration="none" x="0" y="360"></text><text fill="#eeeeee" stroke="none" font-family="Arial" font-size="24px" font-style="normal" font-weight="normal" text-decoration="none" x="0" y="390"></text><text fill="#eeeeee" stroke="none" font-family="Arial" font-size="24px" font-style="normal" font-weight="normal" text-decoration="none" x="0" y="420"></text><text fill="#eeeeee" stroke="none" font-family="Arial" font-size="24px" font-style="normal" font-weight="normal" text-decoration="none" x="0" y="450"></text><text fill="#eeeeee" stroke="none" font-family="Arial" font-size="24px" font-style="normal" font-weight="normal" text-decoration="none" x="200" y="0"></text><text fill="#eeeeee" stroke="none" font-family="Arial" font-size="24px" font-style="normal" font-weight="normal" text-decoration="none" x="200" y="30"></text><text fill="#eeeeee" stroke="none" font-family="Arial" font-size="24px" font-style="normal" font-weight="normal" text-decoration="none" x="200" y="60"></text><text fill="#eeeeee" stroke="none" font-family="Arial" font-size="24px" font-style="normal" font-weight="normal" text-decoration="none" x="200" y="90"></text><text fill="#eeeeee" stroke="none" font-family="Arial" font-size="24px" font-style="normal" font-weight="normal" text-decoration="none" x="200" y="120"></text><text fill="#eeeeee" stroke="none" font-family="Arial" font-size="24px" font-style="normal" font-weight="normal" text-decoration="none" x="200" y="150"></text><text fill="#eeeeee" stroke="none" font-family="Arial" font-size="24px" font-style="normal" font-weight="normal" text-decoration="none" x="200" y="180"></text><text fill="#eeeeee" stroke="none" font-family="Arial" font-size="24px" font-style="normal" font-weight="normal" text-decoration="none" x="200" y="210"></text><text fill="#eeeeee" stroke="none" font-family="Arial" font-size="24px" font-style="normal" font-weight="normal" text-decoration="none" x="200" y="240"></text><text fill="#eeeeee" stroke="none" font-family="Arial" font-size="24px" font-style="normal" font-weight="normal" text-decoration="none" x="200" y="270"></text><text fill="#eeeeee" stroke="none" font-family="Arial" font-size="24px" font-style="normal" font-weight="normal" text-decoration="none" x="200" y="300"></text><text fill="#eeeeee" stroke="none" font-family="Arial" font-size="24px" font-style="normal" font-weight="normal" text-decoration="none" x="200" y="330"></text><text fill="#eeeeee" stroke="none" font-family="Arial" font-size="24px" font-style="normal" font-weight="normal" text-decoration="none" x="200" y="360"></text><text fill="#eeeeee" stroke="none" font-family="Arial" font-size="24px" font-style="normal" font-weight="normal" text-decoration="none" x="200" y="390"></text><text fill="#eeeeee" stroke="none" font-family="Arial" font-size="24px" font-style="normal" font-weight="normal" text-decoration="none" x="200" y="420"></text><text fill="#eeeeee" stroke="none" font-family="Arial" font-size="24px" font-style="normal" font-weight="normal" text-decoration="none" x="200" y="450"></text><text fill="#eeeeee" stroke="none" font-family="Arial" font-size="24px" font-style="normal" font-weight="normal" text-decoration="none" x="400" y="0"></text><text fill="#eeeeee" stroke="none" font-family="Arial" font-size="24px" font-style="normal" font-weight="normal" text-decoration="none" x="400" y="30"></text><text fill="#eeeeee" stroke="none" font-family="Arial" font-size="24px" font-style="normal" font-weight="normal" text-decoration="none" x="400" y="60"></text><text fill="#eeeeee" stroke="none" font-family="Arial" font-size="24px" font-style="normal" font-weight="normal" text-decoration="none" x="400" y="90"></text><text fill="#eeeeee" stroke="none" font-family="Arial" font-size="24px" font-style="normal" font-weight="normal" text-decoration="none" x="400" y="120"></text><text fill="#eeeeee" stroke="none" font-family="Arial" font-size="24px" font-style="normal" font-weight="normal" text-decoration="none" x="400" y="150"></text><text fill="#eeeeee" stroke="none" font-family="Arial" font-size="24px" font-style="normal" font-weight="normal" text-decoration="none" x="400" y="180"></text><text fill="#eeeeee" stroke="none" font-family="Arial" font-size="24px" font-style="normal" font-weight="normal" text-decoration="none" x="400" y="210"></text><text fill="#eeeeee" stroke="none" font-family="Arial" font-size="24px" font-style="normal" font-weight="normal" text-decoration="none" x="400" y="240"></text><text fill="#eeeeee" stroke="none" font-family="Arial" font-size="24px" font-style="normal" font-weight="normal" text-decoration="none" x="400" y="270"></text><text fill="#eeeeee" stroke="none" font-family="Arial" font-size="24px" font-style="normal" font-weight="normal" text-decoration="none" x="400" y="300"></text><text fill="#eeeeee" stroke="none" font-family="Arial" font-size="24px" font-style="normal" font-weight="normal" text-decoration="none" x="400" y="330"></text><text fill="#eeeeee" stroke="none" font-family="Arial" font-size="24px" font-style="normal" font-weight="normal" text-decoration="none" x="400" y="360"></text><text fill="#eeeeee" stroke="none" font-family="Arial" font-size="24px" font-style="normal" font-weight="normal" text-decoration="none" x="400" y="390"></text><text fill="#eeeeee" stroke="none" font-family="Arial" font-size="24px" font-style="normal" font-weight="normal" text-decoration="none" x="400" y="420"></text><text fill="#eeeeee" stroke="none" font-family="Arial" font-size="24px" font-style="normal" font-weight="normal" text-decoration="none" x="400" y="450"></text><g transform="translate(-118,-118) scale(1,1)"><path fill="#C0C0C0" stroke="none" d="M 135 160.5 C 135 155.2532944 139.2532944 151 144.5 151 C 149.7467056 151 154 155.2532944 154 160.5 C 154 165.7467056 149.7467056 170 144.5 170 C 139.2532944 170 135 165.7467056 135 160.5 Z" opacity="0.2"/></g><g transform="translate(-118,-118) scale(1,1)"><path fill="#000000" stroke="none" d="M 128 153.5 C 128 148.2532944 132.2532944 144 137.5 144 C 142.7467056 144 147 148.2532944 147 153.5 C 147 158.7467056 142.7467056 163 137.5 163 C 132.2532944 163 128 158.7467056 128 153.5 Z"/></g><g transform="translate(-118,-118) scale(1,1)"><path fill="#C0C0C0" stroke="none" d="M 201 135 L 401.630859375 135 Q 411.630859375 135 411.630859375 145 L 411.630859375 165 Q 411.630859375 175 401.630859375 175 L 201 175 Q 191 175 191 165 L 191 145 Q 191 135 201 135 Z" opacity="0.2"/></g><g transform="translate(-118,-118) scale(1,1)"><path fill="#ffffff" stroke="none" d="M 194 128 L 394.630859375 128 Q 404.630859375 128 404.630859375 138 L 404.630859375 158 Q 404.630859375 168 394.630859375 168 L 194 168 Q 184 168 184 158 L 184 138 Q 184 128 194 128 Z"/></g><g transform="translate(-118,-118) scale(1,1)"><path fill="none" stroke="#000000" d="M 194 128 L 394.630859375 128 Q 404.630859375 128 404.630859375 138 L 404.630859375 158 Q 404.630859375 168 394.630859375 168 L 194 168 Q 184 168 184 158 L 184 138 Q 184 128 194 128 Z" stroke-miterlimit="10"/></g><g transform="translate(-118,-118) scale(1,1)"><g><path fill="none" stroke="none"/><text fill="#000000" stroke="none" font-family="Arial" font-size="13px" font-style="normal" font-weight="bold" text-decoration="none" x="188.5" y="146">choose to add nonexisting project</text></g></g><g transform="translate(-118,-118) scale(1,1)"><path fill="#C0C0C0" stroke="none" d="M 233 199 L 358.525390625 199 Q 368.525390625 199 368.525390625 209 L 368.525390625 229 Q 368.525390625 239 358.525390625 239 L 233 239 Q 223 239 223 229 L 223 209 Q 223 199 233 199 Z" opacity="0.2"/></g><g transform="translate(-118,-118) scale(1,1)"><path fill="#ffffff" stroke="none" d="M 226 192 L 351.525390625 192 Q 361.525390625 192 361.525390625 202 L 361.525390625 222 Q 361.525390625 232 351.525390625 232 L 226 232 Q 216 232 216 222 L 216 202 Q 216 192 226 192 Z"/></g><g transform="translate(-118,-118) scale(1,1)"><path fill="none" stroke="#000000" d="M 226 192 L 351.525390625 192 Q 361.525390625 192 361.525390625 202 L 361.525390625 222 Q 361.525390625 232 351.525390625 232 L 226 232 Q 216 232 216 222 L 216 202 Q 216 192 226 192 Z" stroke-miterlimit="10"/></g><g transform="translate(-118,-118) scale(1,1)"><g><path fill="none" stroke="none"/><text fill="#000000" stroke="none" font-family="Arial" font-size="13px" font-style="normal" font-weight="bold" text-decoration="none" x="220.5" y="210">complete project form</text></g></g><g transform="translate(-118,-118) scale(1,1)"><path fill="#C0C0C0" stroke="none" d="M 249 319 L 344.18994140625 319 Q 354.18994140625 319 354.18994140625 329 L 354.18994140625 349 Q 354.18994140625 359 344.18994140625 359 L 249 359 Q 239 359 239 349 L 239 329 Q 239 319 249 319 Z" opacity="0.2"/></g><g transform="translate(-118,-118) scale(1,1)"><path fill="#ffffff" stroke="none" d="M 242 312 L 337.18994140625 312 Q 347.18994140625 312 347.18994140625 322 L 347.18994140625 342 Q 347.18994140625 352 337.18994140625 352 L 242 352 Q 232 352 232 342 L 232 322 Q 232 312 242 312 Z"/></g><g transform="translate(-118,-118) scale(1,1)"><path fill="none" stroke="#000000" d="M 242 312 L 337.18994140625 312 Q 347.18994140625 312 347.18994140625 322 L 347.18994140625 342 Q 347.18994140625 352 337.18994140625 352 L 242 352 Q 232 352 232 342 L 232 322 Q 232 312 242 312 Z" stroke-miterlimit="10"/></g><g transform="translate(-118,-118) scale(1,1)"><g><path fill="none" stroke="none"/><text fill="#000000" stroke="none" font-family="Arial" font-size="13px" font-style="normal" font-weight="bold" text-decoration="none" x="236.5" y="330">check conditions</text></g></g><g transform="translate(-118,-118) scale(1,1)"><path fill="#C0C0C0" stroke="none" d="M 257 399 L 329.814453125 399 Q 339.814453125 399 339.814453125 409 L 339.814453125 429 Q 339.814453125 439 329.814453125 439 L 257 439 Q 247 439 247 429 L 247 409 Q 247 399 257 399 Z" opacity="0.2"/></g><g transform="translate(-118,-118) scale(1,1)"><path fill="#ffffff" stroke="none" d="M 250 392 L 322.814453125 392 Q 332.814453125 392 332.814453125 402 L 332.814453125 422 Q 332.814453125 432 322.814453125 432 L 250 432 Q 240 432 240 422 L 240 402 Q 240 392 250 392 Z"/></g><g transform="translate(-118,-118) scale(1,1)"><path fill="none" stroke="#000000" d="M 250 392 L 322.814453125 392 Q 332.814453125 392 332.814453125 402 L 332.814453125 422 Q 332.814453125 432 322.814453125 432 L 250 432 Q 240 432 240 422 L 240 402 Q 240 392 250 392 Z" stroke-miterlimit="10"/></g><g transform="translate(-118,-118) scale(1,1)"><g><path fill="none" stroke="none"/><text fill="#000000" stroke="none" font-family="Arial" font-size="13px" font-style="normal" font-weight="bold" text-decoration="none" x="244.5" y="410">take approval</text></g></g><g transform="translate(-118,-118) scale(1,1)"><path fill="#C0C0C0" stroke="none" d="M 265 471 L 334.91357421875 471 Q 344.91357421875 471 344.91357421875 481 L 344.91357421875 501 Q 344.91357421875 511 334.91357421875 511 L 265 511 Q 255 511 255 501 L 255 481 Q 255 471 265 471 Z" opacity="0.2"/></g><g transform="translate(-118,-118) scale(1,1)"><path fill="#ffffff" stroke="none" d="M 258 464 L 327.91357421875 464 Q 337.91357421875 464 337.91357421875 474 L 337.91357421875 494 Q 337.91357421875 504 327.91357421875 504 L 258 504 Q 248 504 248 494 L 248 474 Q 248 464 258 464 Z"/></g><g transform="translate(-118,-118) scale(1,1)"><path fill="none" stroke="#000000" d="M 258 464 L 327.91357421875 464 Q 337.91357421875 464 337.91357421875 474 L 337.91357421875 494 Q 337.91357421875 504 327.91357421875 504 L 258 504 Q 248 504 248 494 L 248 474 Q 248 464 258 464 Z" stroke-miterlimit="10"/></g><g transform="translate(-118,-118) scale(1,1)"><g><path fill="none" stroke="none"/><text fill="#000000" stroke="none" font-family="Arial" font-size="13px" font-style="normal" font-weight="bold" text-decoration="none" x="252.5" y="482">send request</text></g></g><g transform="translate(-118,-118) scale(1,1)"><path fill="#C0C0C0" stroke="none" d="M 193 527 L 411.71533203125 527 Q 421.71533203125 527 421.71533203125 537 L 421.71533203125 557 Q 421.71533203125 567 411.71533203125 567 L 193 567 Q 183 567 183 557 L 183 537 Q 183 527 193 527 Z" opacity="0.2"/></g><g transform="translate(-118,-118) scale(1,1)"><path fill="#ffffff" stroke="none" d="M 186 520 L 404.71533203125 520 Q 414.71533203125 520 414.71533203125 530 L 414.71533203125 550 Q 414.71533203125 560 404.71533203125 560 L 186 560 Q 176 560 176 550 L 176 530 Q 176 520 186 520 Z"/></g><g transform="translate(-118,-118) scale(1,1)"><path fill="none" stroke="#000000" d="M 186 520 L 404.71533203125 520 Q 414.71533203125 520 414.71533203125 530 L 414.71533203125 550 Q 414.71533203125 560 404.71533203125 560 L 186 560 Q 176 560 176 550 L 176 530 Q 176 520 186 520 Z" stroke-miterlimit="10"/></g><g transform="translate(-118,-118) scale(1,1)"><g><path fill="none" stroke="none"/><text fill="#000000" stroke="none" font-family="Arial" font-size="13px" font-style="normal" font-weight="bold" text-decoration="none" x="180.5" y="538">add project to the registered projects</text></g></g><g transform="translate(-118,-118) scale(1,1)"><path fill="none" stroke="#000000" d="M 148 153 L 183 152" stroke-miterlimit="10"/></g><g transform="translate(-118,-118) scale(1,1)"><path fill="none" stroke="#000000" d="M 172.96169351038094 156.4980443328709 L 183 152 L 172.7212477597107 148.08244305941218" stroke-miterlimit="10"/></g><g transform="translate(-118,-118) scale(1,1)"><path fill="none" stroke="#000000" d="M 292 169 L 290 191" stroke-miterlimit="10"/></g><g transform="translate(-118,-118) scale(1,1)"><path fill="none" stroke="#000000" d="M 286.72785521430103 180.49794931923182 L 290 191 L 295.11231548574403 181.2601729802721" stroke-miterlimit="10"/></g><g transform="translate(-118,-118) scale(1,1)"><path fill="none" stroke="#000000" d="M 288 353 L 287 391" stroke-miterlimit="10"/></g><g transform="translate(-118,-118) scale(1,1)"><path fill="none" stroke="#000000" d="M 283.0592853332588 380.7301038021151 L 287 391 L 291.4754071800324 380.9515806928197" stroke-miterlimit="10"/></g><g transform="translate(-118,-118) scale(1,1)"><g><path fill="none" stroke="none"/><text fill="#000000" stroke="none" font-family="Arial" font-size="13px" font-style="normal" font-weight="normal" text-decoration="none" x="165.5" y="386">[all conditions meet]</text></g></g><g transform="translate(-118,-118) scale(1,1)"><path fill="none" stroke="#000000" d="M 288 433 L 290 463" stroke-miterlimit="10"/></g><g transform="translate(-118,-118) scale(1,1)"><path fill="none" stroke="#000000" d="M 285.1237945855094 453.13984681885256 L 290 463 L 293.5241832628826 452.5798209070277" stroke-miterlimit="10"/></g><g transform="translate(-118,-118) scale(1,1)"><g><path fill="none" stroke="none"/><text fill="#000000" stroke="none" font-family="Arial" font-size="13px" font-style="normal" font-weight="normal" text-decoration="none" x="134.5" y="451">[all participants approve]</text></g></g><g transform="translate(-118,-118) scale(1,1)"><path fill="none" stroke="#000000" d="M 293 505 L 294 519" stroke-miterlimit="10"/></g><g transform="translate(-118,-118) scale(1,1)"><path fill="none" stroke="#000000" d="M 289.0771192885779 509.16306727169956 L 294 519 L 297.4747595042381 508.5632358277239" stroke-miterlimit="10"/></g><g transform="translate(-118,-118) scale(1,1)"><path fill="#C0C0C0" stroke="none" d="M 527 395.5 C 527 388.59644 532.59644 383 539.5 383 C 546.40356 383 552 388.59644 552 395.5 C 552 402.40356 546.40356 408 539.5 408 C 532.59644 408 527 402.40356 527 395.5 Z" opacity="0.2"/></g><g transform="translate(-118,-118) scale(1,1)"><path fill="none" stroke="#000000" d="M 520 388.5 C 520 381.59644 525.59644 376 532.5 376 C 539.40356 376 545 381.59644 545 388.5 C 545 395.40356 539.40356 401 532.5 401 C 525.59644 401 520 395.40356 520 388.5 Z" stroke-miterlimit="10"/></g><g transform="translate(-118,-118) scale(1,1)"><path fill="#000000" stroke="none" d="M 525 388.5 C 525 384.357864 528.357864 381 532.5 381 C 536.642136 381 540 384.357864 540 388.5 C 540 392.642136 536.642136 396 532.5 396 C 528.357864 396 525 392.642136 525 388.5 Z"/></g><g transform="translate(-118,-118) scale(1,1)"><path fill="#C0C0C0" stroke="none" d="M 471 391.5 L 482.5 375 L 493 391.5 L 482.5 407 L 471 391.5" opacity="0.2"/></g><g transform="translate(-118,-118) scale(1,1)"><path fill="#ffffff" stroke="none" d="M 464 384 L 475 368 L 486 384 L 475 400 L 464 384"/></g><g transform="translate(-118,-118) scale(1,1)"><path fill="none" stroke="#000000" d="M 464 384 L 475 368 L 486 384 L 475 400 L 464 384 L 464 384" stroke-miterlimit="10"/></g><g transform="translate(-118,-118) scale(1,1)"><path fill="#C0C0C0" stroke="none" d="M 287 288.5 L 298.5 279 L 309 288.5 L 298.5 297 L 287 288.5" opacity="0.2"/></g><g transform="translate(-118,-118) scale(1,1)"><path fill="#ffffff" stroke="none" d="M 280 281 L 291 272 L 302 281 L 291 290 L 280 281"/></g><g transform="translate(-118,-118) scale(1,1)"><path fill="none" stroke="#000000" d="M 280 281 L 291 272 L 302 281 L 291 290 L 280 281 L 280 281" stroke-miterlimit="10"/></g><g transform="translate(-118,-118) scale(1,1)"><path fill="none" stroke="#000000" d="M 289 233 L 291 271" stroke-miterlimit="10"/></g><g transform="translate(-118,-118) scale(1,1)"><path fill="none" stroke="#000000" d="M 286.2621621840279 261.07261903473307 L 291 271 L 294.66956115212656 260.63012435220156" stroke-miterlimit="10"/></g><g transform="translate(-118,-118) scale(1,1)"><path fill="none" stroke="#000000" d="M 291 291 L 290 311" stroke-miterlimit="10"/></g><g transform="translate(-118,-118) scale(1,1)"><path fill="none" stroke="#000000" d="M 286.3032340597966 300.63979143147435 L 290 311 L 294.71176546853417 301.06021800191127" stroke-miterlimit="10"/></g><g transform="translate(-118,-118) scale(1,1)"><g><path fill="none" stroke="none"/><text fill="#000000" stroke="none" font-family="Arial" font-size="13px" font-style="normal" font-weight="normal" text-decoration="none" x="302.5" y="299">[form completed]</text></g></g><g transform="translate(-118,-118) scale(1,1)"><path fill="none" stroke="#000000" d="M 279 281 L 160 280 L 160 208 L 215 210" stroke-miterlimit="10"/></g><g transform="translate(-118,-118) scale(1,1)"><path fill="none" stroke="#000000" d="M 204.6910653423202 213.8374296376205 L 215 210 L 204.99700987765792 205.42395491583326" stroke-miterlimit="10"/></g><g transform="translate(-118,-118) scale(1,1)"><g><path fill="none" stroke="none"/><text fill="#000000" stroke="none" font-family="Arial" font-size="13px" font-style="normal" font-weight="normal" text-decoration="none" x="166.5" y="274">[missing field]</text></g></g><g transform="translate(-118,-118) scale(1,1)"><path fill="none" stroke="#000000" d="M 348 349 L 463 381" stroke-miterlimit="10"/></g><g transform="translate(-118,-118) scale(1,1)"><path fill="none" stroke="#000000" d="M 452.0808311770327 382.3310718295937 L 463 381 L 454.3377717634069 374.2201915973112" stroke-miterlimit="10"/></g><g transform="translate(-118,-118) scale(1,1)"><g><path fill="none" stroke="none"/><text fill="#000000" stroke="none" font-family="Arial" font-size="13px" font-style="normal" font-weight="normal" text-decoration="none" x="369.5" y="346">[not all conditions meet]</text></g></g><g transform="translate(-118,-118) scale(1,1)"><path fill="none" stroke="#000000" d="M 487 385 L 519 387" stroke-miterlimit="10"/></g><g transform="translate(-118,-118) scale(1,1)"><path fill="none" stroke="#000000" d="M 508.5945336509049 390.5673898101903 L 519 387 L 509.11969865722506 382.1647497090678" stroke-miterlimit="10"/></g><g transform="translate(-118,-118) scale(1,1)"><path fill="none" stroke="#000000" d="M 334 405 L 463 386" stroke-miterlimit="10"/></g><g transform="translate(-118,-118) scale(1,1)"><path fill="none" stroke="#000000" d="M 453.55918395275904 391.6454399617884 L 463 386 L 452.332406073299 383.3162638328232" stroke-miterlimit="10"/></g><g transform="translate(-118,-118) scale(1,1)"><g><path fill="none" stroke="none"/><text fill="#000000" stroke="none" font-family="Arial" font-size="13px" font-style="normal" font-weight="normal" text-decoration="none" x="355.864990234375" y="425">[not all participants approve]</text></g></g><g transform="translate(-118,-118) scale(1,1)"><path fill="#C0C0C0" stroke="none" d="M 519 547.5 C 519 540.59644 524.59644 535 531.5 535 C 538.40356 535 544 540.59644 544 547.5 C 544 554.40356 538.40356 560 531.5 560 C 524.59644 560 519 554.40356 519 547.5 Z" opacity="0.2"/></g><g transform="translate(-118,-118) scale(1,1)"><path fill="none" stroke="#000000" d="M 512 540.5 C 512 533.59644 517.59644 528 524.5 528 C 531.40356 528 537 533.59644 537 540.5 C 537 547.40356 531.40356 553 524.5 553 C 517.59644 553 512 547.40356 512 540.5 Z" stroke-miterlimit="10"/></g><g transform="translate(-118,-118) scale(1,1)"><path fill="#000000" stroke="none" d="M 517 540.5 C 517 536.357864 520.357864 533 524.5 533 C 528.642136 533 532 536.357864 532 540.5 C 532 544.642136 528.642136 548 524.5 548 C 520.357864 548 517 544.642136 517 540.5 Z"/></g><g transform="translate(-118,-118) scale(1,1)"><path fill="none" stroke="#000000" d="M 416 540 L 511 540" stroke-miterlimit="10"/></g><g transform="translate(-118,-118) scale(1,1)"><path fill="none" stroke="#000000" d="M 500.83732514237585 544.209517756016 L 511 540 L 500.83732514237585 535.790482243984" stroke-miterlimit="10"/></g><g transform="translate(-118,-118) scale(1,1)"><path fill="#ffffff" stroke="none" d="M 552 312 L 605 312 L 615 322 L 615 361 L 552 361 L 552 312"/></g><g transform="translate(-118,-118) scale(1,1)"><path fill="none" stroke="#000000" d="M 552 312 L 605 312 L 615 322 L 615 361 L 552 361 L 552 312 L 552 312" stroke-miterlimit="10"/></g><g transform="translate(-118,-118) scale(1,1)"><path fill="none" stroke="#000000" d="M 605 312 L 605 322 L 615 322 L 605 312" stroke-miterlimit="10"/></g><g transform="translate(-118,-118) scale(1,1)"><g><path fill="none" stroke="none"/><text fill="#000000" stroke="none" font-family="Arial" font-size="13px" font-style="normal" font-weight="normal" text-decoration="none" x="557" y="327">the use</text><text fill="#000000" stroke="none" font-family="Arial" font-size="13px" font-style="normal" font-weight="normal" text-decoration="none" x="557" y="340">case will</text><text fill="#000000" stroke="none" font-family="Arial" font-size="13px" font-style="normal" font-weight="normal" text-decoration="none" x="557" y="353">fail</text></g></g><g transform="translate(-118,-118) scale(1,1)"><path fill="none" stroke="#000000" d="M 557 363 L 545 375" stroke-miterlimit="10" stroke-dasharray="3"/></g></g></svg>