<svg version="1.1" xmlns="http://www.w3.org/2000/svg" xmlns:xlink="http://www.w3.org/1999/xlink" width="427.00439453125" height="309"><defs/><g><text fill="#eeeeee" stroke="none" font-family="Arial" font-size="24px" font-style="normal" font-weight="normal" text-decoration="none" x="0" y="0"></text><text fill="#eeeeee" stroke="none" font-family="Arial" font-size="24px" font-style="normal" font-weight="normal" text-decoration="none" x="0" y="30"></text><text fill="#eeeeee" stroke="none" font-family="Arial" font-size="24px" font-style="normal" font-weight="normal" text-decoration="none" x="0" y="60"></text><text fill="#eeeeee" stroke="none" font-family="Arial" font-size="24px" font-style="normal" font-weight="normal" text-decoration="none" x="0" y="90"></text><text fill="#eeeeee" stroke="none" font-family="Arial" font-size="24px" font-style="normal" font-weight="normal" text-decoration="none" x="0" y="120"></text><text fill="#eeeeee" stroke="none" font-family="Arial" font-size="24px" font-style="normal" font-weight="normal" text-decoration="none" x="0" y="150"></text><text fill="#eeeeee" stroke="none" font-family="Arial" font-size="24px" font-style="normal" font-weight="normal" text-decoration="none" x="0" y="180"></text><text fill="#eeeeee" stroke="none" font-family="Arial" font-size="24px" font-style="normal" font-weight="normal" text-decoration="none" x="0" y="210"></text><text fill="#eeeeee" stroke="none" font-family="Arial" font-size="24px" font-style="normal" font-weight="normal" text-decoration="none" x="0" y="240"></text><text fill="#eeeeee" stroke="none" font-family="Arial" font-size="24px" font-style="normal" font-weight="normal" text-decoration="none" x="0" y="270"></text><text fill="#eeeeee" stroke="none" font-family="Arial" font-size="24px" font-style="normal" font-weight="normal" text-decoration="none" x="0" y="300"></text><text fill="#eeeeee" stroke="none" font-family="Arial" font-size="24px" font-style="normal" font-weight="normal" text-decoration="none" x="200" y="0"></text><text fill="#eeeeee" stroke="none" font-family="Arial" font-size="24px" font-style="normal" font-weight="normal" text-decoration="none" x="200" y="30"></text><text fill="#eeeeee" stroke="none" font-family="Arial" font-size="24px" font-style="normal" font-weight="normal" text-decoration="none" x="200" y="60"></text><text fill="#eeeeee" stroke="none" font-family="Arial" font-size="24px" font-style="normal" font-weight="normal" text-decoration="none" x="200" y="90"></text><text fill="#eeeeee" stroke="none" font-family="Arial" font-size="24px" font-style="normal" font-weight="normal" text-decoration="none" x="200" y="120"></text><text fill="#eeeeee" stroke="none" font-family="Arial" font-size="24px" font-style="normal" font-weight="normal" text-decoration="none" x="200" y="150"></text><text fill="#eeeeee" stroke="none" font-family="Arial" font-size="24px" font-style="normal" font-weight="normal" text-decoration="none" x="200" y="180"></text><text fill="#eeeeee" stroke="none" font-family="Arial" font-size="24px" font-style="normal" font-weight="normal" text-decoration="none" x="200" y="210"></text><text fill="#eeeeee" stroke="none" font-family="Arial" font-size="24px" font-style="normal" font-weight="normal" text-decoration="none" x="200" y="240"></text><text fill="#eeeeee" stroke="none" font-family="Arial" font-size="24px" font-style="normal" font-weight="normal" text-decoration="none" x="200" y="270"></text><text fill="#eeeeee" stroke="none" font-family="Arial" font-size="24px" font-style="normal" font-weight="normal" text-decoration="none" x="200" y="300"></text><text fill="#eeeeee" stroke="none" font-family="Arial" font-size="24px" font-style="normal" font-weight="normal" text-decoration="none" x="400" y="0"></text><text fill="#eeeeee" stroke="none" font-family="Arial" font-size="24px" font-style="normal" font-weight="normal" text-decoration="none" x="400" y="30"></text><text fill="#eeeeee" stroke="none" font-family="Arial" font-size="24px" font-style="normal" font-weight="normal" text-decoration="none" x="400" y="60"></text><text fill="#eeeeee" stroke="none" font-family="Arial" font-size="24px" font-style="normal" font-weight="normal" text-decoration="none" x="400" y="90"></text><text fill="#eeeeee" stroke="none" font-family="Arial" font-size="24px" font-style="normal" font-weight="normal" text-decoration="none" x="400" y="120"></text><text fill="#eeeeee" stroke="none" font-family="Arial" font-size="24px" font-style="normal" font-weight="normal" text-decoration="none" x="400" y="150"></text><text fill="#eeeeee" stroke="none" font-family="Arial" font-size="24px" font-style="normal" font-weight="normal" text-decoration="none" x="400" y="180"></text><text fill="#eeeeee" stroke="none" font-family="Arial" font-size="24px" font-style="normal" font-weight="normal" text-decoration="none" x="400" y="210"></text><text fill="#eeeeee" stroke="none" font-family="Arial" font-size="24px" font-style="normal" font-weight="normal" text-decoration="none" x="400" y="240"></text><text fill="#eeeeee" stroke="none" font-family="Arial" font-size="24px" font-style="normal" font-weight="normal" text-decoration="none" x="400" y="270"></text><text fill="#eeeeee" stroke="none" font-family="Arial" font-size="24px" font-style="normal" font-weight="normal" text-decoration="none" x="400" y="300"></text><g transform="translate(-102,-126) scale(1,1)"><path fill="#C0C0C0" stroke="none" d="M 119 160.5 C 119 155.2532944 123.2532944 151 128.5 151 C 133.7467056 151 138 155.2532944 138 160.5 C 138 165.7467056 133.7467056 170 128.5 170 C 123.2532944 170 119 165.7467056 119 160.5 Z" opacity="0.2"/></g><g transform="translate(-102,-126) scale(1,1)"><path fill="#000000" stroke="none" d="M 112 153.5 C 112 148.2532944 116.2532944 144 121.5 144 C 126.7467056 144 131 148.2532944 131 153.5 C 131 158.7467056 126.7467056 163 121.5 163 C 116.2532944 163 112 158.7467056 112 153.5 Z"/></g><g transform="translate(-102,-126) scale(1,1)"><path fill="#C0C0C0" stroke="none" d="M 209 143 L 369.22802734375 143 Q 379.22802734375 143 379.22802734375 153 L 379.22802734375 173 Q 379.22802734375 183 369.22802734375 183 L 209 183 Q 199 183 199 173 L 199 153 Q 199 143 209 143 Z" opacity="0.2"/></g><g transform="translate(-102,-126) scale(1,1)"><path fill="#ffffff" stroke="none" d="M 202 136 L 362.22802734375 136 Q 372.22802734375 136 372.22802734375 146 L 372.22802734375 166 Q 372.22802734375 176 362.22802734375 176 L 202 176 Q 192 176 192 166 L 192 146 Q 192 136 202 136 Z"/></g><g transform="translate(-102,-126) scale(1,1)"><path fill="none" stroke="#000000" d="M 202 136 L 362.22802734375 136 Q 372.22802734375 136 372.22802734375 146 L 372.22802734375 166 Q 372.22802734375 176 362.22802734375 176 L 202 176 Q 192 176 192 166 L 192 146 Q 192 136 202 136 Z" stroke-miterlimit="10"/></g><g transform="translate(-102,-126) scale(1,1)"><g><path fill="none" stroke="none"/><text fill="#000000" stroke="none" font-family="Arial" font-size="13px" font-style="normal" font-weight="bold" text-decoration="none" x="196.5" y="154">select to add advertisement</text></g></g><g transform="translate(-102,-126) scale(1,1)"><path fill="#C0C0C0" stroke="none" d="M 241 207 L 331.8544921875 207 Q 341.8544921875 207 341.8544921875 217 L 341.8544921875 237 Q 341.8544921875 247 331.8544921875 247 L 241 247 Q 231 247 231 237 L 231 217 Q 231 207 241 207 Z" opacity="0.2"/></g><g transform="translate(-102,-126) scale(1,1)"><path fill="#ffffff" stroke="none" d="M 234 200 L 324.8544921875 200 Q 334.8544921875 200 334.8544921875 210 L 334.8544921875 230 Q 334.8544921875 240 324.8544921875 240 L 234 240 Q 224 240 224 230 L 224 210 Q 224 200 234 200 Z"/></g><g transform="translate(-102,-126) scale(1,1)"><path fill="none" stroke="#000000" d="M 234 200 L 324.8544921875 200 Q 334.8544921875 200 334.8544921875 210 L 334.8544921875 230 Q 334.8544921875 240 324.8544921875 240 L 234 240 Q 224 240 224 230 L 224 210 Q 224 200 234 200 Z" stroke-miterlimit="10"/></g><g transform="translate(-102,-126) scale(1,1)"><g><path fill="none" stroke="none"/><text fill="#000000" stroke="none" font-family="Arial" font-size="13px" font-style="normal" font-weight="bold" text-decoration="none" x="228.5" y="218">enter title or text</text></g></g><g transform="translate(-102,-126) scale(1,1)"><path fill="#C0C0C0" stroke="none" d="M 233 271 L 344.0654296875 271 Q 354.0654296875 271 354.0654296875 281 L 354.0654296875 301 Q 354.0654296875 311 344.0654296875 311 L 233 311 Q 223 311 223 301 L 223 281 Q 223 271 233 271 Z" opacity="0.2"/></g><g transform="translate(-102,-126) scale(1,1)"><path fill="#ffffff" stroke="none" d="M 226 264 L 337.0654296875 264 Q 347.0654296875 264 347.0654296875 274 L 347.0654296875 294 Q 347.0654296875 304 337.0654296875 304 L 226 304 Q 216 304 216 294 L 216 274 Q 216 264 226 264 Z"/></g><g transform="translate(-102,-126) scale(1,1)"><path fill="none" stroke="#000000" d="M 226 264 L 337.0654296875 264 Q 347.0654296875 264 347.0654296875 274 L 347.0654296875 294 Q 347.0654296875 304 337.0654296875 304 L 226 304 Q 216 304 216 294 L 216 274 Q 216 264 226 264 Z" stroke-miterlimit="10"/></g><g transform="translate(-102,-126) scale(1,1)"><g><path fill="none" stroke="none"/><text fill="#000000" stroke="none" font-family="Arial" font-size="13px" font-style="normal" font-weight="bold" text-decoration="none" x="220.5" y="282">chose to upload file</text></g></g><g transform="translate(-102,-126) scale(1,1)"><path fill="#C0C0C0" stroke="none" d="M 401 271 L 449.25537109375 271 Q 459.25537109375 271 459.25537109375 281 L 459.25537109375 301 Q 459.25537109375 311 449.25537109375 311 L 401 311 Q 391 311 391 301 L 391 281 Q 391 271 401 271 Z" opacity="0.2"/></g><g transform="translate(-102,-126) scale(1,1)"><path fill="#ffffff" stroke="none" d="M 394 264 L 442.25537109375 264 Q 452.25537109375 264 452.25537109375 274 L 452.25537109375 294 Q 452.25537109375 304 442.25537109375 304 L 394 304 Q 384 304 384 294 L 384 274 Q 384 264 394 264 Z"/></g><g transform="translate(-102,-126) scale(1,1)"><path fill="none" stroke="#000000" d="M 394 264 L 442.25537109375 264 Q 452.25537109375 264 452.25537109375 274 L 452.25537109375 294 Q 452.25537109375 304 442.25537109375 304 L 394 304 Q 384 304 384 294 L 384 274 Q 384 264 394 264 Z" stroke-miterlimit="10"/></g><g transform="translate(-102,-126) scale(1,1)"><g><path fill="none" stroke="none"/><text fill="#000000" stroke="none" font-family="Arial" font-size="13px" font-style="normal" font-weight="bold" text-decoration="none" x="388.5" y="282">select file</text></g></g><g transform="translate(-102,-126) scale(1,1)"><path fill="#C0C0C0" stroke="none" d="M 337 343 L 516.00439453125 343 Q 526.00439453125 343 526.00439453125 353 L 526.00439453125 373 Q 526.00439453125 383 516.00439453125 383 L 337 383 Q 327 383 327 373 L 327 353 Q 327 343 337 343 Z" opacity="0.2"/></g><g transform="translate(-102,-126) scale(1,1)"><path fill="#ffffff" stroke="none" d="M 330 336 L 509.00439453125 336 Q 519.00439453125 336 519.00439453125 346 L 519.00439453125 366 Q 519.00439453125 376 509.00439453125 376 L 330 376 Q 320 376 320 366 L 320 346 Q 320 336 330 336 Z"/></g><g transform="translate(-102,-126) scale(1,1)"><path fill="none" stroke="#000000" d="M 330 336 L 509.00439453125 336 Q 519.00439453125 336 519.00439453125 346 L 519.00439453125 366 Q 519.00439453125 376 509.00439453125 376 L 330 376 Q 320 376 320 366 L 320 346 Q 320 336 330 336 Z" stroke-miterlimit="10"/></g><g transform="translate(-102,-126) scale(1,1)"><g><path fill="none" stroke="none"/><text fill="#000000" stroke="none" font-family="Arial" font-size="13px" font-style="normal" font-weight="bold" text-decoration="none" x="324.5" y="354">add and display advertisement</text></g></g><g transform="translate(-102,-126) scale(1,1)"><path fill="#C0C0C0" stroke="none" d="M 415 419.5 C 415 412.59644 420.59644 407 427.5 407 C 434.40356 407 440 412.59644 440 419.5 C 440 426.40356 434.40356 432 427.5 432 C 420.59644 432 415 426.40356 415 419.5 Z" opacity="0.2"/></g><g transform="translate(-102,-126) scale(1,1)"><path fill="none" stroke="#000000" d="M 408 412.5 C 408 405.59644 413.59644 400 420.5 400 C 427.40356 400 433 405.59644 433 412.5 C 433 419.40356 427.40356 425 420.5 425 C 413.59644 425 408 419.40356 408 412.5 Z" stroke-miterlimit="10"/></g><g transform="translate(-102,-126) scale(1,1)"><path fill="#000000" stroke="none" d="M 413 412.5 C 413 408.357864 416.357864 405 420.5 405 C 424.642136 405 428 408.357864 428 412.5 C 428 416.642136 424.642136 420 420.5 420 C 416.357864 420 413 416.642136 413 412.5 Z"/></g><g transform="translate(-102,-126) scale(1,1)"><path fill="none" stroke="#000000" d="M 132 153 L 191 154" stroke-miterlimit="10"/></g><g transform="translate(-102,-126) scale(1,1)"><path fill="none" stroke="#000000" d="M 180.76744705029876 158.0366892537772 L 191 154 L 180.9101220755271 149.61886276530458" stroke-miterlimit="10"/></g><g transform="translate(-102,-126) scale(1,1)"><path fill="none" stroke="#000000" d="M 281 177 L 280 199" stroke-miterlimit="10"/></g><g transform="translate(-102,-126) scale(1,1)"><path fill="none" stroke="#000000" d="M 276.25628748624484 188.6566631779511 L 280 199 L 284.66663910167813 189.0389518877435" stroke-miterlimit="10"/></g><g transform="translate(-102,-126) scale(1,1)"><path fill="none" stroke="#000000" d="M 280 241 L 280 263" stroke-miterlimit="10"/></g><g transform="translate(-102,-126) scale(1,1)"><path fill="none" stroke="#000000" d="M 275.790482243984 252.83732514237585 L 280 263 L 284.209517756016 252.83732514237585" stroke-miterlimit="10"/></g><g transform="translate(-102,-126) scale(1,1)"><path fill="none" stroke="#000000" d="M 348 284 L 383 284" stroke-miterlimit="10"/></g><g transform="translate(-102,-126) scale(1,1)"><path fill="none" stroke="#000000" d="M 372.83732514237585 288.209517756016 L 383 284 L 372.83732514237585 279.790482243984" stroke-miterlimit="10"/></g><g transform="translate(-102,-126) scale(1,1)"><path fill="none" stroke="#000000" d="M 418 305 L 419 335" stroke-miterlimit="10"/></g><g transform="translate(-102,-126) scale(1,1)"><path fill="none" stroke="#000000" d="M 414.45425113032024 324.9832057416654 L 419 335 L 422.86861329449727 324.7027270028595" stroke-miterlimit="10"/></g><g transform="translate(-102,-126) scale(1,1)"><path fill="none" stroke="#000000" d="M 419 377 L 420 399" stroke-miterlimit="10"/></g><g transform="translate(-102,-126) scale(1,1)"><path fill="none" stroke="#000000" d="M 415.33336089832187 389.0389518877435 L 420 399 L 423.74371251375516 388.6566631779511" stroke-miterlimit="10"/></g></g></svg>