<svg version="1.1" xmlns="http://www.w3.org/2000/svg" xmlns:xlink="http://www.w3.org/1999/xlink" width="493" height="381"><defs/><g><text fill="#eeeeee" stroke="none" font-family="Arial" font-size="24px" font-style="normal" font-weight="normal" text-decoration="none" x="0" y="0"></text><text fill="#eeeeee" stroke="none" font-family="Arial" font-size="24px" font-style="normal" font-weight="normal" text-decoration="none" x="0" y="30"></text><text fill="#eeeeee" stroke="none" font-family="Arial" font-size="24px" font-style="normal" font-weight="normal" text-decoration="none" x="0" y="60"></text><text fill="#eeeeee" stroke="none" font-family="Arial" font-size="24px" font-style="normal" font-weight="normal" text-decoration="none" x="0" y="90"></text><text fill="#eeeeee" stroke="none" font-family="Arial" font-size="24px" font-style="normal" font-weight="normal" text-decoration="none" x="0" y="120"></text><text fill="#eeeeee" stroke="none" font-family="Arial" font-size="24px" font-style="normal" font-weight="normal" text-decoration="none" x="0" y="150"></text><text fill="#eeeeee" stroke="none" font-family="Arial" font-size="24px" font-style="normal" font-weight="normal" text-decoration="none" x="0" y="180"></text><text fill="#eeeeee" stroke="none" font-family="Arial" font-size="24px" font-style="normal" font-weight="normal" text-decoration="none" x="0" y="210"></text><text fill="#eeeeee" stroke="none" font-family="Arial" font-size="24px" font-style="normal" font-weight="normal" text-decoration="none" x="0" y="240"></text><text fill="#eeeeee" stroke="none" font-family="Arial" font-size="24px" font-style="normal" font-weight="normal" text-decoration="none" x="0" y="270"></text><text fill="#eeeeee" stroke="none" font-family="Arial" font-size="24px" font-style="normal" font-weight="normal" text-decoration="none" x="0" y="300"></text><text fill="#eeeeee" stroke="none" font-family="Arial" font-size="24px" font-style="normal" font-weight="normal" text-decoration="none" x="0" y="330"></text><text fill="#eeeeee" stroke="none" font-family="Arial" font-size="24px" font-style="normal" font-weight="normal" text-decoration="none" x="0" y="360"></text><text fill="#eeeeee" stroke="none" font-family="Arial" font-size="24px" font-style="normal" font-weight="normal" text-decoration="none" x="200" y="0"></text><text fill="#eeeeee" stroke="none" font-family="Arial" font-size="24px" font-style="normal" font-weight="normal" text-decoration="none" x="200" y="30"></text><text fill="#eeeeee" stroke="none" font-family="Arial" font-size="24px" font-style="normal" font-weight="normal" text-decoration="none" x="200" y="60"></text><text fill="#eeeeee" stroke="none" font-family="Arial" font-size="24px" font-style="normal" font-weight="normal" text-decoration="none" x="200" y="90"></text><text fill="#eeeeee" stroke="none" font-family="Arial" font-size="24px" font-style="normal" font-weight="normal" text-decoration="none" x="200" y="120"></text><text fill="#eeeeee" stroke="none" font-family="Arial" font-size="24px" font-style="normal" font-weight="normal" text-decoration="none" x="200" y="150"></text><text fill="#eeeeee" stroke="none" font-family="Arial" font-size="24px" font-style="normal" font-weight="normal" text-decoration="none" x="200" y="180"></text><text fill="#eeeeee" stroke="none" font-family="Arial" font-size="24px" font-style="normal" font-weight="normal" text-decoration="none" x="200" y="210"></text><text fill="#eeeeee" stroke="none" font-family="Arial" font-size="24px" font-style="normal" font-weight="normal" text-decoration="none" x="200" y="240"></text><text fill="#eeeeee" stroke="none" font-family="Arial" font-size="24px" font-style="normal" font-weight="normal" text-decoration="none" x="200" y="270"></text><text fill="#eeeeee" stroke="none" font-family="Arial" font-size="24px" font-style="normal" font-weight="normal" text-decoration="none" x="200" y="300"></text><text fill="#eeeeee" stroke="none" font-family="Arial" font-size="24px" font-style="normal" font-weight="normal" text-decoration="none" x="200" y="330"></text><text fill="#eeeeee" stroke="none" font-family="Arial" font-size="24px" font-style="normal" font-weight="normal" text-decoration="none" x="200" y="360"></text><text fill="#eeeeee" stroke="none" font-family="Arial" font-size="24px" font-style="normal" font-weight="normal" text-decoration="none" x="400" y="0"></text><text fill="#eeeeee" stroke="none" font-family="Arial" font-size="24px" font-style="normal" font-weight="normal" text-decoration="none" x="400" y="30"></text><text fill="#eeeeee" stroke="none" font-family="Arial" font-size="24px" font-style="normal" font-weight="normal" text-decoration="none" x="400" y="60"></text><text fill="#eeeeee" stroke="none" font-family="Arial" font-size="24px" font-style="normal" font-weight="normal" text-decoration="none" x="400" y="90"></text><text fill="#eeeeee" stroke="none" font-family="Arial" font-size="24px" font-style="normal" font-weight="normal" text-decoration="none" x="400" y="120"></text><text fill="#eeeeee" stroke="none" font-family="Arial" font-size="24px" font-style="normal" font-weight="normal" text-decoration="none" x="400" y="150"></text><text fill="#eeeeee" stroke="none" font-family="Arial" font-size="24px" font-style="normal" font-weight="normal" text-decoration="none" x="400" y="180"></text><text fill="#eeeeee" stroke="none" font-family="Arial" font-size="24px" font-style="normal" font-weight="normal" text-decoration="none" x="400" y="210"></text><text fill="#eeeeee" stroke="none" font-family="Arial" font-size="24px" font-style="normal" font-weight="normal" text-decoration="none" x="400" y="240"></text><text fill="#eeeeee" stroke="none" font-family="Arial" font-size="24px" font-style="normal" font-weight="normal" text-decoration="none" x="400" y="270"></text><text fill="#eeeeee" stroke="none" font-family="Arial" font-size="24px" font-style="normal" font-weight="normal" text-decoration="none" x="400" y="300"></text><text fill="#eeeeee" stroke="none" font-family="Arial" font-size="24px" font-style="normal" font-weight="normal" text-decoration="none" x="400" y="330"></text><text fill="#eeeeee" stroke="none" font-family="Arial" font-size="24px" font-style="normal" font-weight="normal" text-decoration="none" x="400" y="360"></text><g transform="translate(-110,-198) scale(1,1)"><path fill="#C0C0C0" stroke="none" d="M 127 232.5 C 127 227.2532944 131.2532944 223 136.5 223 C 141.7467056 223 146 227.2532944 146 232.5 C 146 237.7467056 141.7467056 242 136.5 242 C 131.2532944 242 127 237.7467056 127 232.5 Z" opacity="0.2"/></g><g transform="translate(-110,-198) scale(1,1)"><path fill="#000000" stroke="none" d="M 120 225.5 C 120 220.2532944 124.2532944 216 129.5 216 C 134.7467056 216 139 220.2532944 139 225.5 C 139 230.7467056 134.7467056 235 129.5 235 C 124.2532944 235 120 230.7467056 120 225.5 Z"/></g><g transform="translate(-110,-198) scale(1,1)"><path fill="#C0C0C0" stroke="none" d="M 209 215 L 330.919921875 215 Q 340.919921875 215 340.919921875 225 L 340.919921875 245 Q 340.919921875 255 330.919921875 255 L 209 255 Q 199 255 199 245 L 199 225 Q 199 215 209 215 Z" opacity="0.2"/></g><g transform="translate(-110,-198) scale(1,1)"><path fill="#ffffff" stroke="none" d="M 202 208 L 323.919921875 208 Q 333.919921875 208 333.919921875 218 L 333.919921875 238 Q 333.919921875 248 323.919921875 248 L 202 248 Q 192 248 192 238 L 192 218 Q 192 208 202 208 Z"/></g><g transform="translate(-110,-198) scale(1,1)"><path fill="none" stroke="#000000" d="M 202 208 L 323.919921875 208 Q 333.919921875 208 333.919921875 218 L 333.919921875 238 Q 333.919921875 248 323.919921875 248 L 202 248 Q 192 248 192 238 L 192 218 Q 192 208 202 208 Z" stroke-miterlimit="10"/></g><g transform="translate(-110,-198) scale(1,1)"><g><path fill="none" stroke="none"/><text fill="#000000" stroke="none" font-family="Arial" font-size="13px" font-style="normal" font-weight="bold" text-decoration="none" x="196.5" y="226">select to add account</text></g></g><g transform="translate(-110,-198) scale(1,1)"><path fill="none" stroke="#000000" d="M 140 225 L 191 226" stroke-miterlimit="10"/></g><g transform="translate(-110,-198) scale(1,1)"><path fill="none" stroke="#000000" d="M 180.7567544868664 230.00947893842437 L 191 226 L 180.92180188992006 221.59206138268908" stroke-miterlimit="10"/></g><g transform="translate(-110,-198) scale(1,1)"><path fill="#C0C0C0" stroke="none" d="M 401 215 L 554.67724609375 215 Q 564.67724609375 215 564.67724609375 225 L 564.67724609375 245 Q 564.67724609375 255 554.67724609375 255 L 401 255 Q 391 255 391 245 L 391 225 Q 391 215 401 215 Z" opacity="0.2"/></g><g transform="translate(-110,-198) scale(1,1)"><path fill="#ffffff" stroke="none" d="M 394 208 L 547.67724609375 208 Q 557.67724609375 208 557.67724609375 218 L 557.67724609375 238 Q 557.67724609375 248 547.67724609375 248 L 394 248 Q 384 248 384 238 L 384 218 Q 384 208 394 208 Z"/></g><g transform="translate(-110,-198) scale(1,1)"><path fill="none" stroke="#000000" d="M 394 208 L 547.67724609375 208 Q 557.67724609375 208 557.67724609375 218 L 557.67724609375 238 Q 557.67724609375 248 547.67724609375 248 L 394 248 Q 384 248 384 238 L 384 218 Q 384 208 394 208 Z" stroke-miterlimit="10"/></g><g transform="translate(-110,-198) scale(1,1)"><g><path fill="none" stroke="none"/><text fill="#000000" stroke="none" font-family="Arial" font-size="13px" font-style="normal" font-weight="bold" text-decoration="none" x="388.5" y="226">complete information form</text></g></g><g transform="translate(-110,-198) scale(1,1)"><path fill="none" stroke="#000000" d="M 335 228 L 383 228" stroke-miterlimit="10"/></g><g transform="translate(-110,-198) scale(1,1)"><path fill="none" stroke="#000000" d="M 372.83732514237585 232.209517756016 L 383 228 L 372.83732514237585 223.790482243984" stroke-miterlimit="10"/></g><g transform="translate(-110,-198) scale(1,1)"><path fill="#C0C0C0" stroke="none" d="M 417 351 L 526.65625 351 Q 536.65625 351 536.65625 361 L 536.65625 381 Q 536.65625 391 526.65625 391 L 417 391 Q 407 391 407 381 L 407 361 Q 407 351 417 351 Z" opacity="0.2"/></g><g transform="translate(-110,-198) scale(1,1)"><path fill="#ffffff" stroke="none" d="M 410 344 L 519.65625 344 Q 529.65625 344 529.65625 354 L 529.65625 374 Q 529.65625 384 519.65625 384 L 410 384 Q 400 384 400 374 L 400 354 Q 400 344 410 344 Z"/></g><g transform="translate(-110,-198) scale(1,1)"><path fill="none" stroke="#000000" d="M 410 344 L 519.65625 344 Q 529.65625 344 529.65625 354 L 529.65625 374 Q 529.65625 384 519.65625 384 L 410 384 Q 400 384 400 374 L 400 354 Q 400 344 410 344 Z" stroke-miterlimit="10"/></g><g transform="translate(-110,-198) scale(1,1)"><g><path fill="none" stroke="none"/><text fill="#000000" stroke="none" font-family="Arial" font-size="13px" font-style="normal" font-weight="bold" text-decoration="none" x="404.5" y="362">select account type</text></g></g><g transform="translate(-110,-198) scale(1,1)"><path fill="#C0C0C0" stroke="none" d="M 377 415 L 564.6435546875 415 Q 574.6435546875 415 574.6435546875 425 L 574.6435546875 445 Q 574.6435546875 455 564.6435546875 455 L 377 455 Q 367 455 367 445 L 367 425 Q 367 415 377 415 Z" opacity="0.2"/></g><g transform="translate(-110,-198) scale(1,1)"><path fill="#ffffff" stroke="none" d="M 370 408 L 557.6435546875 408 Q 567.6435546875 408 567.6435546875 418 L 567.6435546875 438 Q 567.6435546875 448 557.6435546875 448 L 370 448 Q 360 448 360 438 L 360 418 Q 360 408 370 408 Z"/></g><g transform="translate(-110,-198) scale(1,1)"><path fill="none" stroke="#000000" d="M 370 408 L 557.6435546875 408 Q 567.6435546875 408 567.6435546875 418 L 567.6435546875 438 Q 567.6435546875 448 557.6435546875 448 L 370 448 Q 360 448 360 438 L 360 418 Q 360 408 370 408 Z" stroke-miterlimit="10"/></g><g transform="translate(-110,-198) scale(1,1)"><g><path fill="none" stroke="none"/><text fill="#000000" stroke="none" font-family="Arial" font-size="13px" font-style="normal" font-weight="bold" text-decoration="none" x="364.5" y="426">add the account to the database</text></g></g><g transform="translate(-110,-198) scale(1,1)"><path fill="none" stroke="#000000" d="M 464 385 L 463 407" stroke-miterlimit="10"/></g><g transform="translate(-110,-198) scale(1,1)"><path fill="none" stroke="#000000" d="M 459.25628748624484 396.6566631779511 L 463 407 L 467.66663910167813 397.0389518877435" stroke-miterlimit="10"/></g><g transform="translate(-110,-198) scale(1,1)"><path fill="#C0C0C0" stroke="none" d="M 463 310.5 L 474.5 295 L 485 310.5 L 474.5 325 L 463 310.5" opacity="0.2"/></g><g transform="translate(-110,-198) scale(1,1)"><path fill="#ffffff" stroke="none" d="M 456 303 L 467 288 L 478 303 L 467 318 L 456 303"/></g><g transform="translate(-110,-198) scale(1,1)"><path fill="none" stroke="#000000" d="M 456 303 L 467 288 L 478 303 L 467 318 L 456 303 L 456 303" stroke-miterlimit="10"/></g><g transform="translate(-110,-198) scale(1,1)"><path fill="none" stroke="#000000" d="M 469 249 L 468 287" stroke-miterlimit="10"/></g><g transform="translate(-110,-198) scale(1,1)"><path fill="none" stroke="#000000" d="M 464.0592853332588 276.7301038021151 L 468 287 L 472.4754071800324 276.9515806928197" stroke-miterlimit="10"/></g><g transform="translate(-110,-198) scale(1,1)"><path fill="none" stroke="#000000" d="M 466 319 L 465 343" stroke-miterlimit="10"/></g><g transform="translate(-110,-198) scale(1,1)"><path fill="none" stroke="#000000" d="M 461.2172092782506 332.6708909215051 L 465 343 L 469.6289461018608 333.02137995582217" stroke-miterlimit="10"/></g><g transform="translate(-110,-198) scale(1,1)"><g><path fill="none" stroke="none"/><text fill="#000000" stroke="none" font-family="Arial" font-size="13px" font-style="normal" font-weight="normal" text-decoration="none" x="353.5" y="325">[form completed]</text></g></g><g transform="translate(-110,-198) scale(1,1)"><path fill="#C0C0C0" stroke="none" d="M 425 479 L 517.2890625 479 Q 527.2890625 479 527.2890625 489 L 527.2890625 509 Q 527.2890625 519 517.2890625 519 L 425 519 Q 415 519 415 509 L 415 489 Q 415 479 425 479 Z" opacity="0.2"/></g><g transform="translate(-110,-198) scale(1,1)"><path fill="#ffffff" stroke="none" d="M 418 472 L 510.2890625 472 Q 520.2890625 472 520.2890625 482 L 520.2890625 502 Q 520.2890625 512 510.2890625 512 L 418 512 Q 408 512 408 502 L 408 482 Q 408 472 418 472 Z"/></g><g transform="translate(-110,-198) scale(1,1)"><path fill="none" stroke="#000000" d="M 418 472 L 510.2890625 472 Q 520.2890625 472 520.2890625 482 L 520.2890625 502 Q 520.2890625 512 510.2890625 512 L 418 512 Q 408 512 408 502 L 408 482 Q 408 472 418 472 Z" stroke-miterlimit="10"/></g><g transform="translate(-110,-198) scale(1,1)"><g><path fill="none" stroke="none"/><text fill="#000000" stroke="none" font-family="Arial" font-size="13px" font-style="normal" font-weight="bold" text-decoration="none" x="412.5" y="490">open home page</text></g></g><g transform="translate(-110,-198) scale(1,1)"><path fill="none" stroke="#000000" d="M 479 303 L 592 304 L 592 224 L 559 225" stroke-miterlimit="10"/></g><g transform="translate(-110,-198) scale(1,1)"><path fill="none" stroke="#000000" d="M 569.0305093940523 220.48459511274683 L 559 225 L 569.2855146268693 228.8997677957101" stroke-miterlimit="10"/></g><g transform="translate(-110,-198) scale(1,1)"><g><path fill="none" stroke="none"/><text fill="#000000" stroke="none" font-family="Arial" font-size="13px" font-style="normal" font-weight="normal" text-decoration="none" x="507.5" y="299">[missing field]</text></g></g><g transform="translate(-110,-198) scale(1,1)"><path fill="none" stroke="#000000" d="M 463 449 L 464 471" stroke-miterlimit="10"/></g><g transform="translate(-110,-198) scale(1,1)"><path fill="none" stroke="#000000" d="M 459.33336089832187 461.0389518877435 L 464 471 L 467.74371251375516 460.6566631779511" stroke-miterlimit="10"/></g><g transform="translate(-110,-198) scale(1,1)"><path fill="#C0C0C0" stroke="none" d="M 463 563.5 C 463 556.59644 468.59644 551 475.5 551 C 482.40356 551 488 556.59644 488 563.5 C 488 570.40356 482.40356 576 475.5 576 C 468.59644 576 463 570.40356 463 563.5 Z" opacity="0.2"/></g><g transform="translate(-110,-198) scale(1,1)"><path fill="none" stroke="#000000" d="M 456 556.5 C 456 549.59644 461.59644 544 468.5 544 C 475.40356 544 481 549.59644 481 556.5 C 481 563.40356 475.40356 569 468.5 569 C 461.59644 569 456 563.40356 456 556.5 Z" stroke-miterlimit="10"/></g><g transform="translate(-110,-198) scale(1,1)"><path fill="#000000" stroke="none" d="M 461 556.5 C 461 552.357864 464.357864 549 468.5 549 C 472.642136 549 476 552.357864 476 556.5 C 476 560.642136 472.642136 564 468.5 564 C 464.357864 564 461 560.642136 461 556.5 Z"/></g><g transform="translate(-110,-198) scale(1,1)"><path fill="none" stroke="#000000" d="M 465 513 L 467 543" stroke-miterlimit="10"/></g><g transform="translate(-110,-198) scale(1,1)"><path fill="none" stroke="#000000" d="M 462.1237945855094 533.1398468188526 L 467 543 L 470.5241832628826 532.5798209070276" stroke-miterlimit="10"/></g></g></svg>