<svg version="1.1" xmlns="http://www.w3.org/2000/svg" xmlns:xlink="http://www.w3.org/1999/xlink" width="549.4853515625" height="333"><defs/><g><text fill="#eeeeee" stroke="none" font-family="Arial" font-size="24px" font-style="normal" font-weight="normal" text-decoration="none" x="0" y="0"></text><text fill="#eeeeee" stroke="none" font-family="Arial" font-size="24px" font-style="normal" font-weight="normal" text-decoration="none" x="0" y="30"></text><text fill="#eeeeee" stroke="none" font-family="Arial" font-size="24px" font-style="normal" font-weight="normal" text-decoration="none" x="0" y="60"></text><text fill="#eeeeee" stroke="none" font-family="Arial" font-size="24px" font-style="normal" font-weight="normal" text-decoration="none" x="0" y="90"></text><text fill="#eeeeee" stroke="none" font-family="Arial" font-size="24px" font-style="normal" font-weight="normal" text-decoration="none" x="0" y="120"></text><text fill="#eeeeee" stroke="none" font-family="Arial" font-size="24px" font-style="normal" font-weight="normal" text-decoration="none" x="0" y="150"></text><text fill="#eeeeee" stroke="none" font-family="Arial" font-size="24px" font-style="normal" font-weight="normal" text-decoration="none" x="0" y="180"></text><text fill="#eeeeee" stroke="none" font-family="Arial" font-size="24px" font-style="normal" font-weight="normal" text-decoration="none" x="0" y="210"></text><text fill="#eeeeee" stroke="none" font-family="Arial" font-size="24px" font-style="normal" font-weight="normal" text-decoration="none" x="0" y="240"></text><text fill="#eeeeee" stroke="none" font-family="Arial" font-size="24px" font-style="normal" font-weight="normal" text-decoration="none" x="0" y="270"></text><text fill="#eeeeee" stroke="none" font-family="Arial" font-size="24px" font-style="normal" font-weight="normal" text-decoration="none" x="0" y="300"></text><text fill="#eeeeee" stroke="none" font-family="Arial" font-size="24px" font-style="normal" font-weight="normal" text-decoration="none" x="0" y="330"></text><text fill="#eeeeee" stroke="none" font-family="Arial" font-size="24px" font-style="normal" font-weight="normal" text-decoration="none" x="200" y="0"></text><text fill="#eeeeee" stroke="none" font-family="Arial" font-size="24px" font-style="normal" font-weight="normal" text-decoration="none" x="200" y="30"></text><text fill="#eeeeee" stroke="none" font-family="Arial" font-size="24px" font-style="normal" font-weight="normal" text-decoration="none" x="200" y="60"></text><text fill="#eeeeee" stroke="none" font-family="Arial" font-size="24px" font-style="normal" font-weight="normal" text-decoration="none" x="200" y="90"></text><text fill="#eeeeee" stroke="none" font-family="Arial" font-size="24px" font-style="normal" font-weight="normal" text-decoration="none" x="200" y="120"></text><text fill="#eeeeee" stroke="none" font-family="Arial" font-size="24px" font-style="normal" font-weight="normal" text-decoration="none" x="200" y="150"></text><text fill="#eeeeee" stroke="none" font-family="Arial" font-size="24px" font-style="normal" font-weight="normal" text-decoration="none" x="200" y="180"></text><text fill="#eeeeee" stroke="none" font-family="Arial" font-size="24px" font-style="normal" font-weight="normal" text-decoration="none" x="200" y="210"></text><text fill="#eeeeee" stroke="none" font-family="Arial" font-size="24px" font-style="normal" font-weight="normal" text-decoration="none" x="200" y="240"></text><text fill="#eeeeee" stroke="none" font-family="Arial" font-size="24px" font-style="normal" font-weight="normal" text-decoration="none" x="200" y="270"></text><text fill="#eeeeee" stroke="none" font-family="Arial" font-size="24px" font-style="normal" font-weight="normal" text-decoration="none" x="200" y="300"></text><text fill="#eeeeee" stroke="none" font-family="Arial" font-size="24px" font-style="normal" font-weight="normal" text-decoration="none" x="200" y="330"></text><text fill="#eeeeee" stroke="none" font-family="Arial" font-size="24px" font-style="normal" font-weight="normal" text-decoration="none" x="400" y="0"></text><text fill="#eeeeee" stroke="none" font-family="Arial" font-size="24px" font-style="normal" font-weight="normal" text-decoration="none" x="400" y="30"></text><text fill="#eeeeee" stroke="none" font-family="Arial" font-size="24px" font-style="normal" font-weight="normal" text-decoration="none" x="400" y="60"></text><text fill="#eeeeee" stroke="none" font-family="Arial" font-size="24px" font-style="normal" font-weight="normal" text-decoration="none" x="400" y="90"></text><text fill="#eeeeee" stroke="none" font-family="Arial" font-size="24px" font-style="normal" font-weight="normal" text-decoration="none" x="400" y="120"></text><text fill="#eeeeee" stroke="none" font-family="Arial" font-size="24px" font-style="normal" font-weight="normal" text-decoration="none" x="400" y="150"></text><text fill="#eeeeee" stroke="none" font-family="Arial" font-size="24px" font-style="normal" font-weight="normal" text-decoration="none" x="400" y="180"></text><text fill="#eeeeee" stroke="none" font-family="Arial" font-size="24px" font-style="normal" font-weight="normal" text-decoration="none" x="400" y="210"></text><text fill="#eeeeee" stroke="none" font-family="Arial" font-size="24px" font-style="normal" font-weight="normal" text-decoration="none" x="400" y="240"></text><text fill="#eeeeee" stroke="none" font-family="Arial" font-size="24px" font-style="normal" font-weight="normal" text-decoration="none" x="400" y="270"></text><text fill="#eeeeee" stroke="none" font-family="Arial" font-size="24px" font-style="normal" font-weight="normal" text-decoration="none" x="400" y="300"></text><text fill="#eeeeee" stroke="none" font-family="Arial" font-size="24px" font-style="normal" font-weight="normal" text-decoration="none" x="400" y="330"></text><g transform="translate(-126,-222) scale(1,1)"><path fill="#C0C0C0" stroke="none" d="M 143 256.5 C 143 251.2532944 147.2532944 247 152.5 247 C 157.7467056 247 162 251.2532944 162 256.5 C 162 261.7467056 157.7467056 266 152.5 266 C 147.2532944 266 143 261.7467056 143 256.5 Z" opacity="0.2"/></g><g transform="translate(-126,-222) scale(1,1)"><path fill="#000000" stroke="none" d="M 136 249.5 C 136 244.2532944 140.2532944 240 145.5 240 C 150.7467056 240 155 244.2532944 155 249.5 C 155 254.7467056 150.7467056 259 145.5 259 C 140.2532944 259 136 254.7467056 136 249.5 Z"/></g><g transform="translate(-126,-222) scale(1,1)"><path fill="#C0C0C0" stroke="none" d="M 217 239 L 476.92431640625 239 Q 486.92431640625 239 486.92431640625 249 L 486.92431640625 269 Q 486.92431640625 279 476.92431640625 279 L 217 279 Q 207 279 207 269 L 207 249 Q 207 239 217 239 Z" opacity="0.2"/></g><g transform="translate(-126,-222) scale(1,1)"><path fill="#ffffff" stroke="none" d="M 210 232 L 469.92431640625 232 Q 479.92431640625 232 479.92431640625 242 L 479.92431640625 262 Q 479.92431640625 272 469.92431640625 272 L 210 272 Q 200 272 200 262 L 200 242 Q 200 232 210 232 Z"/></g><g transform="translate(-126,-222) scale(1,1)"><path fill="none" stroke="#000000" d="M 210 232 L 469.92431640625 232 Q 479.92431640625 232 479.92431640625 242 L 479.92431640625 262 Q 479.92431640625 272 469.92431640625 272 L 210 272 Q 200 272 200 262 L 200 242 Q 200 232 210 232 Z" stroke-miterlimit="10"/></g><g transform="translate(-126,-222) scale(1,1)"><g><path fill="none" stroke="none"/><text fill="#000000" stroke="none" font-family="Arial" font-size="13px" font-style="normal" font-weight="bold" text-decoration="none" x="204.5" y="250">select to change supervisor responsibilities</text></g></g><g transform="translate(-126,-222) scale(1,1)"><path fill="none" stroke="#000000" d="M 156 249 L 199 250" stroke-miterlimit="10"/></g><g transform="translate(-126,-222) scale(1,1)"><path fill="none" stroke="#000000" d="M 188.7422028826507 253.97210250362454 L 199 250 L 188.9379414824055 245.55534271416747" stroke-miterlimit="10"/></g><g transform="translate(-126,-222) scale(1,1)"><path fill="#C0C0C0" stroke="none" d="M 465 311 L 560.9453125 311 Q 570.9453125 311 570.9453125 321 L 570.9453125 341 Q 570.9453125 351 560.9453125 351 L 465 351 Q 455 351 455 341 L 455 321 Q 455 311 465 311 Z" opacity="0.2"/></g><g transform="translate(-126,-222) scale(1,1)"><path fill="#ffffff" stroke="none" d="M 458 304 L 553.9453125 304 Q 563.9453125 304 563.9453125 314 L 563.9453125 334 Q 563.9453125 344 553.9453125 344 L 458 344 Q 448 344 448 334 L 448 314 Q 448 304 458 304 Z"/></g><g transform="translate(-126,-222) scale(1,1)"><path fill="none" stroke="#000000" d="M 458 304 L 553.9453125 304 Q 563.9453125 304 563.9453125 314 L 563.9453125 334 Q 563.9453125 344 553.9453125 344 L 458 344 Q 448 344 448 334 L 448 314 Q 448 304 458 304 Z" stroke-miterlimit="10"/></g><g transform="translate(-126,-222) scale(1,1)"><g><path fill="none" stroke="none"/><text fill="#000000" stroke="none" font-family="Arial" font-size="13px" font-style="normal" font-weight="bold" text-decoration="none" x="452.5" y="322">select supervisor</text></g></g><g transform="translate(-126,-222) scale(1,1)"><path fill="#C0C0C0" stroke="none" d="M 457 383 L 570.25537109375 383 Q 580.25537109375 383 580.25537109375 393 L 580.25537109375 413 Q 580.25537109375 423 570.25537109375 423 L 457 423 Q 447 423 447 413 L 447 393 Q 447 383 457 383 Z" opacity="0.2"/></g><g transform="translate(-126,-222) scale(1,1)"><path fill="#ffffff" stroke="none" d="M 450 376 L 563.25537109375 376 Q 573.25537109375 376 573.25537109375 386 L 573.25537109375 406 Q 573.25537109375 416 563.25537109375 416 L 450 416 Q 440 416 440 406 L 440 386 Q 440 376 450 376 Z"/></g><g transform="translate(-126,-222) scale(1,1)"><path fill="none" stroke="#000000" d="M 450 376 L 563.25537109375 376 Q 573.25537109375 376 573.25537109375 386 L 573.25537109375 406 Q 573.25537109375 416 563.25537109375 416 L 450 416 Q 440 416 440 406 L 440 386 Q 440 376 450 376 Z" stroke-miterlimit="10"/></g><g transform="translate(-126,-222) scale(1,1)"><g><path fill="none" stroke="none"/><text fill="#000000" stroke="none" font-family="Arial" font-size="13px" font-style="normal" font-weight="bold" text-decoration="none" x="444.5" y="394">confirm the process</text></g></g><g transform="translate(-126,-222) scale(1,1)"><path fill="none" stroke="#000000" d="M 505 345 L 506 375" stroke-miterlimit="10"/></g><g transform="translate(-126,-222) scale(1,1)"><path fill="none" stroke="#000000" d="M 501.45425113032024 364.9832057416654 L 506 375 L 509.86861329449727 364.7027270028595" stroke-miterlimit="10"/></g><g transform="translate(-126,-222) scale(1,1)"><path fill="#C0C0C0" stroke="none" d="M 297 303 L 418.9326171875 303 Q 428.9326171875 303 428.9326171875 313 L 428.9326171875 333 Q 428.9326171875 343 418.9326171875 343 L 297 343 Q 287 343 287 333 L 287 313 Q 287 303 297 303 Z" opacity="0.2"/></g><g transform="translate(-126,-222) scale(1,1)"><path fill="#ffffff" stroke="none" d="M 290 296 L 411.9326171875 296 Q 421.9326171875 296 421.9326171875 306 L 421.9326171875 326 Q 421.9326171875 336 411.9326171875 336 L 290 336 Q 280 336 280 326 L 280 306 Q 280 296 290 296 Z"/></g><g transform="translate(-126,-222) scale(1,1)"><path fill="none" stroke="#000000" d="M 290 296 L 411.9326171875 296 Q 421.9326171875 296 421.9326171875 306 L 421.9326171875 326 Q 421.9326171875 336 411.9326171875 336 L 290 336 Q 280 336 280 326 L 280 306 Q 280 296 290 296 Z" stroke-miterlimit="10"/></g><g transform="translate(-126,-222) scale(1,1)"><g><path fill="none" stroke="none"/><text fill="#000000" stroke="none" font-family="Arial" font-size="13px" font-style="normal" font-weight="bold" text-decoration="none" x="284.5" y="314">show supervisors list</text></g></g><g transform="translate(-126,-222) scale(1,1)"><path fill="#C0C0C0" stroke="none" d="M 529 455 L 662.4853515625 455 Q 672.4853515625 455 672.4853515625 465 L 672.4853515625 485 Q 672.4853515625 495 662.4853515625 495 L 529 495 Q 519 495 519 485 L 519 465 Q 519 455 529 455 Z" opacity="0.2"/></g><g transform="translate(-126,-222) scale(1,1)"><path fill="#ffffff" stroke="none" d="M 522 448 L 655.4853515625 448 Q 665.4853515625 448 665.4853515625 458 L 665.4853515625 478 Q 665.4853515625 488 655.4853515625 488 L 522 488 Q 512 488 512 478 L 512 458 Q 512 448 522 448 Z"/></g><g transform="translate(-126,-222) scale(1,1)"><path fill="none" stroke="#000000" d="M 522 448 L 655.4853515625 448 Q 665.4853515625 448 665.4853515625 458 L 665.4853515625 478 Q 665.4853515625 488 655.4853515625 488 L 522 488 Q 512 488 512 478 L 512 458 Q 512 448 522 448 Z" stroke-miterlimit="10"/></g><g transform="translate(-126,-222) scale(1,1)"><g><path fill="none" stroke="none"/><text fill="#000000" stroke="none" font-family="Arial" font-size="13px" font-style="normal" font-weight="bold" text-decoration="none" x="516.5" y="466">change responsibilities</text></g></g><g transform="translate(-126,-222) scale(1,1)"><path fill="none" stroke="#000000" d="M 343 273 L 346 295" stroke-miterlimit="10"/></g><g transform="translate(-126,-222) scale(1,1)"><path fill="none" stroke="#000000" d="M 340.45597124574493 285.4992765974378 L 346 295 L 348.7978056169025 284.3617537286436" stroke-miterlimit="10"/></g><g transform="translate(-126,-222) scale(1,1)"><path fill="none" stroke="#000000" d="M 423 320 L 447 321" stroke-miterlimit="10"/></g><g transform="translate(-126,-222) scale(1,1)"><path fill="none" stroke="#000000" d="M 436.6708909215051 324.7827907217494 L 447 321 L 437.02137995582217 316.3710538981392" stroke-miterlimit="10"/></g><g transform="translate(-126,-222) scale(1,1)"><path fill="none" stroke="#000000" d="M 530 417 L 564 447" stroke-miterlimit="10"/></g><g transform="translate(-126,-222) scale(1,1)"><path fill="none" stroke="#000000" d="M 553.594533650905 443.4326101898097 L 564 447 L 559.1647497090678 437.11969865722506" stroke-miterlimit="10"/></g><g transform="translate(-126,-222) scale(1,1)"><path fill="#C0C0C0" stroke="none" d="M 583 539.5 C 583 532.59644 588.59644 527 595.5 527 C 602.40356 527 608 532.59644 608 539.5 C 608 546.40356 602.40356 552 595.5 552 C 588.59644 552 583 546.40356 583 539.5 Z" opacity="0.2"/></g><g transform="translate(-126,-222) scale(1,1)"><path fill="none" stroke="#000000" d="M 576 532.5 C 576 525.59644 581.59644 520 588.5 520 C 595.40356 520 601 525.59644 601 532.5 C 601 539.40356 595.40356 545 588.5 545 C 581.59644 545 576 539.40356 576 532.5 Z" stroke-miterlimit="10"/></g><g transform="translate(-126,-222) scale(1,1)"><path fill="#000000" stroke="none" d="M 581 532.5 C 581 528.357864 584.357864 525 588.5 525 C 592.642136 525 596 528.357864 596 532.5 C 596 536.642136 592.642136 540 588.5 540 C 584.357864 540 581 536.642136 581 532.5 Z"/></g><g transform="translate(-126,-222) scale(1,1)"><path fill="none" stroke="#000000" d="M 588 489 L 588 519" stroke-miterlimit="10"/></g><g transform="translate(-126,-222) scale(1,1)"><path fill="none" stroke="#000000" d="M 583.790482243984 508.83732514237585 L 588 519 L 592.209517756016 508.83732514237585" stroke-miterlimit="10"/></g></g></svg>