<svg version="1.1" xmlns="http://www.w3.org/2000/svg" xmlns:xlink="http://www.w3.org/1999/xlink" width="812" height="868"><defs/><g><text fill="#eeeeee" stroke="none" font-family="Arial" font-size="24px" font-style="normal" font-weight="normal" text-decoration="none" x="0" y="0"></text><text fill="#eeeeee" stroke="none" font-family="Arial" font-size="24px" font-style="normal" font-weight="normal" text-decoration="none" x="0" y="30"></text><text fill="#eeeeee" stroke="none" font-family="Arial" font-size="24px" font-style="normal" font-weight="normal" text-decoration="none" x="0" y="60"></text><text fill="#eeeeee" stroke="none" font-family="Arial" font-size="24px" font-style="normal" font-weight="normal" text-decoration="none" x="0" y="90"></text><text fill="#eeeeee" stroke="none" font-family="Arial" font-size="24px" font-style="normal" font-weight="normal" text-decoration="none" x="0" y="120"></text><text fill="#eeeeee" stroke="none" font-family="Arial" font-size="24px" font-style="normal" font-weight="normal" text-decoration="none" x="0" y="150"></text><text fill="#eeeeee" stroke="none" font-family="Arial" font-size="24px" font-style="normal" font-weight="normal" text-decoration="none" x="0" y="180"></text><text fill="#eeeeee" stroke="none" font-family="Arial" font-size="24px" font-style="normal" font-weight="normal" text-decoration="none" x="0" y="210"></text><text fill="#eeeeee" stroke="none" font-family="Arial" font-size="24px" font-style="normal" font-weight="normal" text-decoration="none" x="0" y="240"></text><text fill="#eeeeee" stroke="none" font-family="Arial" font-size="24px" font-style="normal" font-weight="normal" text-decoration="none" x="0" y="270"></text><text fill="#eeeeee" stroke="none" font-family="Arial" font-size="24px" font-style="normal" font-weight="normal" text-decoration="none" x="0" y="300"></text><text fill="#eeeeee" stroke="none" font-family="Arial" font-size="24px" font-style="normal" font-weight="normal" text-decoration="none" x="0" y="330"></text><text fill="#eeeeee" stroke="none" font-family="Arial" font-size="24px" font-style="normal" font-weight="normal" text-decoration="none" x="0" y="360"></text><text fill="#eeeeee" stroke="none" font-family="Arial" font-size="24px" font-style="normal" font-weight="normal" text-decoration="none" x="0" y="390"></text><text fill="#eeeeee" stroke="none" font-family="Arial" font-size="24px" font-style="normal" font-weight="normal" text-decoration="none" x="0" y="420"></text><text fill="#eeeeee" stroke="none" font-family="Arial" font-size="24px" font-style="normal" font-weight="normal" text-decoration="none" x="0" y="450"></text><text fill="#eeeeee" stroke="none" font-family="Arial" font-size="24px" font-style="normal" font-weight="normal" text-decoration="none" x="0" y="480"></text><text fill="#eeeeee" stroke="none" font-family="Arial" font-size="24px" font-style="normal" font-weight="normal" text-decoration="none" x="0" y="510"></text><text fill="#eeeeee" stroke="none" font-family="Arial" font-size="24px" font-style="normal" font-weight="normal" text-decoration="none" x="0" y="540"></text><text fill="#eeeeee" stroke="none" font-family="Arial" font-size="24px" font-style="normal" font-weight="normal" text-decoration="none" x="0" y="570"></text><text fill="#eeeeee" stroke="none" font-family="Arial" font-size="24px" font-style="normal" font-weight="normal" text-decoration="none" x="0" y="600"></text><text fill="#eeeeee" stroke="none" font-family="Arial" font-size="24px" font-style="normal" font-weight="normal" text-decoration="none" x="0" y="630"></text><text fill="#eeeeee" stroke="none" font-family="Arial" font-size="24px" font-style="normal" font-weight="normal" text-decoration="none" x="0" y="660"></text><text fill="#eeeeee" stroke="none" font-family="Arial" font-size="24px" font-style="normal" font-weight="normal" text-decoration="none" x="0" y="690"></text><text fill="#eeeeee" stroke="none" font-family="Arial" font-size="24px" font-style="normal" font-weight="normal" text-decoration="none" x="0" y="720"></text><text fill="#eeeeee" stroke="none" font-family="Arial" font-size="24px" font-style="normal" font-weight="normal" text-decoration="none" x="0" y="750"></text><text fill="#eeeeee" stroke="none" font-family="Arial" font-size="24px" font-style="normal" font-weight="normal" text-decoration="none" x="0" y="780"></text><text fill="#eeeeee" stroke="none" font-family="Arial" font-size="24px" font-style="normal" font-weight="normal" text-decoration="none" x="0" y="810"></text><text fill="#eeeeee" stroke="none" font-family="Arial" font-size="24px" font-style="normal" font-weight="normal" text-decoration="none" x="0" y="840"></text><text fill="#eeeeee" stroke="none" font-family="Arial" font-size="24px" font-style="normal" font-weight="normal" text-decoration="none" x="200" y="0"></text><text fill="#eeeeee" stroke="none" font-family="Arial" font-size="24px" font-style="normal" font-weight="normal" text-decoration="none" x="200" y="30"></text><text fill="#eeeeee" stroke="none" font-family="Arial" font-size="24px" font-style="normal" font-weight="normal" text-decoration="none" x="200" y="60"></text><text fill="#eeeeee" stroke="none" font-family="Arial" font-size="24px" font-style="normal" font-weight="normal" text-decoration="none" x="200" y="90"></text><text fill="#eeeeee" stroke="none" font-family="Arial" font-size="24px" font-style="normal" font-weight="normal" text-decoration="none" x="200" y="120"></text><text fill="#eeeeee" stroke="none" font-family="Arial" font-size="24px" font-style="normal" font-weight="normal" text-decoration="none" x="200" y="150"></text><text fill="#eeeeee" stroke="none" font-family="Arial" font-size="24px" font-style="normal" font-weight="normal" text-decoration="none" x="200" y="180"></text><text fill="#eeeeee" stroke="none" font-family="Arial" font-size="24px" font-style="normal" font-weight="normal" text-decoration="none" x="200" y="210"></text><text fill="#eeeeee" stroke="none" font-family="Arial" font-size="24px" font-style="normal" font-weight="normal" text-decoration="none" x="200" y="240"></text><text fill="#eeeeee" stroke="none" font-family="Arial" font-size="24px" font-style="normal" font-weight="normal" text-decoration="none" x="200" y="270"></text><text fill="#eeeeee" stroke="none" font-family="Arial" font-size="24px" font-style="normal" font-weight="normal" text-decoration="none" x="200" y="300"></text><text fill="#eeeeee" stroke="none" font-family="Arial" font-size="24px" font-style="normal" font-weight="normal" text-decoration="none" x="200" y="330"></text><text fill="#eeeeee" stroke="none" font-family="Arial" font-size="24px" font-style="normal" font-weight="normal" text-decoration="none" x="200" y="360"></text><text fill="#eeeeee" stroke="none" font-family="Arial" font-size="24px" font-style="normal" font-weight="normal" text-decoration="none" x="200" y="390"></text><text fill="#eeeeee" stroke="none" font-family="Arial" font-size="24px" font-style="normal" font-weight="normal" text-decoration="none" x="200" y="420"></text><text fill="#eeeeee" stroke="none" font-family="Arial" font-size="24px" font-style="normal" font-weight="normal" text-decoration="none" x="200" y="450"></text><text fill="#eeeeee" stroke="none" font-family="Arial" font-size="24px" font-style="normal" font-weight="normal" text-decoration="none" x="200" y="480"></text><text fill="#eeeeee" stroke="none" font-family="Arial" font-size="24px" font-style="normal" font-weight="normal" text-decoration="none" x="200" y="510"></text><text fill="#eeeeee" stroke="none" font-family="Arial" font-size="24px" font-style="normal" font-weight="normal" text-decoration="none" x="200" y="540"></text><text fill="#eeeeee" stroke="none" font-family="Arial" font-size="24px" font-style="normal" font-weight="normal" text-decoration="none" x="200" y="570"></text><text fill="#eeeeee" stroke="none" font-family="Arial" font-size="24px" font-style="normal" font-weight="normal" text-decoration="none" x="200" y="600"></text><text fill="#eeeeee" stroke="none" font-family="Arial" font-size="24px" font-style="normal" font-weight="normal" text-decoration="none" x="200" y="630"></text><text fill="#eeeeee" stroke="none" font-family="Arial" font-size="24px" font-style="normal" font-weight="normal" text-decoration="none" x="200" y="660"></text><text fill="#eeeeee" stroke="none" font-family="Arial" font-size="24px" font-style="normal" font-weight="normal" text-decoration="none" x="200" y="690"></text><text fill="#eeeeee" stroke="none" font-family="Arial" font-size="24px" font-style="normal" font-weight="normal" text-decoration="none" x="200" y="720"></text><text fill="#eeeeee" stroke="none" font-family="Arial" font-size="24px" font-style="normal" font-weight="normal" text-decoration="none" x="200" y="750"></text><text fill="#eeeeee" stroke="none" font-family="Arial" font-size="24px" font-style="normal" font-weight="normal" text-decoration="none" x="200" y="780"></text><text fill="#eeeeee" stroke="none" font-family="Arial" font-size="24px" font-style="normal" font-weight="normal" text-decoration="none" x="200" y="810"></text><text fill="#eeeeee" stroke="none" font-family="Arial" font-size="24px" font-style="normal" font-weight="normal" text-decoration="none" x="200" y="840"></text><text fill="#eeeeee" stroke="none" font-family="Arial" font-size="24px" font-style="normal" font-weight="normal" text-decoration="none" x="400" y="0"></text><text fill="#eeeeee" stroke="none" font-family="Arial" font-size="24px" font-style="normal" font-weight="normal" text-decoration="none" x="400" y="30"></text><text fill="#eeeeee" stroke="none" font-family="Arial" font-size="24px" font-style="normal" font-weight="normal" text-decoration="none" x="400" y="60"></text><text fill="#eeeeee" stroke="none" font-family="Arial" font-size="24px" font-style="normal" font-weight="normal" text-decoration="none" x="400" y="90"></text><text fill="#eeeeee" stroke="none" font-family="Arial" font-size="24px" font-style="normal" font-weight="normal" text-decoration="none" x="400" y="120"></text><text fill="#eeeeee" stroke="none" font-family="Arial" font-size="24px" font-style="normal" font-weight="normal" text-decoration="none" x="400" y="150"></text><text fill="#eeeeee" stroke="none" font-family="Arial" font-size="24px" font-style="normal" font-weight="normal" text-decoration="none" x="400" y="180"></text><text fill="#eeeeee" stroke="none" font-family="Arial" font-size="24px" font-style="normal" font-weight="normal" text-decoration="none" x="400" y="210"></text><text fill="#eeeeee" stroke="none" font-family="Arial" font-size="24px" font-style="normal" font-weight="normal" text-decoration="none" x="400" y="240"></text><text fill="#eeeeee" stroke="none" font-family="Arial" font-size="24px" font-style="normal" font-weight="normal" text-decoration="none" x="400" y="270"></text><text fill="#eeeeee" stroke="none" font-family="Arial" font-size="24px" font-style="normal" font-weight="normal" text-decoration="none" x="400" y="300"></text><text fill="#eeeeee" stroke="none" font-family="Arial" font-size="24px" font-style="normal" font-weight="normal" text-decoration="none" x="400" y="330"></text><text fill="#eeeeee" stroke="none" font-family="Arial" font-size="24px" font-style="normal" font-weight="normal" text-decoration="none" x="400" y="360"></text><text fill="#eeeeee" stroke="none" font-family="Arial" font-size="24px" font-style="normal" font-weight="normal" text-decoration="none" x="400" y="390"></text><text fill="#eeeeee" stroke="none" font-family="Arial" font-size="24px" font-style="normal" font-weight="normal" text-decoration="none" x="400" y="420"></text><text fill="#eeeeee" stroke="none" font-family="Arial" font-size="24px" font-style="normal" font-weight="normal" text-decoration="none" x="400" y="450"></text><text fill="#eeeeee" stroke="none" font-family="Arial" font-size="24px" font-style="normal" font-weight="normal" text-decoration="none" x="400" y="480"></text><text fill="#eeeeee" stroke="none" font-family="Arial" font-size="24px" font-style="normal" font-weight="normal" text-decoration="none" x="400" y="510"></text><text fill="#eeeeee" stroke="none" font-family="Arial" font-size="24px" font-style="normal" font-weight="normal" text-decoration="none" x="400" y="540"></text><text fill="#eeeeee" stroke="none" font-family="Arial" font-size="24px" font-style="normal" font-weight="normal" text-decoration="none" x="400" y="570"></text><text fill="#eeeeee" stroke="none" font-family="Arial" font-size="24px" font-style="normal" font-weight="normal" text-decoration="none" x="400" y="600"></text><text fill="#eeeeee" stroke="none" font-family="Arial" font-size="24px" font-style="normal" font-weight="normal" text-decoration="none" x="400" y="630"></text><text fill="#eeeeee" stroke="none" font-family="Arial" font-size="24px" font-style="normal" font-weight="normal" text-decoration="none" x="400" y="660"></text><text fill="#eeeeee" stroke="none" font-family="Arial" font-size="24px" font-style="normal" font-weight="normal" text-decoration="none" x="400" y="690"></text><text fill="#eeeeee" stroke="none" font-family="Arial" font-size="24px" font-style="normal" font-weight="normal" text-decoration="none" x="400" y="720"></text><text fill="#eeeeee" stroke="none" font-family="Arial" font-size="24px" font-style="normal" font-weight="normal" text-decoration="none" x="400" y="750"></text><text fill="#eeeeee" stroke="none" font-family="Arial" font-size="24px" font-style="normal" font-weight="normal" text-decoration="none" x="400" y="780"></text><text fill="#eeeeee" stroke="none" font-family="Arial" font-size="24px" font-style="normal" font-weight="normal" text-decoration="none" x="400" y="810"></text><text fill="#eeeeee" stroke="none" font-family="Arial" font-size="24px" font-style="normal" font-weight="normal" text-decoration="none" x="400" y="840"></text><text fill="#eeeeee" stroke="none" font-family="Arial" font-size="24px" font-style="normal" font-weight="normal" text-decoration="none" x="600" y="0"></text><text fill="#eeeeee" stroke="none" font-family="Arial" font-size="24px" font-style="normal" font-weight="normal" text-decoration="none" x="600" y="30"></text><text fill="#eeeeee" stroke="none" font-family="Arial" font-size="24px" font-style="normal" font-weight="normal" text-decoration="none" x="600" y="60"></text><text fill="#eeeeee" stroke="none" font-family="Arial" font-size="24px" font-style="normal" font-weight="normal" text-decoration="none" x="600" y="90"></text><text fill="#eeeeee" stroke="none" font-family="Arial" font-size="24px" font-style="normal" font-weight="normal" text-decoration="none" x="600" y="120"></text><text fill="#eeeeee" stroke="none" font-family="Arial" font-size="24px" font-style="normal" font-weight="normal" text-decoration="none" x="600" y="150"></text><text fill="#eeeeee" stroke="none" font-family="Arial" font-size="24px" font-style="normal" font-weight="normal" text-decoration="none" x="600" y="180"></text><text fill="#eeeeee" stroke="none" font-family="Arial" font-size="24px" font-style="normal" font-weight="normal" text-decoration="none" x="600" y="210"></text><text fill="#eeeeee" stroke="none" font-family="Arial" font-size="24px" font-style="normal" font-weight="normal" text-decoration="none" x="600" y="240"></text><text fill="#eeeeee" stroke="none" font-family="Arial" font-size="24px" font-style="normal" font-weight="normal" text-decoration="none" x="600" y="270"></text><text fill="#eeeeee" stroke="none" font-family="Arial" font-size="24px" font-style="normal" font-weight="normal" text-decoration="none" x="600" y="300"></text><text fill="#eeeeee" stroke="none" font-family="Arial" font-size="24px" font-style="normal" font-weight="normal" text-decoration="none" x="600" y="330"></text><text fill="#eeeeee" stroke="none" font-family="Arial" font-size="24px" font-style="normal" font-weight="normal" text-decoration="none" x="600" y="360"></text><text fill="#eeeeee" stroke="none" font-family="Arial" font-size="24px" font-style="normal" font-weight="normal" text-decoration="none" x="600" y="390"></text><text fill="#eeeeee" stroke="none" font-family="Arial" font-size="24px" font-style="normal" font-weight="normal" text-decoration="none" x="600" y="420"></text><text fill="#eeeeee" stroke="none" font-family="Arial" font-size="24px" font-style="normal" font-weight="normal" text-decoration="none" x="600" y="450"></text><text fill="#eeeeee" stroke="none" font-family="Arial" font-size="24px" font-style="normal" font-weight="normal" text-decoration="none" x="600" y="480"></text><text fill="#eeeeee" stroke="none" font-family="Arial" font-size="24px" font-style="normal" font-weight="normal" text-decoration="none" x="600" y="510"></text><text fill="#eeeeee" stroke="none" font-family="Arial" font-size="24px" font-style="normal" font-weight="normal" text-decoration="none" x="600" y="540"></text><text fill="#eeeeee" stroke="none" font-family="Arial" font-size="24px" font-style="normal" font-weight="normal" text-decoration="none" x="600" y="570"></text><text fill="#eeeeee" stroke="none" font-family="Arial" font-size="24px" font-style="normal" font-weight="normal" text-decoration="none" x="600" y="600"></text><text fill="#eeeeee" stroke="none" font-family="Arial" font-size="24px" font-style="normal" font-weight="normal" text-decoration="none" x="600" y="630"></text><text fill="#eeeeee" stroke="none" font-family="Arial" font-size="24px" font-style="normal" font-weight="normal" text-decoration="none" x="600" y="660"></text><text fill="#eeeeee" stroke="none" font-family="Arial" font-size="24px" font-style="normal" font-weight="normal" text-decoration="none" x="600" y="690"></text><text fill="#eeeeee" stroke="none" font-family="Arial" font-size="24px" font-style="normal" font-weight="normal" text-decoration="none" x="600" y="720"></text><text fill="#eeeeee" stroke="none" font-family="Arial" font-size="24px" font-style="normal" font-weight="normal" text-decoration="none" x="600" y="750"></text><text fill="#eeeeee" stroke="none" font-family="Arial" font-size="24px" font-style="normal" font-weight="normal" text-decoration="none" x="600" y="780"></text><text fill="#eeeeee" stroke="none" font-family="Arial" font-size="24px" font-style="normal" font-weight="normal" text-decoration="none" x="600" y="810"></text><text fill="#eeeeee" stroke="none" font-family="Arial" font-size="24px" font-style="normal" font-weight="normal" text-decoration="none" x="600" y="840"></text><text fill="#eeeeee" stroke="none" font-family="Arial" font-size="24px" font-style="normal" font-weight="normal" text-decoration="none" x="800" y="0"></text><text fill="#eeeeee" stroke="none" font-family="Arial" font-size="24px" font-style="normal" font-weight="normal" text-decoration="none" x="800" y="30"></text><text fill="#eeeeee" stroke="none" font-family="Arial" font-size="24px" font-style="normal" font-weight="normal" text-decoration="none" x="800" y="60"></text><text fill="#eeeeee" stroke="none" font-family="Arial" font-size="24px" font-style="normal" font-weight="normal" text-decoration="none" x="800" y="90"></text><text fill="#eeeeee" stroke="none" font-family="Arial" font-size="24px" font-style="normal" font-weight="normal" text-decoration="none" x="800" y="120"></text><text fill="#eeeeee" stroke="none" font-family="Arial" font-size="24px" font-style="normal" font-weight="normal" text-decoration="none" x="800" y="150"></text><text fill="#eeeeee" stroke="none" font-family="Arial" font-size="24px" font-style="normal" font-weight="normal" text-decoration="none" x="800" y="180"></text><text fill="#eeeeee" stroke="none" font-family="Arial" font-size="24px" font-style="normal" font-weight="normal" text-decoration="none" x="800" y="210"></text><text fill="#eeeeee" stroke="none" font-family="Arial" font-size="24px" font-style="normal" font-weight="normal" text-decoration="none" x="800" y="240"></text><text fill="#eeeeee" stroke="none" font-family="Arial" font-size="24px" font-style="normal" font-weight="normal" text-decoration="none" x="800" y="270"></text><text fill="#eeeeee" stroke="none" font-family="Arial" font-size="24px" font-style="normal" font-weight="normal" text-decoration="none" x="800" y="300"></text><text fill="#eeeeee" stroke="none" font-family="Arial" font-size="24px" font-style="normal" font-weight="normal" text-decoration="none" x="800" y="330"></text><text fill="#eeeeee" stroke="none" font-family="Arial" font-size="24px" font-style="normal" font-weight="normal" text-decoration="none" x="800" y="360"></text><text fill="#eeeeee" stroke="none" font-family="Arial" font-size="24px" font-style="normal" font-weight="normal" text-decoration="none" x="800" y="390"></text><text fill="#eeeeee" stroke="none" font-family="Arial" font-size="24px" font-style="normal" font-weight="normal" text-decoration="none" x="800" y="420"></text><text fill="#eeeeee" stroke="none" font-family="Arial" font-size="24px" font-style="normal" font-weight="normal" text-decoration="none" x="800" y="450"></text><text fill="#eeeeee" stroke="none" font-family="Arial" font-size="24px" font-style="normal" font-weight="normal" text-decoration="none" x="800" y="480"></text><text fill="#eeeeee" stroke="none" font-family="Arial" font-size="24px" font-style="normal" font-weight="normal" text-decoration="none" x="800" y="510"></text><text fill="#eeeeee" stroke="none" font-family="Arial" font-size="24px" font-style="normal" font-weight="normal" text-decoration="none" x="800" y="540"></text><text fill="#eeeeee" stroke="none" font-family="Arial" font-size="24px" font-style="normal" font-weight="normal" text-decoration="none" x="800" y="570"></text><text fill="#eeeeee" stroke="none" font-family="Arial" font-size="24px" font-style="normal" font-weight="normal" text-decoration="none" x="800" y="600"></text><text fill="#eeeeee" stroke="none" font-family="Arial" font-size="24px" font-style="normal" font-weight="normal" text-decoration="none" x="800" y="630"></text><text fill="#eeeeee" stroke="none" font-family="Arial" font-size="24px" font-style="normal" font-weight="normal" text-decoration="none" x="800" y="660"></text><text fill="#eeeeee" stroke="none" font-family="Arial" font-size="24px" font-style="normal" font-weight="normal" text-decoration="none" x="800" y="690"></text><text fill="#eeeeee" stroke="none" font-family="Arial" font-size="24px" font-style="normal" font-weight="normal" text-decoration="none" x="800" y="720"></text><text fill="#eeeeee" stroke="none" font-family="Arial" font-size="24px" font-style="normal" font-weight="normal" text-decoration="none" x="800" y="750"></text><text fill="#eeeeee" stroke="none" font-family="Arial" font-size="24px" font-style="normal" font-weight="normal" text-decoration="none" x="800" y="780"></text><text fill="#eeeeee" stroke="none" font-family="Arial" font-size="24px" font-style="normal" font-weight="normal" text-decoration="none" x="800" y="810"></text><text fill="#eeeeee" stroke="none" font-family="Arial" font-size="24px" font-style="normal" font-weight="normal" text-decoration="none" x="800" y="840"></text><g transform="translate(-30,-14) scale(1,1)"><rect fill="#C0C0C0" stroke="none" x="55" y="31" width="176" height="15" opacity="0.2"/></g><g transform="translate(-30,-14) scale(1,1)"><rect fill="#C0C0C0" stroke="none" x="55" y="45" width="440" height="338" opacity="0.2"/></g><g transform="translate(-30,-14) scale(1,1)"><rect fill="#ffffff" stroke="none" x="48" y="39" width="440" height="337"/></g><g transform="translate(-30,-14) scale(1,1)"><path fill="none" stroke="#000000" d="M 48 39 L 488 39 L 488 376 L 48 376 L 48 39 Z Z" stroke-miterlimit="10"/></g><g transform="translate(-30,-14) scale(1,1)"><rect fill="#ffffff" stroke="none" x="48" y="24" width="176" height="15"/></g><g transform="translate(-30,-14) scale(1,1)"><path fill="none" stroke="#000000" d="M 48 24 L 224 24 L 224 39 L 48 39 L 48 24 Z Z" stroke-miterlimit="10"/></g><g transform="translate(-30,-14) scale(1,1)"><rect fill="#ffffff" stroke="none" x="48" y="38" width="440" height="338"/></g><g transform="translate(-30,-14) scale(1,1)"><path fill="none" stroke="#000000" d="M 48 38 L 488 38 L 488 376 L 48 376 L 48 38 Z Z" stroke-miterlimit="10"/></g><g transform="translate(-30,-14) scale(1,1)"><g><path fill="none" stroke="none"/><text fill="#000000" stroke="none" font-family="Arial" font-size="13px" font-style="normal" font-weight="bold" text-decoration="none" x="223.57275390625" y="57">firebase-cloud</text></g></g><g transform="translate(-30,-14) scale(1,1)"><rect fill="#C0C0C0" stroke="none" x="87" y="71" width="367.0458984375" height="295" opacity="0.2"/></g><g transform="translate(-30,-14) scale(1,1)"><rect fill="#ffffff" stroke="none" x="80" y="64" width="367.0458984375" height="295"/></g><g transform="translate(-30,-14) scale(1,1)"><path fill="none" stroke="#000000" d="M 80 64 L 447.0458984375 64 L 447.0458984375 359 L 80 359 L 80 64 Z Z" stroke-miterlimit="10"/></g><g transform="translate(-30,-14) scale(1,1)"><path fill="none" stroke="#000000" d="M 80 89 L 447.0458984375 89" stroke-miterlimit="10"/></g><g transform="translate(-30,-14) scale(1,1)"><path fill="none" stroke="#000000" d="M 80 127 L 447.0458984375 127" stroke-miterlimit="10"/></g><g transform="translate(-30,-14) scale(1,1)"><g><path fill="none" stroke="none"/><text fill="#000000" stroke="none" font-family="Arial" font-size="13px" font-style="normal" font-weight="bold" text-decoration="none" x="194.90478515625" y="82">cloud-database-CRUD</text></g></g><g transform="translate(-30,-14) scale(1,1)"><g><path fill="none" stroke="none"/><text fill="#000000" stroke="none" font-family="Arial" font-size="13px" font-style="normal" font-weight="normal" text-decoration="none" x="85" y="105">+service_account_key_path</text></g></g><g transform="translate(-30,-14) scale(1,1)"><g><path fill="none" stroke="none"/><text fill="#000000" stroke="none" font-family="Arial" font-size="13px" font-style="normal" font-weight="normal" text-decoration="none" x="85" y="120">+config: Dictionary</text></g></g><g transform="translate(-30,-14) scale(1,1)"><g><path fill="none" stroke="none"/><text fill="#000000" stroke="none" font-family="Arial" font-size="13px" font-style="normal" font-weight="normal" text-decoration="none" x="85" y="143">+getData(reference): all data</text></g></g><g transform="translate(-30,-14) scale(1,1)"><g><path fill="none" stroke="none"/><text fill="#000000" stroke="none" font-family="Arial" font-size="13px" font-style="normal" font-weight="normal" text-decoration="none" x="85" y="158">+postData(reference, data): data</text></g></g><g transform="translate(-30,-14) scale(1,1)"><g><path fill="none" stroke="none"/><text fill="#000000" stroke="none" font-family="Arial" font-size="13px" font-style="normal" font-weight="normal" text-decoration="none" x="85" y="173">+deleteData(reference, key): string</text></g></g><g transform="translate(-30,-14) scale(1,1)"><g><path fill="none" stroke="none"/><text fill="#000000" stroke="none" font-family="Arial" font-size="13px" font-style="normal" font-weight="normal" text-decoration="none" x="85" y="188">+getSingleRow(reference, key): data</text></g></g><g transform="translate(-30,-14) scale(1,1)"><g><path fill="none" stroke="none"/><text fill="#000000" stroke="none" font-family="Arial" font-size="13px" font-style="normal" font-weight="normal" text-decoration="none" x="85" y="203">+getDataByID(refefence, field, id): dictionary</text></g></g><g transform="translate(-30,-14) scale(1,1)"><g><path fill="none" stroke="none"/><text fill="#000000" stroke="none" font-family="Arial" font-size="13px" font-style="normal" font-weight="normal" text-decoration="none" x="85" y="218">+editDataByID(reference, id, newData): data</text></g></g><g transform="translate(-30,-14) scale(1,1)"><g><path fill="none" stroke="none"/><text fill="#000000" stroke="none" font-family="Arial" font-size="13px" font-style="normal" font-weight="normal" text-decoration="none" x="85" y="233">+addStudentRequest(refernce): data</text></g></g><g transform="translate(-30,-14) scale(1,1)"><g><path fill="none" stroke="none"/><text fill="#000000" stroke="none" font-family="Arial" font-size="13px" font-style="normal" font-weight="normal" text-decoration="none" x="85" y="248">+get_user_projects(reference, user id): data</text></g></g><g transform="translate(-30,-14) scale(1,1)"><g><path fill="none" stroke="none"/><text fill="#000000" stroke="none" font-family="Arial" font-size="13px" font-style="normal" font-weight="normal" text-decoration="none" x="85" y="263">+get_student_projects(refernce1, reference2, student id)</text></g></g><g transform="translate(-30,-14) scale(1,1)"><g><path fill="none" stroke="none"/><text fill="#000000" stroke="none" font-family="Arial" font-size="13px" font-style="normal" font-weight="normal" text-decoration="none" x="85" y="278">+check_if_apply_projects(reference, user id): data</text></g></g><g transform="translate(-30,-14) scale(1,1)"><g><path fill="none" stroke="none"/><text fill="#000000" stroke="none" font-family="Arial" font-size="13px" font-style="normal" font-weight="normal" text-decoration="none" x="85" y="293">+get_supervisor_projects(reference, user-id): data</text></g></g><g transform="translate(-30,-14) scale(1,1)"><g><path fill="none" stroke="none"/><text fill="#000000" stroke="none" font-family="Arial" font-size="13px" font-style="normal" font-weight="normal" text-decoration="none" x="85" y="308">+get_supervisor_projects2(refernce1, referenc2, user-id): data</text></g></g><g transform="translate(-30,-14) scale(1,1)"><g><path fill="none" stroke="none"/><text fill="#000000" stroke="none" font-family="Arial" font-size="13px" font-style="normal" font-weight="normal" text-decoration="none" x="85" y="323">+delete_notification(reference): data</text></g></g><g transform="translate(-30,-14) scale(1,1)"><g><path fill="none" stroke="none"/><text fill="#000000" stroke="none" font-family="Arial" font-size="13px" font-style="normal" font-weight="normal" text-decoration="none" x="85" y="338">+upload(file): file_url</text></g></g><g transform="translate(-30,-14) scale(1,1)"><g><path fill="none" stroke="none"/><text fill="#000000" stroke="none" font-family="Arial" font-size="13px" font-style="normal" font-weight="normal" text-decoration="none" x="85" y="353">+delete_file(filepath)</text></g></g><g transform="translate(-30,-14) scale(1,1)"><rect fill="#C0C0C0" stroke="none" x="527" y="175" width="124.79999999999995" height="15" opacity="0.2"/></g><g transform="translate(-30,-14) scale(1,1)"><rect fill="#C0C0C0" stroke="none" x="527" y="189" width="312" height="129" opacity="0.2"/></g><g transform="translate(-30,-14) scale(1,1)"><rect fill="#ffffff" stroke="none" x="520" y="183" width="312" height="128"/></g><g transform="translate(-30,-14) scale(1,1)"><path fill="none" stroke="#000000" d="M 520 183 L 832 183 L 832 311 L 520 311 L 520 183 Z Z" stroke-miterlimit="10"/></g><g transform="translate(-30,-14) scale(1,1)"><rect fill="#ffffff" stroke="none" x="520" y="168" width="124.79999999999995" height="15"/></g><g transform="translate(-30,-14) scale(1,1)"><path fill="none" stroke="#000000" d="M 520 168 L 644.8 168 L 644.8 183 L 520 183 L 520 168 Z Z" stroke-miterlimit="10"/></g><g transform="translate(-30,-14) scale(1,1)"><rect fill="#ffffff" stroke="none" x="520" y="182" width="312" height="129"/></g><g transform="translate(-30,-14) scale(1,1)"><path fill="none" stroke="#000000" d="M 520 182 L 832 182 L 832 311 L 520 311 L 520 182 Z Z" stroke-miterlimit="10"/></g><g transform="translate(-30,-14) scale(1,1)"><g><path fill="none" stroke="none"/><text fill="#000000" stroke="none" font-family="Arial" font-size="13px" font-style="normal" font-weight="bold" text-decoration="none" x="653.24365234375" y="201">models</text></g></g><g transform="translate(-30,-14) scale(1,1)"><path fill="none" stroke="#000000" d="M 679 254 L 633 254" stroke-miterlimit="10"/></g><g transform="translate(-30,-14) scale(1,1)"><rect fill="#C0C0C0" stroke="none" x="47" y="431" width="294.4" height="15" opacity="0.2"/></g><g transform="translate(-30,-14) scale(1,1)"><rect fill="#C0C0C0" stroke="none" x="47" y="445" width="736" height="434" opacity="0.2"/></g><g transform="translate(-30,-14) scale(1,1)"><rect fill="#ffffff" stroke="none" x="40" y="439" width="736" height="433"/></g><g transform="translate(-30,-14) scale(1,1)"><path fill="none" stroke="#000000" d="M 40 439 L 776 439 L 776 872 L 40 872 L 40 439 Z Z" stroke-miterlimit="10"/></g><g transform="translate(-30,-14) scale(1,1)"><rect fill="#ffffff" stroke="none" x="40" y="424" width="294.4" height="15"/></g><g transform="translate(-30,-14) scale(1,1)"><path fill="none" stroke="#000000" d="M 40 424 L 334.4 424 L 334.4 439 L 40 439 L 40 424 Z Z" stroke-miterlimit="10"/></g><g transform="translate(-30,-14) scale(1,1)"><rect fill="#ffffff" stroke="none" x="40" y="438" width="736" height="434"/></g><g transform="translate(-30,-14) scale(1,1)"><path fill="none" stroke="#000000" d="M 40 438 L 776 438 L 776 872 L 40 872 L 40 438 Z Z" stroke-miterlimit="10"/></g><g transform="translate(-30,-14) scale(1,1)"><g><path fill="none" stroke="none"/><text fill="#000000" stroke="none" font-family="Arial" font-size="13px" font-style="normal" font-weight="bold" text-decoration="none" x="390.293212890625" y="457">views</text></g></g><g transform="translate(-30,-14) scale(1,1)"><rect fill="#C0C0C0" stroke="none" x="303" y="479" width="192" height="56" opacity="0.2"/></g><g transform="translate(-30,-14) scale(1,1)"><rect fill="#ffffff" stroke="none" x="296" y="472" width="192" height="56"/></g><g transform="translate(-30,-14) scale(1,1)"><path fill="none" stroke="#000000" d="M 296 472 L 488 472 L 488 528 L 296 528 L 296 472 Z Z" stroke-miterlimit="10"/></g><g transform="translate(-30,-14) scale(1,1)"><path fill="none" stroke="#000000" d="M 296 497 L 488 497" stroke-miterlimit="10"/></g><g transform="translate(-30,-14) scale(1,1)"><path fill="none" stroke="#000000" d="M 296 507 L 488 507" stroke-miterlimit="10"/></g><g transform="translate(-30,-14) scale(1,1)"><g><path fill="none" stroke="none"/><text fill="#000000" stroke="none" font-family="Arial" font-size="13px" font-style="normal" font-weight="bold" text-decoration="none" x="365.266845703125" y="490">API view</text></g></g><g transform="translate(-30,-14) scale(1,1)"><path fill="none" stroke="#000000" d="M 379 471 L 330 360" stroke-miterlimit="10"/></g><g transform="translate(-30,-14) scale(1,1)"><path fill="none" stroke="#000000" d="M 462 471 L 672 384 L 726 277" stroke-miterlimit="10"/></g><g transform="translate(-30,-14) scale(1,1)"><rect fill="#C0C0C0" stroke="none" x="71" y="519" width="168" height="96" opacity="0.2"/></g><g transform="translate(-30,-14) scale(1,1)"><rect fill="#ffffff" stroke="none" x="64" y="512" width="168" height="96"/></g><g transform="translate(-30,-14) scale(1,1)"><path fill="none" stroke="#000000" d="M 64 512 L 232 512 L 232 608 L 64 608 L 64 512 Z Z" stroke-miterlimit="10"/></g><g transform="translate(-30,-14) scale(1,1)"><path fill="none" stroke="#000000" d="M 64 537 L 232 537" stroke-miterlimit="10"/></g><g transform="translate(-30,-14) scale(1,1)"><path fill="none" stroke="#000000" d="M 64 547 L 232 547" stroke-miterlimit="10"/></g><g transform="translate(-30,-14) scale(1,1)"><g><path fill="none" stroke="none"/><text fill="#000000" stroke="none" font-family="Arial" font-size="13px" font-style="normal" font-weight="bold" text-decoration="none" x="72.98974609375" y="530">AddProjectRequestView</text></g></g><g transform="translate(-30,-14) scale(1,1)"><g><path fill="none" stroke="none"/><text fill="#000000" stroke="none" font-family="Arial" font-size="13px" font-style="normal" font-weight="normal" text-decoration="none" x="69" y="563">+post(): response</text></g></g><g transform="translate(-30,-14) scale(1,1)"><rect fill="#C0C0C0" stroke="none" x="135" y="775" width="240.181640625" height="88" opacity="0.2"/></g><g transform="translate(-30,-14) scale(1,1)"><rect fill="#ffffff" stroke="none" x="128" y="768" width="240.181640625" height="88"/></g><g transform="translate(-30,-14) scale(1,1)"><path fill="none" stroke="#000000" d="M 128 768 L 368.181640625 768 L 368.181640625 856 L 128 856 L 128 768 Z Z" stroke-miterlimit="10"/></g><g transform="translate(-30,-14) scale(1,1)"><path fill="none" stroke="#000000" d="M 128 793 L 368.181640625 793" stroke-miterlimit="10"/></g><g transform="translate(-30,-14) scale(1,1)"><path fill="none" stroke="#000000" d="M 128 803 L 368.181640625 803" stroke-miterlimit="10"/></g><g transform="translate(-30,-14) scale(1,1)"><g><path fill="none" stroke="none"/><text fill="#000000" stroke="none" font-family="Arial" font-size="13px" font-style="normal" font-weight="bold" text-decoration="none" x="132.5" y="786">Update_Students_Proejcts_Requests</text></g></g><g transform="translate(-30,-14) scale(1,1)"><g><path fill="none" stroke="none"/><text fill="#000000" stroke="none" font-family="Arial" font-size="13px" font-style="normal" font-weight="normal" text-decoration="none" x="133" y="819">+post(request): response</text></g></g><g transform="translate(-30,-14) scale(1,1)"><rect fill="#C0C0C0" stroke="none" x="103" y="663" width="153.88525390625" height="72" opacity="0.2"/></g><g transform="translate(-30,-14) scale(1,1)"><rect fill="#ffffff" stroke="none" x="96" y="656" width="153.88525390625" height="72"/></g><g transform="translate(-30,-14) scale(1,1)"><path fill="none" stroke="#000000" d="M 96 656 L 249.88525390625 656 L 249.88525390625 728 L 96 728 L 96 656 Z Z" stroke-miterlimit="10"/></g><g transform="translate(-30,-14) scale(1,1)"><path fill="none" stroke="#000000" d="M 96 681 L 249.88525390625 681" stroke-miterlimit="10"/></g><g transform="translate(-30,-14) scale(1,1)"><path fill="none" stroke="#000000" d="M 96 691 L 249.88525390625 691" stroke-miterlimit="10"/></g><g transform="translate(-30,-14) scale(1,1)"><g><path fill="none" stroke="none"/><text fill="#000000" stroke="none" font-family="Arial" font-size="13px" font-style="normal" font-weight="bold" text-decoration="none" x="124.6591796875" y="674">CommitteeView</text></g></g><g transform="translate(-30,-14) scale(1,1)"><g><path fill="none" stroke="none"/><text fill="#000000" stroke="none" font-family="Arial" font-size="13px" font-style="normal" font-weight="normal" text-decoration="none" x="101" y="707">+post(request): response</text></g></g><g transform="translate(-30,-14) scale(1,1)"><path fill="none" stroke="#000000" d="M 233 539 L 295 524" stroke-miterlimit="10"/></g><g transform="translate(-30,-14) scale(1,1)"><path fill="#FFFFFF" stroke="none" d="M 277.22434529138343 536.9624881747309 L 295 524 L 273.264850726104 520.5965773049093"/></g><g transform="translate(-30,-14) scale(1,1)"><path fill="none" stroke="#000000" d="M 277.22434529138343 536.9624881747309 L 295 524 L 273.264850726104 520.5965773049093 L 277.22434529138343 536.9624881747309" stroke-miterlimit="10"/></g><g transform="translate(-30,-14) scale(1,1)"><path fill="none" stroke="#000000" d="M 214 655 L 359 529" stroke-miterlimit="10"/></g><g transform="translate(-30,-14) scale(1,1)"><path fill="#FFFFFF" stroke="none" d="M 349.1800454273051 548.6867593115325 L 359 529 L 338.1356025219316 535.9768845394756"/></g><g transform="translate(-30,-14) scale(1,1)"><path fill="none" stroke="#000000" d="M 349.1800454273051 548.6867593115325 L 359 529 L 338.1356025219316 535.9768845394756 L 349.1800454273051 548.6867593115325" stroke-miterlimit="10"/></g><g transform="translate(-30,-14) scale(1,1)"><path fill="none" stroke="#000000" d="M 269 767 L 379 529" stroke-miterlimit="10"/></g><g transform="translate(-30,-14) scale(1,1)"><path fill="#FFFFFF" stroke="none" d="M 378.11492682751697 550.9821892785808 L 379 529 L 362.83040365368026 543.9179138621016"/></g><g transform="translate(-30,-14) scale(1,1)"><path fill="none" stroke="#000000" d="M 378.11492682751697 550.9821892785808 L 379 529 L 362.83040365368026 543.9179138621016 L 378.11492682751697 550.9821892785808" stroke-miterlimit="10"/></g><g transform="translate(-30,-14) scale(1,1)"><path fill="none" stroke="#000000" d="M 420 687 L 396 529" stroke-miterlimit="10"/></g><g transform="translate(-30,-14) scale(1,1)"><path fill="#FFFFFF" stroke="none" d="M 407.37593902436765 547.8305074629939 L 396 529 L 390.72882410622816 550.3591831467619"/></g><g transform="translate(-30,-14) scale(1,1)"><path fill="none" stroke="#000000" d="M 407.37593902436765 547.8305074629939 L 396 529 L 390.72882410622816 550.3591831467619 L 407.37593902436765 547.8305074629939" stroke-miterlimit="10"/></g><g transform="translate(-30,-14) scale(1,1)"><path fill="none" stroke="#000000" d="M 592 775 L 413 529" stroke-miterlimit="10"/></g><g transform="translate(-30,-14) scale(1,1)"><path fill="#FFFFFF" stroke="none" d="M 431.766348451841 540.4814705410101 L 413 529 L 418.1511865708646 550.3884379259483"/></g><g transform="translate(-30,-14) scale(1,1)"><path fill="none" stroke="#000000" d="M 431.766348451841 540.4814705410101 L 413 529 L 418.1511865708646 550.3884379259483 L 431.766348451841 540.4814705410101" stroke-miterlimit="10"/></g><g transform="translate(-30,-14) scale(1,1)"><path fill="none" stroke="#000000" d="M 599 500 L 489 500" stroke-miterlimit="10"/></g><g transform="translate(-30,-14) scale(1,1)"><path fill="#FFFFFF" stroke="none" d="M 509.3253497152483 491.580964487968 L 489 500 L 509.3253497152483 508.419035512032"/></g><g transform="translate(-30,-14) scale(1,1)"><path fill="none" stroke="#000000" d="M 509.3253497152483 491.580964487968 L 489 500 L 509.3253497152483 508.419035512032 L 509.3253497152483 491.580964487968" stroke-miterlimit="10"/></g><g transform="translate(-30,-14) scale(1,1)"><path fill="none" stroke="#000000" d="M 599 582 L 466 529" stroke-miterlimit="10"/></g><g transform="translate(-30,-14) scale(1,1)"><path fill="#FFFFFF" stroke="none" d="M 487.9979983321381 528.7032351448553 L 466 529 L 481.7647782346759 544.3450893516946"/></g><g transform="translate(-30,-14) scale(1,1)"><path fill="none" stroke="#000000" d="M 487.9979983321381 528.7032351448553 L 466 529 L 481.7647782346759 544.3450893516946 L 487.9979983321381 528.7032351448553" stroke-miterlimit="10"/></g><g transform="translate(-30,-14) scale(1,1)"><rect fill="#C0C0C0" stroke="none" x="607" y="463" width="153.88525390625" height="88" opacity="0.2"/></g><g transform="translate(-30,-14) scale(1,1)"><rect fill="#ffffff" stroke="none" x="600" y="456" width="153.88525390625" height="88"/></g><g transform="translate(-30,-14) scale(1,1)"><path fill="none" stroke="#000000" d="M 600 456 L 753.88525390625 456 L 753.88525390625 544 L 600 544 L 600 456 Z Z" stroke-miterlimit="10"/></g><g transform="translate(-30,-14) scale(1,1)"><path fill="none" stroke="#000000" d="M 600 481 L 753.88525390625 481" stroke-miterlimit="10"/></g><g transform="translate(-30,-14) scale(1,1)"><path fill="none" stroke="#000000" d="M 600 491 L 753.88525390625 491" stroke-miterlimit="10"/></g><g transform="translate(-30,-14) scale(1,1)"><g><path fill="none" stroke="none"/><text fill="#000000" stroke="none" font-family="Arial" font-size="13px" font-style="normal" font-weight="bold" text-decoration="none" x="633.953125" y="474">Advertismene</text></g></g><g transform="translate(-30,-14) scale(1,1)"><g><path fill="none" stroke="none"/><text fill="#000000" stroke="none" font-family="Arial" font-size="13px" font-style="normal" font-weight="normal" text-decoration="none" x="605" y="507">+get(request): response</text></g></g><g transform="translate(-30,-14) scale(1,1)"><g><path fill="none" stroke="none"/><text fill="#000000" stroke="none" font-family="Arial" font-size="13px" font-style="normal" font-weight="normal" text-decoration="none" x="605" y="522">+post(request): response</text></g></g><g transform="translate(-30,-14) scale(1,1)"><rect fill="#C0C0C0" stroke="none" x="607" y="575" width="153.88525390625" height="88" opacity="0.2"/></g><g transform="translate(-30,-14) scale(1,1)"><rect fill="#ffffff" stroke="none" x="600" y="568" width="153.88525390625" height="88"/></g><g transform="translate(-30,-14) scale(1,1)"><path fill="none" stroke="#000000" d="M 600 568 L 753.88525390625 568 L 753.88525390625 656 L 600 656 L 600 568 Z Z" stroke-miterlimit="10"/></g><g transform="translate(-30,-14) scale(1,1)"><path fill="none" stroke="#000000" d="M 600 593 L 753.88525390625 593" stroke-miterlimit="10"/></g><g transform="translate(-30,-14) scale(1,1)"><path fill="none" stroke="#000000" d="M 600 603 L 753.88525390625 603" stroke-miterlimit="10"/></g><g transform="translate(-30,-14) scale(1,1)"><g><path fill="none" stroke="none"/><text fill="#000000" stroke="none" font-family="Arial" font-size="13px" font-style="normal" font-weight="bold" text-decoration="none" x="636.844482421875" y="586">DeleteAdvert</text></g></g><g transform="translate(-30,-14) scale(1,1)"><g><path fill="none" stroke="none"/><text fill="#000000" stroke="none" font-family="Arial" font-size="13px" font-style="normal" font-weight="normal" text-decoration="none" x="605" y="619">+post(request): response</text></g></g><g transform="translate(-30,-14) scale(1,1)"><rect fill="#C0C0C0" stroke="none" x="487" y="783" width="278.953125" height="72" opacity="0.2"/></g><g transform="translate(-30,-14) scale(1,1)"><rect fill="#ffffff" stroke="none" x="480" y="776" width="278.953125" height="72"/></g><g transform="translate(-30,-14) scale(1,1)"><path fill="none" stroke="#000000" d="M 480 776 L 758.953125 776 L 758.953125 848 L 480 848 L 480 776 Z Z" stroke-miterlimit="10"/></g><g transform="translate(-30,-14) scale(1,1)"><path fill="none" stroke="#000000" d="M 480 801 L 758.953125 801" stroke-miterlimit="10"/></g><g transform="translate(-30,-14) scale(1,1)"><path fill="none" stroke="#000000" d="M 480 811 L 758.953125 811" stroke-miterlimit="10"/></g><g transform="translate(-30,-14) scale(1,1)"><g><path fill="none" stroke="none"/><text fill="#000000" stroke="none" font-family="Arial" font-size="13px" font-style="normal" font-weight="bold" text-decoration="none" x="484.5" y="794">Students_Projects_Request_To_Supervisor</text></g></g><g transform="translate(-30,-14) scale(1,1)"><g><path fill="none" stroke="none"/><text fill="#000000" stroke="none" font-family="Arial" font-size="13px" font-style="normal" font-weight="normal" text-decoration="none" x="485" y="827">+get(request): response</text></g></g><g transform="translate(-30,-14) scale(1,1)"><g><path fill="none" stroke="none"/><text fill="#000000" stroke="none" font-family="Arial" font-size="13px" font-style="normal" font-weight="normal" text-decoration="none" x="485" y="842">+post(request): response</text></g></g><g transform="translate(-30,-14) scale(1,1)"><rect fill="#C0C0C0" stroke="none" x="359" y="695" width="147.38525390625" height="72" opacity="0.2"/></g><g transform="translate(-30,-14) scale(1,1)"><rect fill="#ffffff" stroke="none" x="352" y="688" width="147.38525390625" height="72"/></g><g transform="translate(-30,-14) scale(1,1)"><path fill="none" stroke="#000000" d="M 352 688 L 499.38525390625 688 L 499.38525390625 760 L 352 760 L 352 688 Z Z" stroke-miterlimit="10"/></g><g transform="translate(-30,-14) scale(1,1)"><path fill="none" stroke="#000000" d="M 352 713 L 499.38525390625 713" stroke-miterlimit="10"/></g><g transform="translate(-30,-14) scale(1,1)"><path fill="none" stroke="#000000" d="M 352 723 L 499.38525390625 723" stroke-miterlimit="10"/></g><g transform="translate(-30,-14) scale(1,1)"><g><path fill="none" stroke="none"/><text fill="#000000" stroke="none" font-family="Arial" font-size="13px" font-style="normal" font-weight="bold" text-decoration="none" x="385.369140625" y="706">LoggingView</text></g></g><g transform="translate(-30,-14) scale(1,1)"><g><path fill="none" stroke="none"/><text fill="#000000" stroke="none" font-family="Arial" font-size="13px" font-style="normal" font-weight="normal" text-decoration="none" x="357" y="739">+get(request): response</text></g></g><g transform="translate(-30,-14) scale(1,1)"><rect fill="#C0C0C0" stroke="none" x="687" y="239" width="116.63720703125" height="44" opacity="0.2"/></g><g transform="translate(-30,-14) scale(1,1)"><rect fill="#ffffff" stroke="none" x="680" y="232" width="116.63720703125" height="44"/></g><g transform="translate(-30,-14) scale(1,1)"><path fill="none" stroke="#000000" d="M 680 232 L 796.63720703125 232 L 796.63720703125 276 L 680 276 L 680 232 Z Z" stroke-miterlimit="10"/></g><g transform="translate(-30,-14) scale(1,1)"><path fill="none" stroke="#000000" d="M 680 257 L 796.63720703125 257" stroke-miterlimit="10"/></g><g transform="translate(-30,-14) scale(1,1)"><path fill="none" stroke="#000000" d="M 680 267 L 796.63720703125 267" stroke-miterlimit="10"/></g><g transform="translate(-30,-14) scale(1,1)"><g><path fill="none" stroke="none"/><text fill="#000000" stroke="none" font-family="Arial" font-size="13px" font-style="normal" font-weight="bold" text-decoration="none" x="684.5" y="250">AppUserManager</text></g></g><g transform="translate(-30,-14) scale(1,1)"><rect fill="#C0C0C0" stroke="none" x="551" y="239" width="88" height="44" opacity="0.2"/></g><g transform="translate(-30,-14) scale(1,1)"><rect fill="#ffffff" stroke="none" x="544" y="232" width="88" height="44"/></g><g transform="translate(-30,-14) scale(1,1)"><path fill="none" stroke="#000000" d="M 544 232 L 632 232 L 632 276 L 544 276 L 544 232 Z Z" stroke-miterlimit="10"/></g><g transform="translate(-30,-14) scale(1,1)"><path fill="none" stroke="#000000" d="M 544 257 L 632 257" stroke-miterlimit="10"/></g><g transform="translate(-30,-14) scale(1,1)"><path fill="none" stroke="#000000" d="M 544 267 L 632 267" stroke-miterlimit="10"/></g><g transform="translate(-30,-14) scale(1,1)"><g><path fill="none" stroke="none"/><text fill="#000000" stroke="none" font-family="Arial" font-size="13px" font-style="normal" font-weight="bold" text-decoration="none" x="563.0791015625" y="249.5">account</text></g></g></g></svg>