<svg version="1.1" xmlns="http://www.w3.org/2000/svg" xmlns:xlink="http://www.w3.org/1999/xlink" width="312.681640625" height="245"><defs/><g><text fill="#eeeeee" stroke="none" font-family="Arial" font-size="24px" font-style="normal" font-weight="normal" text-decoration="none" x="0" y="0"></text><text fill="#eeeeee" stroke="none" font-family="Arial" font-size="24px" font-style="normal" font-weight="normal" text-decoration="none" x="0" y="30"></text><text fill="#eeeeee" stroke="none" font-family="Arial" font-size="24px" font-style="normal" font-weight="normal" text-decoration="none" x="0" y="60"></text><text fill="#eeeeee" stroke="none" font-family="Arial" font-size="24px" font-style="normal" font-weight="normal" text-decoration="none" x="0" y="90"></text><text fill="#eeeeee" stroke="none" font-family="Arial" font-size="24px" font-style="normal" font-weight="normal" text-decoration="none" x="0" y="120"></text><text fill="#eeeeee" stroke="none" font-family="Arial" font-size="24px" font-style="normal" font-weight="normal" text-decoration="none" x="0" y="150"></text><text fill="#eeeeee" stroke="none" font-family="Arial" font-size="24px" font-style="normal" font-weight="normal" text-decoration="none" x="0" y="180"></text><text fill="#eeeeee" stroke="none" font-family="Arial" font-size="24px" font-style="normal" font-weight="normal" text-decoration="none" x="0" y="210"></text><text fill="#eeeeee" stroke="none" font-family="Arial" font-size="24px" font-style="normal" font-weight="normal" text-decoration="none" x="0" y="240"></text><text fill="#eeeeee" stroke="none" font-family="Arial" font-size="24px" font-style="normal" font-weight="normal" text-decoration="none" x="200" y="0"></text><text fill="#eeeeee" stroke="none" font-family="Arial" font-size="24px" font-style="normal" font-weight="normal" text-decoration="none" x="200" y="30"></text><text fill="#eeeeee" stroke="none" font-family="Arial" font-size="24px" font-style="normal" font-weight="normal" text-decoration="none" x="200" y="60"></text><text fill="#eeeeee" stroke="none" font-family="Arial" font-size="24px" font-style="normal" font-weight="normal" text-decoration="none" x="200" y="90"></text><text fill="#eeeeee" stroke="none" font-family="Arial" font-size="24px" font-style="normal" font-weight="normal" text-decoration="none" x="200" y="120"></text><text fill="#eeeeee" stroke="none" font-family="Arial" font-size="24px" font-style="normal" font-weight="normal" text-decoration="none" x="200" y="150"></text><text fill="#eeeeee" stroke="none" font-family="Arial" font-size="24px" font-style="normal" font-weight="normal" text-decoration="none" x="200" y="180"></text><text fill="#eeeeee" stroke="none" font-family="Arial" font-size="24px" font-style="normal" font-weight="normal" text-decoration="none" x="200" y="210"></text><text fill="#eeeeee" stroke="none" font-family="Arial" font-size="24px" font-style="normal" font-weight="normal" text-decoration="none" x="200" y="240"></text><g transform="translate(-190,-198) scale(1,1)"><path fill="#C0C0C0" stroke="none" d="M 207 232.5 C 207 227.2532944 211.2532944 223 216.5 223 C 221.7467056 223 226 227.2532944 226 232.5 C 226 237.7467056 221.7467056 242 216.5 242 C 211.2532944 242 207 237.7467056 207 232.5 Z" opacity="0.2"/></g><g transform="translate(-190,-198) scale(1,1)"><path fill="#000000" stroke="none" d="M 200 225.5 C 200 220.2532944 204.2532944 216 209.5 216 C 214.7467056 216 219 220.2532944 219 225.5 C 219 230.7467056 214.7467056 235 209.5 235 C 204.2532944 235 200 230.7467056 200 225.5 Z"/></g><g transform="translate(-190,-198) scale(1,1)"><path fill="#C0C0C0" stroke="none" d="M 289 215 L 489.681640625 215 Q 499.681640625 215 499.681640625 225 L 499.681640625 245 Q 499.681640625 255 489.681640625 255 L 289 255 Q 279 255 279 245 L 279 225 Q 279 215 289 215 Z" opacity="0.2"/></g><g transform="translate(-190,-198) scale(1,1)"><path fill="#ffffff" stroke="none" d="M 282 208 L 482.681640625 208 Q 492.681640625 208 492.681640625 218 L 492.681640625 238 Q 492.681640625 248 482.681640625 248 L 282 248 Q 272 248 272 238 L 272 218 Q 272 208 282 208 Z"/></g><g transform="translate(-190,-198) scale(1,1)"><path fill="none" stroke="#000000" d="M 282 208 L 482.681640625 208 Q 492.681640625 208 492.681640625 218 L 492.681640625 238 Q 492.681640625 248 482.681640625 248 L 282 248 Q 272 248 272 238 L 272 218 Q 272 208 282 208 Z" stroke-miterlimit="10"/></g><g transform="translate(-190,-198) scale(1,1)"><g><path fill="none" stroke="none"/><text fill="#000000" stroke="none" font-family="Arial" font-size="13px" font-style="normal" font-weight="bold" text-decoration="none" x="278.66455078125" y="226">make action against the database</text></g></g><g transform="translate(-190,-198) scale(1,1)"><path fill="none" stroke="#000000" d="M 220 225 L 271 226" stroke-miterlimit="10"/></g><g transform="translate(-190,-198) scale(1,1)"><path fill="none" stroke="#000000" d="M 260.75675448686644 230.00947893842437 L 271 226 L 260.92180188992006 221.59206138268908" stroke-miterlimit="10"/></g><g transform="translate(-190,-198) scale(1,1)"><path fill="#C0C0C0" stroke="none" d="M 289 287 L 485.99365234375 287 Q 495.99365234375 287 495.99365234375 297 L 495.99365234375 317 Q 495.99365234375 327 485.99365234375 327 L 289 327 Q 279 327 279 317 L 279 297 Q 279 287 289 287 Z" opacity="0.2"/></g><g transform="translate(-190,-198) scale(1,1)"><path fill="#ffffff" stroke="none" d="M 282 280 L 478.99365234375 280 Q 488.99365234375 280 488.99365234375 290 L 488.99365234375 310 Q 488.99365234375 320 478.99365234375 320 L 282 320 Q 272 320 272 310 L 272 290 Q 272 280 282 280 Z"/></g><g transform="translate(-190,-198) scale(1,1)"><path fill="none" stroke="#000000" d="M 282 280 L 478.99365234375 280 Q 488.99365234375 280 488.99365234375 290 L 488.99365234375 310 Q 488.99365234375 320 478.99365234375 320 L 282 320 Q 272 320 272 310 L 272 290 Q 272 280 282 280 Z" stroke-miterlimit="10"/></g><g transform="translate(-190,-198) scale(1,1)"><g><path fill="none" stroke="none"/><text fill="#000000" stroke="none" font-family="Arial" font-size="13px" font-style="normal" font-weight="bold" text-decoration="none" x="276.5" y="298">log the action with its information</text></g></g><g transform="translate(-190,-198) scale(1,1)"><path fill="none" stroke="#000000" d="M 381 249 L 381 279" stroke-miterlimit="10"/></g><g transform="translate(-190,-198) scale(1,1)"><path fill="none" stroke="#000000" d="M 376.790482243984 268.83732514237585 L 381 279 L 385.209517756016 268.83732514237585" stroke-miterlimit="10"/></g><g transform="translate(-190,-198) scale(1,1)"><path fill="#C0C0C0" stroke="none" d="M 361 359 L 428.00634765625 359 Q 438.00634765625 359 438.00634765625 369 L 438.00634765625 389 Q 438.00634765625 399 428.00634765625 399 L 361 399 Q 351 399 351 389 L 351 369 Q 351 359 361 359 Z" opacity="0.2"/></g><g transform="translate(-190,-198) scale(1,1)"><path fill="#ffffff" stroke="none" d="M 354 352 L 421.00634765625 352 Q 431.00634765625 352 431.00634765625 362 L 431.00634765625 382 Q 431.00634765625 392 421.00634765625 392 L 354 392 Q 344 392 344 382 L 344 362 Q 344 352 354 352 Z"/></g><g transform="translate(-190,-198) scale(1,1)"><path fill="none" stroke="#000000" d="M 354 352 L 421.00634765625 352 Q 431.00634765625 352 431.00634765625 362 L 431.00634765625 382 Q 431.00634765625 392 421.00634765625 392 L 354 392 Q 344 392 344 382 L 344 362 Q 344 352 354 352 Z" stroke-miterlimit="10"/></g><g transform="translate(-190,-198) scale(1,1)"><g><path fill="none" stroke="none"/><text fill="#000000" stroke="none" font-family="Arial" font-size="13px" font-style="normal" font-weight="bold" text-decoration="none" x="348.5" y="370">store the log</text></g></g><g transform="translate(-190,-198) scale(1,1)"><path fill="none" stroke="#000000" d="M 382 321 L 385 351" stroke-miterlimit="10"/></g><g transform="translate(-190,-198) scale(1,1)"><path fill="none" stroke="#000000" d="M 379.80014933638 341.30662323666047 L 385 351 L 388.1774027765504 340.46889789264344" stroke-miterlimit="10"/></g><g transform="translate(-190,-198) scale(1,1)"><path fill="#C0C0C0" stroke="none" d="M 383 427.5 C 383 420.59644 388.59644 415 395.5 415 C 402.40356 415 408 420.59644 408 427.5 C 408 434.40356 402.40356 440 395.5 440 C 388.59644 440 383 434.40356 383 427.5 Z" opacity="0.2"/></g><g transform="translate(-190,-198) scale(1,1)"><path fill="none" stroke="#000000" d="M 376 420.5 C 376 413.59644 381.59644 408 388.5 408 C 395.40356 408 401 413.59644 401 420.5 C 401 427.40356 395.40356 433 388.5 433 C 381.59644 433 376 427.40356 376 420.5 Z" stroke-miterlimit="10"/></g><g transform="translate(-190,-198) scale(1,1)"><path fill="#000000" stroke="none" d="M 381 420.5 C 381 416.357864 384.357864 413 388.5 413 C 392.642136 413 396 416.357864 396 420.5 C 396 424.642136 392.642136 428 388.5 428 C 384.357864 428 381 424.642136 381 420.5 Z"/></g><g transform="translate(-190,-198) scale(1,1)"><path fill="none" stroke="#000000" d="M 387 393 L 388 407" stroke-miterlimit="10"/></g><g transform="translate(-190,-198) scale(1,1)"><path fill="none" stroke="#000000" d="M 383.0771192885779 397.16306727169956 L 388 407 L 391.4747595042381 396.5632358277239" stroke-miterlimit="10"/></g></g></svg>