<svg version="1.1" xmlns="http://www.w3.org/2000/svg" xmlns:xlink="http://www.w3.org/1999/xlink" width="733.4453125" height="515"><defs/><g><text fill="#eeeeee" stroke="none" font-family="Arial" font-size="24px" font-style="normal" font-weight="normal" text-decoration="none" x="0" y="0"></text><text fill="#eeeeee" stroke="none" font-family="Arial" font-size="24px" font-style="normal" font-weight="normal" text-decoration="none" x="0" y="30"></text><text fill="#eeeeee" stroke="none" font-family="Arial" font-size="24px" font-style="normal" font-weight="normal" text-decoration="none" x="0" y="60"></text><text fill="#eeeeee" stroke="none" font-family="Arial" font-size="24px" font-style="normal" font-weight="normal" text-decoration="none" x="0" y="90"></text><text fill="#eeeeee" stroke="none" font-family="Arial" font-size="24px" font-style="normal" font-weight="normal" text-decoration="none" x="0" y="120"></text><text fill="#eeeeee" stroke="none" font-family="Arial" font-size="24px" font-style="normal" font-weight="normal" text-decoration="none" x="0" y="150"></text><text fill="#eeeeee" stroke="none" font-family="Arial" font-size="24px" font-style="normal" font-weight="normal" text-decoration="none" x="0" y="180"></text><text fill="#eeeeee" stroke="none" font-family="Arial" font-size="24px" font-style="normal" font-weight="normal" text-decoration="none" x="0" y="210"></text><text fill="#eeeeee" stroke="none" font-family="Arial" font-size="24px" font-style="normal" font-weight="normal" text-decoration="none" x="0" y="240"></text><text fill="#eeeeee" stroke="none" font-family="Arial" font-size="24px" font-style="normal" font-weight="normal" text-decoration="none" x="0" y="270"></text><text fill="#eeeeee" stroke="none" font-family="Arial" font-size="24px" font-style="normal" font-weight="normal" text-decoration="none" x="0" y="300"></text><text fill="#eeeeee" stroke="none" font-family="Arial" font-size="24px" font-style="normal" font-weight="normal" text-decoration="none" x="0" y="330"></text><text fill="#eeeeee" stroke="none" font-family="Arial" font-size="24px" font-style="normal" font-weight="normal" text-decoration="none" x="0" y="360"></text><text fill="#eeeeee" stroke="none" font-family="Arial" font-size="24px" font-style="normal" font-weight="normal" text-decoration="none" x="0" y="390"></text><text fill="#eeeeee" stroke="none" font-family="Arial" font-size="24px" font-style="normal" font-weight="normal" text-decoration="none" x="0" y="420"></text><text fill="#eeeeee" stroke="none" font-family="Arial" font-size="24px" font-style="normal" font-weight="normal" text-decoration="none" x="0" y="450"></text><text fill="#eeeeee" stroke="none" font-family="Arial" font-size="24px" font-style="normal" font-weight="normal" text-decoration="none" x="0" y="480"></text><text fill="#eeeeee" stroke="none" font-family="Arial" font-size="24px" font-style="normal" font-weight="normal" text-decoration="none" x="0" y="510"></text><text fill="#eeeeee" stroke="none" font-family="Arial" font-size="24px" font-style="normal" font-weight="normal" text-decoration="none" x="200" y="0"></text><text fill="#eeeeee" stroke="none" font-family="Arial" font-size="24px" font-style="normal" font-weight="normal" text-decoration="none" x="200" y="30"></text><text fill="#eeeeee" stroke="none" font-family="Arial" font-size="24px" font-style="normal" font-weight="normal" text-decoration="none" x="200" y="60"></text><text fill="#eeeeee" stroke="none" font-family="Arial" font-size="24px" font-style="normal" font-weight="normal" text-decoration="none" x="200" y="90"></text><text fill="#eeeeee" stroke="none" font-family="Arial" font-size="24px" font-style="normal" font-weight="normal" text-decoration="none" x="200" y="120"></text><text fill="#eeeeee" stroke="none" font-family="Arial" font-size="24px" font-style="normal" font-weight="normal" text-decoration="none" x="200" y="150"></text><text fill="#eeeeee" stroke="none" font-family="Arial" font-size="24px" font-style="normal" font-weight="normal" text-decoration="none" x="200" y="180"></text><text fill="#eeeeee" stroke="none" font-family="Arial" font-size="24px" font-style="normal" font-weight="normal" text-decoration="none" x="200" y="210"></text><text fill="#eeeeee" stroke="none" font-family="Arial" font-size="24px" font-style="normal" font-weight="normal" text-decoration="none" x="200" y="240"></text><text fill="#eeeeee" stroke="none" font-family="Arial" font-size="24px" font-style="normal" font-weight="normal" text-decoration="none" x="200" y="270"></text><text fill="#eeeeee" stroke="none" font-family="Arial" font-size="24px" font-style="normal" font-weight="normal" text-decoration="none" x="200" y="300"></text><text fill="#eeeeee" stroke="none" font-family="Arial" font-size="24px" font-style="normal" font-weight="normal" text-decoration="none" x="200" y="330"></text><text fill="#eeeeee" stroke="none" font-family="Arial" font-size="24px" font-style="normal" font-weight="normal" text-decoration="none" x="200" y="360"></text><text fill="#eeeeee" stroke="none" font-family="Arial" font-size="24px" font-style="normal" font-weight="normal" text-decoration="none" x="200" y="390"></text><text fill="#eeeeee" stroke="none" font-family="Arial" font-size="24px" font-style="normal" font-weight="normal" text-decoration="none" x="200" y="420"></text><text fill="#eeeeee" stroke="none" font-family="Arial" font-size="24px" font-style="normal" font-weight="normal" text-decoration="none" x="200" y="450"></text><text fill="#eeeeee" stroke="none" font-family="Arial" font-size="24px" font-style="normal" font-weight="normal" text-decoration="none" x="200" y="480"></text><text fill="#eeeeee" stroke="none" font-family="Arial" font-size="24px" font-style="normal" font-weight="normal" text-decoration="none" x="200" y="510"></text><text fill="#eeeeee" stroke="none" font-family="Arial" font-size="24px" font-style="normal" font-weight="normal" text-decoration="none" x="400" y="0"></text><text fill="#eeeeee" stroke="none" font-family="Arial" font-size="24px" font-style="normal" font-weight="normal" text-decoration="none" x="400" y="30"></text><text fill="#eeeeee" stroke="none" font-family="Arial" font-size="24px" font-style="normal" font-weight="normal" text-decoration="none" x="400" y="60"></text><text fill="#eeeeee" stroke="none" font-family="Arial" font-size="24px" font-style="normal" font-weight="normal" text-decoration="none" x="400" y="90"></text><text fill="#eeeeee" stroke="none" font-family="Arial" font-size="24px" font-style="normal" font-weight="normal" text-decoration="none" x="400" y="120"></text><text fill="#eeeeee" stroke="none" font-family="Arial" font-size="24px" font-style="normal" font-weight="normal" text-decoration="none" x="400" y="150"></text><text fill="#eeeeee" stroke="none" font-family="Arial" font-size="24px" font-style="normal" font-weight="normal" text-decoration="none" x="400" y="180"></text><text fill="#eeeeee" stroke="none" font-family="Arial" font-size="24px" font-style="normal" font-weight="normal" text-decoration="none" x="400" y="210"></text><text fill="#eeeeee" stroke="none" font-family="Arial" font-size="24px" font-style="normal" font-weight="normal" text-decoration="none" x="400" y="240"></text><text fill="#eeeeee" stroke="none" font-family="Arial" font-size="24px" font-style="normal" font-weight="normal" text-decoration="none" x="400" y="270"></text><text fill="#eeeeee" stroke="none" font-family="Arial" font-size="24px" font-style="normal" font-weight="normal" text-decoration="none" x="400" y="300"></text><text fill="#eeeeee" stroke="none" font-family="Arial" font-size="24px" font-style="normal" font-weight="normal" text-decoration="none" x="400" y="330"></text><text fill="#eeeeee" stroke="none" font-family="Arial" font-size="24px" font-style="normal" font-weight="normal" text-decoration="none" x="400" y="360"></text><text fill="#eeeeee" stroke="none" font-family="Arial" font-size="24px" font-style="normal" font-weight="normal" text-decoration="none" x="400" y="390"></text><text fill="#eeeeee" stroke="none" font-family="Arial" font-size="24px" font-style="normal" font-weight="normal" text-decoration="none" x="400" y="420"></text><text fill="#eeeeee" stroke="none" font-family="Arial" font-size="24px" font-style="normal" font-weight="normal" text-decoration="none" x="400" y="450"></text><text fill="#eeeeee" stroke="none" font-family="Arial" font-size="24px" font-style="normal" font-weight="normal" text-decoration="none" x="400" y="480"></text><text fill="#eeeeee" stroke="none" font-family="Arial" font-size="24px" font-style="normal" font-weight="normal" text-decoration="none" x="400" y="510"></text><text fill="#eeeeee" stroke="none" font-family="Arial" font-size="24px" font-style="normal" font-weight="normal" text-decoration="none" x="600" y="0"></text><text fill="#eeeeee" stroke="none" font-family="Arial" font-size="24px" font-style="normal" font-weight="normal" text-decoration="none" x="600" y="30"></text><text fill="#eeeeee" stroke="none" font-family="Arial" font-size="24px" font-style="normal" font-weight="normal" text-decoration="none" x="600" y="60"></text><text fill="#eeeeee" stroke="none" font-family="Arial" font-size="24px" font-style="normal" font-weight="normal" text-decoration="none" x="600" y="90"></text><text fill="#eeeeee" stroke="none" font-family="Arial" font-size="24px" font-style="normal" font-weight="normal" text-decoration="none" x="600" y="120"></text><text fill="#eeeeee" stroke="none" font-family="Arial" font-size="24px" font-style="normal" font-weight="normal" text-decoration="none" x="600" y="150"></text><text fill="#eeeeee" stroke="none" font-family="Arial" font-size="24px" font-style="normal" font-weight="normal" text-decoration="none" x="600" y="180"></text><text fill="#eeeeee" stroke="none" font-family="Arial" font-size="24px" font-style="normal" font-weight="normal" text-decoration="none" x="600" y="210"></text><text fill="#eeeeee" stroke="none" font-family="Arial" font-size="24px" font-style="normal" font-weight="normal" text-decoration="none" x="600" y="240"></text><text fill="#eeeeee" stroke="none" font-family="Arial" font-size="24px" font-style="normal" font-weight="normal" text-decoration="none" x="600" y="270"></text><text fill="#eeeeee" stroke="none" font-family="Arial" font-size="24px" font-style="normal" font-weight="normal" text-decoration="none" x="600" y="300"></text><text fill="#eeeeee" stroke="none" font-family="Arial" font-size="24px" font-style="normal" font-weight="normal" text-decoration="none" x="600" y="330"></text><text fill="#eeeeee" stroke="none" font-family="Arial" font-size="24px" font-style="normal" font-weight="normal" text-decoration="none" x="600" y="360"></text><text fill="#eeeeee" stroke="none" font-family="Arial" font-size="24px" font-style="normal" font-weight="normal" text-decoration="none" x="600" y="390"></text><text fill="#eeeeee" stroke="none" font-family="Arial" font-size="24px" font-style="normal" font-weight="normal" text-decoration="none" x="600" y="420"></text><text fill="#eeeeee" stroke="none" font-family="Arial" font-size="24px" font-style="normal" font-weight="normal" text-decoration="none" x="600" y="450"></text><text fill="#eeeeee" stroke="none" font-family="Arial" font-size="24px" font-style="normal" font-weight="normal" text-decoration="none" x="600" y="480"></text><text fill="#eeeeee" stroke="none" font-family="Arial" font-size="24px" font-style="normal" font-weight="normal" text-decoration="none" x="600" y="510"></text><g transform="translate(-150,-46) scale(1,1)"><rect fill="#C0C0C0" stroke="none" x="263" y="63" width="432" height="472" opacity="0.2"/></g><g transform="translate(-150,-46) scale(1,1)"><rect fill="#ffffff" stroke="none" x="256" y="56" width="432" height="472"/></g><g transform="translate(-150,-46) scale(1,1)"><path fill="none" stroke="#000000" d="M 256 56 L 688 56 L 688 528 L 256 528 L 256 56 Z Z" stroke-miterlimit="10"/></g><g transform="translate(-150,-46) scale(1,1)"><g><path fill="none" stroke="none"/><text fill="#000000" stroke="none" font-family="Arial" font-size="13px" font-style="normal" font-weight="bold" text-decoration="none" x="393.24462890625" y="74">UseCaseDiagram sprint 3</text></g></g><g transform="translate(-150,-46) scale(1,1)"><path fill="#ffffff" stroke="none" d="M 184.40935031960228 145.68 C 184.40935031960228 140.886167936 188.29519264454774 137 193.088623046875 137 C 197.88205344920226 137 201.76789577414772 140.886167936 201.76789577414772 145.68 C 201.76789577414772 150.47383206400002 197.88205344920226 154.36 193.088623046875 154.36 C 188.29519264454774 154.36 184.40935031960228 150.47383206400002 184.40935031960228 145.68 Z"/></g><g transform="translate(-150,-46) scale(1,1)"><path fill="none" stroke="#000000" d="M 184.40935031960228 145.68 C 184.40935031960228 140.886167936 188.29519264454774 137 193.088623046875 137 C 197.88205344920226 137 201.76789577414772 140.886167936 201.76789577414772 145.68 C 201.76789577414772 150.47383206400002 197.88205344920226 154.36 193.088623046875 154.36 C 188.29519264454774 154.36 184.40935031960228 150.47383206400002 184.40935031960228 145.68 Z" stroke-miterlimit="10"/></g><g transform="translate(-150,-46) scale(1,1)"><path fill="none" stroke="#000000" d="M 193.088623046875 154.36 L 193.088623046875 171.64" stroke-miterlimit="10"/></g><g transform="translate(-150,-46) scale(1,1)"><path fill="none" stroke="#000000" d="M 183.89880486505683 160.84 L 202.27844122869317 160.84" stroke-miterlimit="10"/></g><g transform="translate(-150,-46) scale(1,1)"><path fill="none" stroke="#000000" d="M 193.088623046875 171.64 L 180.32498668323865 189" stroke-miterlimit="10"/></g><g transform="translate(-150,-46) scale(1,1)"><path fill="none" stroke="#000000" d="M 193.088623046875 171.64 L 205.85225941051135 189" stroke-miterlimit="10"/></g><g transform="translate(-150,-46) scale(1,1)"><g><path fill="none" stroke="none"/><text fill="#000000" stroke="none" font-family="Arial" font-size="13px" font-style="normal" font-weight="bold" text-decoration="none" x="173.947265625" y="208">admin</text></g></g><g transform="translate(-150,-46) scale(1,1)"><path fill="#C0C0C0" stroke="none" d="M 279 209 C 279 194.6405952 311.45935199999997 183 351.5 183 C 391.54064800000003 183 424 194.6405952 424 209 C 424 223.3594048 391.54064800000003 235 351.5 235 C 311.45935199999997 235 279 223.3594048 279 209 Z" opacity="0.2"/></g><g transform="translate(-150,-46) scale(1,1)"><path fill="#ffffff" stroke="none" d="M 272 202 C 272 187.6405952 304.45935199999997 176 344.5 176 C 384.54064800000003 176 417 187.6405952 417 202 C 417 216.3594048 384.54064800000003 228 344.5 228 C 304.45935199999997 228 272 216.3594048 272 202 Z"/></g><g transform="translate(-150,-46) scale(1,1)"><path fill="none" stroke="#000000" d="M 272 202 C 272 187.6405952 304.45935199999997 176 344.5 176 C 384.54064800000003 176 417 187.6405952 417 202 C 417 216.3594048 384.54064800000003 228 344.5 228 C 304.45935199999997 228 272 216.3594048 272 202 Z" stroke-miterlimit="10"/></g><g transform="translate(-150,-46) scale(1,1)"><g><path fill="none" stroke="none"/><text fill="#000000" stroke="none" font-family="Arial" font-size="13px" font-style="normal" font-weight="normal" text-decoration="none" x="318.4873046875" y="199">«UC-02»</text></g></g><g transform="translate(-150,-46) scale(1,1)"><g><path fill="none" stroke="none"/><text fill="#000000" stroke="none" font-family="Arial" font-size="13px" font-style="normal" font-weight="bold" text-decoration="none" x="297.53369140625" y="214">make accounts</text></g></g><g transform="translate(-150,-46) scale(1,1)"><path fill="#C0C0C0" stroke="none" d="M 399 297 C 399 282.6405952 421.6096176 271 449.5 271 C 477.3903824 271 500 282.6405952 500 297 C 500 311.3594048 477.3903824 323 449.5 323 C 421.6096176 323 399 311.3594048 399 297 Z" opacity="0.2"/></g><g transform="translate(-150,-46) scale(1,1)"><path fill="#ffffff" stroke="none" d="M 392 290 C 392 275.6405952 414.6096176 264 442.5 264 C 470.3903824 264 493 275.6405952 493 290 C 493 304.3594048 470.3903824 316 442.5 316 C 414.6096176 316 392 304.3594048 392 290 Z"/></g><g transform="translate(-150,-46) scale(1,1)"><path fill="none" stroke="#000000" d="M 392 290 C 392 275.6405952 414.6096176 264 442.5 264 C 470.3903824 264 493 275.6405952 493 290 C 493 304.3594048 470.3903824 316 442.5 316 C 414.6096176 316 392 304.3594048 392 290 Z" stroke-miterlimit="10"/></g><g transform="translate(-150,-46) scale(1,1)"><g><path fill="none" stroke="none"/><text fill="#000000" stroke="none" font-family="Arial" font-size="13px" font-style="normal" font-weight="normal" text-decoration="none" x="416.4873046875" y="287">«UC-01»</text></g></g><g transform="translate(-150,-46) scale(1,1)"><g><path fill="none" stroke="none"/><text fill="#000000" stroke="none" font-family="Arial" font-size="13px" font-style="normal" font-weight="bold" text-decoration="none" x="425.1708984375" y="302">log in</text></g></g><g transform="translate(-150,-46) scale(1,1)"><path fill="#C0C0C0" stroke="none" d="M 367 129 C 367 114.6405952 398.7877792 103 438 103 C 477.2122208 103 509 114.6405952 509 129 C 509 143.3594048 477.2122208 155 438 155 C 398.7877792 155 367 143.3594048 367 129 Z" opacity="0.2"/></g><g transform="translate(-150,-46) scale(1,1)"><path fill="#ffffff" stroke="none" d="M 360 122 C 360 107.6405952 391.7877792 96 431 96 C 470.2122208 96 502 107.6405952 502 122 C 502 136.3594048 470.2122208 148 431 148 C 391.7877792 148 360 136.3594048 360 122 Z"/></g><g transform="translate(-150,-46) scale(1,1)"><path fill="none" stroke="#000000" d="M 360 122 C 360 107.6405952 391.7877792 96 431 96 C 470.2122208 96 502 107.6405952 502 122 C 502 136.3594048 470.2122208 148 431 148 C 391.7877792 148 360 136.3594048 360 122 Z" stroke-miterlimit="10"/></g><g transform="translate(-150,-46) scale(1,1)"><g><path fill="none" stroke="none"/><text fill="#000000" stroke="none" font-family="Arial" font-size="13px" font-style="normal" font-weight="normal" text-decoration="none" x="404.9873046875" y="119">«UC-07»</text></g></g><g transform="translate(-150,-46) scale(1,1)"><g><path fill="none" stroke="none"/><text fill="#000000" stroke="none" font-family="Arial" font-size="13px" font-style="normal" font-weight="bold" text-decoration="none" x="385.135009765625" y="134">logging events</text></g></g><g transform="translate(-150,-46) scale(1,1)"><path fill="#C0C0C0" stroke="none" d="M 287 417 C 287 402.6405952 321.2502128 391 363.5 391 C 405.7497872 391 440 402.6405952 440 417 C 440 431.3594048 405.7497872 443 363.5 443 C 321.2502128 443 287 431.3594048 287 417 Z" opacity="0.2"/></g><g transform="translate(-150,-46) scale(1,1)"><path fill="#ffffff" stroke="none" d="M 280 410 C 280 395.6405952 314.2502128 384 356.5 384 C 398.7497872 384 433 395.6405952 433 410 C 433 424.3594048 398.7497872 436 356.5 436 C 314.2502128 436 280 424.3594048 280 410 Z"/></g><g transform="translate(-150,-46) scale(1,1)"><path fill="none" stroke="#000000" d="M 280 410 C 280 395.6405952 314.2502128 384 356.5 384 C 398.7497872 384 433 395.6405952 433 410 C 433 424.3594048 398.7497872 436 356.5 436 C 314.2502128 436 280 424.3594048 280 410 Z" stroke-miterlimit="10"/></g><g transform="translate(-150,-46) scale(1,1)"><g><path fill="none" stroke="none"/><text fill="#000000" stroke="none" font-family="Arial" font-size="13px" font-style="normal" font-weight="normal" text-decoration="none" x="330.4873046875" y="407">«UC-06»</text></g></g><g transform="translate(-150,-46) scale(1,1)"><g><path fill="none" stroke="none"/><text fill="#000000" stroke="none" font-family="Arial" font-size="13px" font-style="normal" font-weight="bold" text-decoration="none" x="307.02001953125" y="422">add new project</text></g></g><g transform="translate(-150,-46) scale(1,1)"><path fill="#C0C0C0" stroke="none" d="M 503 177 C 503 162.6405952 542.17508 151 590.5 151 C 638.82492 151 678 162.6405952 678 177 C 678 191.3594048 638.82492 203 590.5 203 C 542.17508 203 503 191.3594048 503 177 Z" opacity="0.2"/></g><g transform="translate(-150,-46) scale(1,1)"><path fill="#ffffff" stroke="none" d="M 496 170 C 496 155.6405952 535.17508 144 583.5 144 C 631.82492 144 671 155.6405952 671 170 C 671 184.3594048 631.82492 196 583.5 196 C 535.17508 196 496 184.3594048 496 170 Z"/></g><g transform="translate(-150,-46) scale(1,1)"><path fill="none" stroke="#000000" d="M 496 170 C 496 155.6405952 535.17508 144 583.5 144 C 631.82492 144 671 155.6405952 671 170 C 671 184.3594048 631.82492 196 583.5 196 C 535.17508 196 496 184.3594048 496 170 Z" stroke-miterlimit="10"/></g><g transform="translate(-150,-46) scale(1,1)"><g><path fill="none" stroke="none"/><text fill="#000000" stroke="none" font-family="Arial" font-size="13px" font-style="normal" font-weight="normal" text-decoration="none" x="557.4873046875" y="167">«UC-03»</text></g></g><g transform="translate(-150,-46) scale(1,1)"><g><path fill="none" stroke="none"/><text fill="#000000" stroke="none" font-family="Arial" font-size="13px" font-style="normal" font-weight="bold" text-decoration="none" x="526.063232421875" y="182">add advertisement</text></g></g><g transform="translate(-150,-46) scale(1,1)"><path fill="#C0C0C0" stroke="none" d="M 527 313 C 527 298.6405952 552.743624 287 584.5 287 C 616.256376 287 642 298.6405952 642 313 C 642 327.3594048 616.256376 339 584.5 339 C 552.743624 339 527 327.3594048 527 313 Z" opacity="0.2"/></g><g transform="translate(-150,-46) scale(1,1)"><path fill="#ffffff" stroke="none" d="M 520 306 C 520 291.6405952 545.743624 280 577.5 280 C 609.256376 280 635 291.6405952 635 306 C 635 320.3594048 609.256376 332 577.5 332 C 545.743624 332 520 320.3594048 520 306 Z"/></g><g transform="translate(-150,-46) scale(1,1)"><path fill="none" stroke="#000000" d="M 520 306 C 520 291.6405952 545.743624 280 577.5 280 C 609.256376 280 635 291.6405952 635 306 C 635 320.3594048 609.256376 332 577.5 332 C 545.743624 332 520 320.3594048 520 306 Z" stroke-miterlimit="10"/></g><g transform="translate(-150,-46) scale(1,1)"><g><path fill="none" stroke="none"/><text fill="#000000" stroke="none" font-family="Arial" font-size="13px" font-style="normal" font-weight="normal" text-decoration="none" x="551.4873046875" y="303">«UC-04»</text></g></g><g transform="translate(-150,-46) scale(1,1)"><g><path fill="none" stroke="none"/><text fill="#000000" stroke="none" font-family="Arial" font-size="13px" font-style="normal" font-weight="bold" text-decoration="none" x="541.385009765625" y="318">upload files</text></g></g><g transform="translate(-150,-46) scale(1,1)"><path fill="#ffffff" stroke="none" d="M 189.05705539772728 361.68 C 189.05705539772728 356.886167936 192.94289772267274 353 197.736328125 353 C 202.52975852732726 353 206.41560085227272 356.886167936 206.41560085227272 361.68 C 206.41560085227272 366.473832064 202.52975852732726 370.36 197.736328125 370.36 C 192.94289772267274 370.36 189.05705539772728 366.473832064 189.05705539772728 361.68 Z"/></g><g transform="translate(-150,-46) scale(1,1)"><path fill="none" stroke="#000000" d="M 189.05705539772728 361.68 C 189.05705539772728 356.886167936 192.94289772267274 353 197.736328125 353 C 202.52975852732726 353 206.41560085227272 356.886167936 206.41560085227272 361.68 C 206.41560085227272 366.473832064 202.52975852732726 370.36 197.736328125 370.36 C 192.94289772267274 370.36 189.05705539772728 366.473832064 189.05705539772728 361.68 Z" stroke-miterlimit="10"/></g><g transform="translate(-150,-46) scale(1,1)"><path fill="none" stroke="#000000" d="M 197.736328125 370.36 L 197.736328125 387.64" stroke-miterlimit="10"/></g><g transform="translate(-150,-46) scale(1,1)"><path fill="none" stroke="#000000" d="M 188.54650994318183 376.84 L 206.92614630681817 376.84" stroke-miterlimit="10"/></g><g transform="translate(-150,-46) scale(1,1)"><path fill="none" stroke="#000000" d="M 197.736328125 387.64 L 184.97269176136365 405" stroke-miterlimit="10"/></g><g transform="translate(-150,-46) scale(1,1)"><path fill="none" stroke="#000000" d="M 197.736328125 387.64 L 210.49996448863635 405" stroke-miterlimit="10"/></g><g transform="translate(-150,-46) scale(1,1)"><g><path fill="none" stroke="none"/><text fill="#000000" stroke="none" font-family="Arial" font-size="13px" font-style="normal" font-weight="bold" text-decoration="none" x="164.5" y="424">supervisor</text></g></g><g transform="translate(-150,-46) scale(1,1)"><path fill="#ffffff" stroke="none" d="M 200.40935031960228 257.68 C 200.40935031960228 252.886167936 204.29519264454774 249 209.088623046875 249 C 213.88205344920226 249 217.76789577414772 252.886167936 217.76789577414772 257.68 C 217.76789577414772 262.473832064 213.88205344920226 266.36 209.088623046875 266.36 C 204.29519264454774 266.36 200.40935031960228 262.473832064 200.40935031960228 257.68 Z"/></g><g transform="translate(-150,-46) scale(1,1)"><path fill="none" stroke="#000000" d="M 200.40935031960228 257.68 C 200.40935031960228 252.886167936 204.29519264454774 249 209.088623046875 249 C 213.88205344920226 249 217.76789577414772 252.886167936 217.76789577414772 257.68 C 217.76789577414772 262.473832064 213.88205344920226 266.36 209.088623046875 266.36 C 204.29519264454774 266.36 200.40935031960228 262.473832064 200.40935031960228 257.68 Z" stroke-miterlimit="10"/></g><g transform="translate(-150,-46) scale(1,1)"><path fill="none" stroke="#000000" d="M 209.088623046875 266.36 L 209.088623046875 283.64" stroke-miterlimit="10"/></g><g transform="translate(-150,-46) scale(1,1)"><path fill="none" stroke="#000000" d="M 199.89880486505683 272.84 L 218.27844122869317 272.84" stroke-miterlimit="10"/></g><g transform="translate(-150,-46) scale(1,1)"><path fill="none" stroke="#000000" d="M 209.088623046875 283.64 L 196.32498668323865 301" stroke-miterlimit="10"/></g><g transform="translate(-150,-46) scale(1,1)"><path fill="none" stroke="#000000" d="M 209.088623046875 283.64 L 221.85225941051135 301" stroke-miterlimit="10"/></g><g transform="translate(-150,-46) scale(1,1)"><g><path fill="none" stroke="none"/><text fill="#000000" stroke="none" font-family="Arial" font-size="13px" font-style="normal" font-weight="bold" text-decoration="none" x="189.233154296875" y="320">studnt</text></g></g><g transform="translate(-150,-46) scale(1,1)"><path fill="#ffffff" stroke="none" d="M 784.0433835227273 129.68 C 784.0433835227273 124.886167936 787.9292258476727 121 792.72265625 121 C 797.5160866523273 121 801.4019289772727 124.886167936 801.4019289772727 129.68 C 801.4019289772727 134.47383206400002 797.5160866523273 138.36 792.72265625 138.36 C 787.9292258476727 138.36 784.0433835227273 134.47383206400002 784.0433835227273 129.68 Z"/></g><g transform="translate(-150,-46) scale(1,1)"><path fill="none" stroke="#000000" d="M 784.0433835227273 129.68 C 784.0433835227273 124.886167936 787.9292258476727 121 792.72265625 121 C 797.5160866523273 121 801.4019289772727 124.886167936 801.4019289772727 129.68 C 801.4019289772727 134.47383206400002 797.5160866523273 138.36 792.72265625 138.36 C 787.9292258476727 138.36 784.0433835227273 134.47383206400002 784.0433835227273 129.68 Z" stroke-miterlimit="10"/></g><g transform="translate(-150,-46) scale(1,1)"><path fill="none" stroke="#000000" d="M 792.72265625 138.36 L 792.72265625 155.64" stroke-miterlimit="10"/></g><g transform="translate(-150,-46) scale(1,1)"><path fill="none" stroke="#000000" d="M 783.5328380681818 144.84 L 801.9124744318182 144.84" stroke-miterlimit="10"/></g><g transform="translate(-150,-46) scale(1,1)"><path fill="none" stroke="#000000" d="M 792.72265625 155.64 L 779.9590198863636 173" stroke-miterlimit="10"/></g><g transform="translate(-150,-46) scale(1,1)"><path fill="none" stroke="#000000" d="M 792.72265625 155.64 L 805.4862926136364 173" stroke-miterlimit="10"/></g><g transform="translate(-150,-46) scale(1,1)"><g><path fill="none" stroke="none"/><text fill="#000000" stroke="none" font-family="Arial" font-size="13px" font-style="normal" font-weight="bold" text-decoration="none" x="716.5" y="192">evaluation team member</text></g></g><g transform="translate(-150,-46) scale(1,1)"><path fill="#ffffff" stroke="none" d="M 790.9156979758523 321.68 C 790.9156979758523 316.886167936 794.8015403007977 313 799.594970703125 313 C 804.3884011054523 313 808.2742434303977 316.886167936 808.2742434303977 321.68 C 808.2742434303977 326.473832064 804.3884011054523 330.36 799.594970703125 330.36 C 794.8015403007977 330.36 790.9156979758523 326.473832064 790.9156979758523 321.68 Z"/></g><g transform="translate(-150,-46) scale(1,1)"><path fill="none" stroke="#000000" d="M 790.9156979758523 321.68 C 790.9156979758523 316.886167936 794.8015403007977 313 799.594970703125 313 C 804.3884011054523 313 808.2742434303977 316.886167936 808.2742434303977 321.68 C 808.2742434303977 326.473832064 804.3884011054523 330.36 799.594970703125 330.36 C 794.8015403007977 330.36 790.9156979758523 326.473832064 790.9156979758523 321.68 Z" stroke-miterlimit="10"/></g><g transform="translate(-150,-46) scale(1,1)"><path fill="none" stroke="#000000" d="M 799.594970703125 330.36 L 799.594970703125 347.64" stroke-miterlimit="10"/></g><g transform="translate(-150,-46) scale(1,1)"><path fill="none" stroke="#000000" d="M 790.4051525213068 336.84 L 808.7847888849432 336.84" stroke-miterlimit="10"/></g><g transform="translate(-150,-46) scale(1,1)"><path fill="none" stroke="#000000" d="M 799.594970703125 347.64 L 786.8313343394886 365" stroke-miterlimit="10"/></g><g transform="translate(-150,-46) scale(1,1)"><path fill="none" stroke="#000000" d="M 799.594970703125 347.64 L 812.3586070667614 365" stroke-miterlimit="10"/></g><g transform="translate(-150,-46) scale(1,1)"><g><path fill="none" stroke="none"/><text fill="#000000" stroke="none" font-family="Arial" font-size="13px" font-style="normal" font-weight="bold" text-decoration="none" x="772.5" y="382.5">manager</text></g></g><g transform="translate(-150,-46) scale(1,1)"><path fill="#C0C0C0" stroke="none" d="M 359 481 C 359 466.6405952 431.0821472 455 520 455 C 608.9178528 455 681 466.6405952 681 481 C 681 495.3594048 608.9178528 507 520 507 C 431.0821472 507 359 495.3594048 359 481 Z" opacity="0.2"/></g><g transform="translate(-150,-46) scale(1,1)"><path fill="#ffffff" stroke="none" d="M 352 474 C 352 459.6405952 424.0821472 448 513 448 C 601.9178528 448 674 459.6405952 674 474 C 674 488.3594048 601.9178528 500 513 500 C 424.0821472 500 352 488.3594048 352 474 Z"/></g><g transform="translate(-150,-46) scale(1,1)"><path fill="none" stroke="#000000" d="M 352 474 C 352 459.6405952 424.0821472 448 513 448 C 601.9178528 448 674 459.6405952 674 474 C 674 488.3594048 601.9178528 500 513 500 C 424.0821472 500 352 488.3594048 352 474 Z" stroke-miterlimit="10"/></g><g transform="translate(-150,-46) scale(1,1)"><g><path fill="none" stroke="none"/><text fill="#000000" stroke="none" font-family="Arial" font-size="13px" font-style="normal" font-weight="normal" text-decoration="none" x="486.9873046875" y="471">«UC-05»</text></g></g><g transform="translate(-150,-46) scale(1,1)"><g><path fill="none" stroke="none"/><text fill="#000000" stroke="none" font-family="Arial" font-size="13px" font-style="normal" font-weight="bold" text-decoration="none" x="403.550537109375" y="486">change supervisor Responsibilities</text></g></g><g transform="translate(-150,-46) scale(1,1)"><path fill="none" stroke="#000000" d="M 578 279 L 582 197" stroke-miterlimit="10" stroke-dasharray="3"/></g><g transform="translate(-150,-46) scale(1,1)"><path fill="none" stroke="#000000" d="M 585.7093668553658 207.3557036232365 L 582 197 L 577.3003302013892 206.94550671328642" stroke-miterlimit="10"/></g><g transform="translate(-150,-46) scale(1,1)"><g><path fill="none" stroke="none"/><text fill="#000000" stroke="none" font-family="Arial" font-size="13px" font-style="normal" font-weight="normal" text-decoration="none" x="580.5" y="262">«extend»</text></g></g><g transform="translate(-150,-46) scale(1,1)"><path fill="#ffffff" stroke="none" d="M 185.80705539772728 481.68 C 185.80705539772728 476.886167936 189.69289772267274 473 194.486328125 473 C 199.27975852732726 473 203.16560085227272 476.886167936 203.16560085227272 481.68 C 203.16560085227272 486.473832064 199.27975852732726 490.36 194.486328125 490.36 C 189.69289772267274 490.36 185.80705539772728 486.473832064 185.80705539772728 481.68 Z"/></g><g transform="translate(-150,-46) scale(1,1)"><path fill="none" stroke="#000000" d="M 185.80705539772728 481.68 C 185.80705539772728 476.886167936 189.69289772267274 473 194.486328125 473 C 199.27975852732726 473 203.16560085227272 476.886167936 203.16560085227272 481.68 C 203.16560085227272 486.473832064 199.27975852732726 490.36 194.486328125 490.36 C 189.69289772267274 490.36 185.80705539772728 486.473832064 185.80705539772728 481.68 Z" stroke-miterlimit="10"/></g><g transform="translate(-150,-46) scale(1,1)"><path fill="none" stroke="#000000" d="M 194.486328125 490.36 L 194.486328125 507.64" stroke-miterlimit="10"/></g><g transform="translate(-150,-46) scale(1,1)"><path fill="none" stroke="#000000" d="M 185.29650994318183 496.84 L 203.67614630681817 496.84" stroke-miterlimit="10"/></g><g transform="translate(-150,-46) scale(1,1)"><path fill="none" stroke="#000000" d="M 194.486328125 507.64 L 181.72269176136365 525" stroke-miterlimit="10"/></g><g transform="translate(-150,-46) scale(1,1)"><path fill="none" stroke="#000000" d="M 194.486328125 507.64 L 207.24996448863635 525" stroke-miterlimit="10"/></g><g transform="translate(-150,-46) scale(1,1)"><g><path fill="none" stroke="none"/><text fill="#000000" stroke="none" font-family="Arial" font-size="13px" font-style="normal" font-weight="bold" text-decoration="none" x="164.5" y="544">employee</text></g></g><g transform="translate(-150,-46) scale(1,1)"><path fill="none" stroke="#000000" d="M 359 138 L 219 169" stroke-miterlimit="10"/></g><g transform="translate(-150,-46) scale(1,1)"><path fill="none" stroke="#000000" d="M 271 189 L 219 180" stroke-miterlimit="10"/></g><g transform="translate(-150,-46) scale(1,1)"><path fill="none" stroke="#000000" d="M 235 309 L 324 383" stroke-miterlimit="10"/></g><g transform="translate(-150,-46) scale(1,1)"><path fill="none" stroke="#000000" d="M 236 396 L 279 401" stroke-miterlimit="10"/></g><g transform="translate(-150,-46) scale(1,1)"><path fill="none" stroke="#000000" d="M 230 489 L 313 437" stroke-miterlimit="10"/></g><g transform="translate(-150,-46) scale(1,1)"><path fill="none" stroke="#000000" d="M 767 365 L 576 447" stroke-miterlimit="10"/></g><g transform="translate(-150,-46) scale(1,1)"><path fill="none" stroke="#000000" d="M 615 197 L 767 324" stroke-miterlimit="10"/></g><g transform="translate(-150,-46) scale(1,1)"><path fill="none" stroke="#000000" d="M 711 163 L 672 165" stroke-miterlimit="10"/></g><g transform="translate(-150,-46) scale(1,1)"><path fill="none" stroke="#000000" d="M 374 229 L 412 263" stroke-miterlimit="10" stroke-dasharray="3"/></g><g transform="translate(-150,-46) scale(1,1)"><path fill="none" stroke="#000000" d="M 401.6194700396173 259.3606871882736 L 412 263 L 407.2332396407341 253.0864741046724" stroke-miterlimit="10"/></g><g transform="translate(-150,-46) scale(1,1)"><g><path fill="none" stroke="none"/><text fill="#000000" stroke="none" font-family="Arial" font-size="13px" font-style="normal" font-weight="normal" text-decoration="none" x="333.5" y="252">«include»</text></g></g><g transform="translate(-150,-46) scale(1,1)"><path fill="none" stroke="#000000" d="M 433 149 L 440 263" stroke-miterlimit="10" stroke-dasharray="3"/></g><g transform="translate(-150,-46) scale(1,1)"><path fill="none" stroke="#000000" d="M 435.17554483328024 253.11442301409215 L 440 263 L 443.5787535587591 252.59843651340486" stroke-miterlimit="10"/></g><g transform="translate(-150,-46) scale(1,1)"><g><path fill="none" stroke="none"/><text fill="#000000" stroke="none" font-family="Arial" font-size="13px" font-style="normal" font-weight="normal" text-decoration="none" x="437.5" y="208">«include»</text></g></g><g transform="translate(-150,-46) scale(1,1)"><path fill="none" stroke="#000000" d="M 551 197 L 474 263" stroke-miterlimit="10" stroke-dasharray="3"/></g><g transform="translate(-150,-46) scale(1,1)"><path fill="none" stroke="#000000" d="M 478.97656014131803 253.19011472239126 L 474 263 L 484.4555958253679 259.58232302044945" stroke-miterlimit="10"/></g><g transform="translate(-150,-46) scale(1,1)"><g><path fill="none" stroke="none"/><text fill="#000000" stroke="none" font-family="Arial" font-size="13px" font-style="normal" font-weight="normal" text-decoration="none" x="503.5" y="257">«include»</text></g></g><g transform="translate(-150,-46) scale(1,1)"><path fill="none" stroke="#000000" d="M 503 447 L 452 317" stroke-miterlimit="10" stroke-dasharray="3"/></g><g transform="translate(-150,-46) scale(1,1)"><path fill="none" stroke="#000000" d="M 459.63024985501835 324.92333813174673 L 452 317 L 451.7927552920391 327.9980475372232" stroke-miterlimit="10"/></g><g transform="translate(-150,-46) scale(1,1)"><g><path fill="none" stroke="none"/><text fill="#000000" stroke="none" font-family="Arial" font-size="13px" font-style="normal" font-weight="normal" text-decoration="none" x="494.5" y="430">«include»</text></g></g><g transform="translate(-150,-46) scale(1,1)"><path fill="none" stroke="#000000" d="M 375 383 L 423 317" stroke-miterlimit="10" stroke-dasharray="3"/></g><g transform="translate(-150,-46) scale(1,1)"><path fill="none" stroke="#000000" d="M 420.4269911828768 327.6948410753506 L 423 317 L 413.6182133692666 322.74300266545225" stroke-miterlimit="10"/></g><g transform="translate(-150,-46) scale(1,1)"><g><path fill="none" stroke="none"/><text fill="#000000" stroke="none" font-family="Arial" font-size="13px" font-style="normal" font-weight="normal" text-decoration="none" x="346.5" y="337">«include»</text></g></g></g></svg>