<svg version="1.1" xmlns="http://www.w3.org/2000/svg" xmlns:xlink="http://www.w3.org/1999/xlink" width="892" height="568"><defs/><g><text fill="#eeeeee" stroke="none" font-family="Arial" font-size="24px" font-style="normal" font-weight="normal" text-decoration="none" x="0" y="0"></text><text fill="#eeeeee" stroke="none" font-family="Arial" font-size="24px" font-style="normal" font-weight="normal" text-decoration="none" x="0" y="30"></text><text fill="#eeeeee" stroke="none" font-family="Arial" font-size="24px" font-style="normal" font-weight="normal" text-decoration="none" x="0" y="60"></text><text fill="#eeeeee" stroke="none" font-family="Arial" font-size="24px" font-style="normal" font-weight="normal" text-decoration="none" x="0" y="90"></text><text fill="#eeeeee" stroke="none" font-family="Arial" font-size="24px" font-style="normal" font-weight="normal" text-decoration="none" x="0" y="120"></text><text fill="#eeeeee" stroke="none" font-family="Arial" font-size="24px" font-style="normal" font-weight="normal" text-decoration="none" x="0" y="150"></text><text fill="#eeeeee" stroke="none" font-family="Arial" font-size="24px" font-style="normal" font-weight="normal" text-decoration="none" x="0" y="180"></text><text fill="#eeeeee" stroke="none" font-family="Arial" font-size="24px" font-style="normal" font-weight="normal" text-decoration="none" x="0" y="210"></text><text fill="#eeeeee" stroke="none" font-family="Arial" font-size="24px" font-style="normal" font-weight="normal" text-decoration="none" x="0" y="240"></text><text fill="#eeeeee" stroke="none" font-family="Arial" font-size="24px" font-style="normal" font-weight="normal" text-decoration="none" x="0" y="270"></text><text fill="#eeeeee" stroke="none" font-family="Arial" font-size="24px" font-style="normal" font-weight="normal" text-decoration="none" x="0" y="300"></text><text fill="#eeeeee" stroke="none" font-family="Arial" font-size="24px" font-style="normal" font-weight="normal" text-decoration="none" x="0" y="330"></text><text fill="#eeeeee" stroke="none" font-family="Arial" font-size="24px" font-style="normal" font-weight="normal" text-decoration="none" x="0" y="360"></text><text fill="#eeeeee" stroke="none" font-family="Arial" font-size="24px" font-style="normal" font-weight="normal" text-decoration="none" x="0" y="390"></text><text fill="#eeeeee" stroke="none" font-family="Arial" font-size="24px" font-style="normal" font-weight="normal" text-decoration="none" x="0" y="420"></text><text fill="#eeeeee" stroke="none" font-family="Arial" font-size="24px" font-style="normal" font-weight="normal" text-decoration="none" x="0" y="450"></text><text fill="#eeeeee" stroke="none" font-family="Arial" font-size="24px" font-style="normal" font-weight="normal" text-decoration="none" x="0" y="480"></text><text fill="#eeeeee" stroke="none" font-family="Arial" font-size="24px" font-style="normal" font-weight="normal" text-decoration="none" x="0" y="510"></text><text fill="#eeeeee" stroke="none" font-family="Arial" font-size="24px" font-style="normal" font-weight="normal" text-decoration="none" x="0" y="540"></text><text fill="#eeeeee" stroke="none" font-family="Arial" font-size="24px" font-style="normal" font-weight="normal" text-decoration="none" x="200" y="0"></text><text fill="#eeeeee" stroke="none" font-family="Arial" font-size="24px" font-style="normal" font-weight="normal" text-decoration="none" x="200" y="30"></text><text fill="#eeeeee" stroke="none" font-family="Arial" font-size="24px" font-style="normal" font-weight="normal" text-decoration="none" x="200" y="60"></text><text fill="#eeeeee" stroke="none" font-family="Arial" font-size="24px" font-style="normal" font-weight="normal" text-decoration="none" x="200" y="90"></text><text fill="#eeeeee" stroke="none" font-family="Arial" font-size="24px" font-style="normal" font-weight="normal" text-decoration="none" x="200" y="120"></text><text fill="#eeeeee" stroke="none" font-family="Arial" font-size="24px" font-style="normal" font-weight="normal" text-decoration="none" x="200" y="150"></text><text fill="#eeeeee" stroke="none" font-family="Arial" font-size="24px" font-style="normal" font-weight="normal" text-decoration="none" x="200" y="180"></text><text fill="#eeeeee" stroke="none" font-family="Arial" font-size="24px" font-style="normal" font-weight="normal" text-decoration="none" x="200" y="210"></text><text fill="#eeeeee" stroke="none" font-family="Arial" font-size="24px" font-style="normal" font-weight="normal" text-decoration="none" x="200" y="240"></text><text fill="#eeeeee" stroke="none" font-family="Arial" font-size="24px" font-style="normal" font-weight="normal" text-decoration="none" x="200" y="270"></text><text fill="#eeeeee" stroke="none" font-family="Arial" font-size="24px" font-style="normal" font-weight="normal" text-decoration="none" x="200" y="300"></text><text fill="#eeeeee" stroke="none" font-family="Arial" font-size="24px" font-style="normal" font-weight="normal" text-decoration="none" x="200" y="330"></text><text fill="#eeeeee" stroke="none" font-family="Arial" font-size="24px" font-style="normal" font-weight="normal" text-decoration="none" x="200" y="360"></text><text fill="#eeeeee" stroke="none" font-family="Arial" font-size="24px" font-style="normal" font-weight="normal" text-decoration="none" x="200" y="390"></text><text fill="#eeeeee" stroke="none" font-family="Arial" font-size="24px" font-style="normal" font-weight="normal" text-decoration="none" x="200" y="420"></text><text fill="#eeeeee" stroke="none" font-family="Arial" font-size="24px" font-style="normal" font-weight="normal" text-decoration="none" x="200" y="450"></text><text fill="#eeeeee" stroke="none" font-family="Arial" font-size="24px" font-style="normal" font-weight="normal" text-decoration="none" x="200" y="480"></text><text fill="#eeeeee" stroke="none" font-family="Arial" font-size="24px" font-style="normal" font-weight="normal" text-decoration="none" x="200" y="510"></text><text fill="#eeeeee" stroke="none" font-family="Arial" font-size="24px" font-style="normal" font-weight="normal" text-decoration="none" x="200" y="540"></text><text fill="#eeeeee" stroke="none" font-family="Arial" font-size="24px" font-style="normal" font-weight="normal" text-decoration="none" x="400" y="0"></text><text fill="#eeeeee" stroke="none" font-family="Arial" font-size="24px" font-style="normal" font-weight="normal" text-decoration="none" x="400" y="30"></text><text fill="#eeeeee" stroke="none" font-family="Arial" font-size="24px" font-style="normal" font-weight="normal" text-decoration="none" x="400" y="60"></text><text fill="#eeeeee" stroke="none" font-family="Arial" font-size="24px" font-style="normal" font-weight="normal" text-decoration="none" x="400" y="90"></text><text fill="#eeeeee" stroke="none" font-family="Arial" font-size="24px" font-style="normal" font-weight="normal" text-decoration="none" x="400" y="120"></text><text fill="#eeeeee" stroke="none" font-family="Arial" font-size="24px" font-style="normal" font-weight="normal" text-decoration="none" x="400" y="150"></text><text fill="#eeeeee" stroke="none" font-family="Arial" font-size="24px" font-style="normal" font-weight="normal" text-decoration="none" x="400" y="180"></text><text fill="#eeeeee" stroke="none" font-family="Arial" font-size="24px" font-style="normal" font-weight="normal" text-decoration="none" x="400" y="210"></text><text fill="#eeeeee" stroke="none" font-family="Arial" font-size="24px" font-style="normal" font-weight="normal" text-decoration="none" x="400" y="240"></text><text fill="#eeeeee" stroke="none" font-family="Arial" font-size="24px" font-style="normal" font-weight="normal" text-decoration="none" x="400" y="270"></text><text fill="#eeeeee" stroke="none" font-family="Arial" font-size="24px" font-style="normal" font-weight="normal" text-decoration="none" x="400" y="300"></text><text fill="#eeeeee" stroke="none" font-family="Arial" font-size="24px" font-style="normal" font-weight="normal" text-decoration="none" x="400" y="330"></text><text fill="#eeeeee" stroke="none" font-family="Arial" font-size="24px" font-style="normal" font-weight="normal" text-decoration="none" x="400" y="360"></text><text fill="#eeeeee" stroke="none" font-family="Arial" font-size="24px" font-style="normal" font-weight="normal" text-decoration="none" x="400" y="390"></text><text fill="#eeeeee" stroke="none" font-family="Arial" font-size="24px" font-style="normal" font-weight="normal" text-decoration="none" x="400" y="420"></text><text fill="#eeeeee" stroke="none" font-family="Arial" font-size="24px" font-style="normal" font-weight="normal" text-decoration="none" x="400" y="450"></text><text fill="#eeeeee" stroke="none" font-family="Arial" font-size="24px" font-style="normal" font-weight="normal" text-decoration="none" x="400" y="480"></text><text fill="#eeeeee" stroke="none" font-family="Arial" font-size="24px" font-style="normal" font-weight="normal" text-decoration="none" x="400" y="510"></text><text fill="#eeeeee" stroke="none" font-family="Arial" font-size="24px" font-style="normal" font-weight="normal" text-decoration="none" x="400" y="540"></text><text fill="#eeeeee" stroke="none" font-family="Arial" font-size="24px" font-style="normal" font-weight="normal" text-decoration="none" x="600" y="0"></text><text fill="#eeeeee" stroke="none" font-family="Arial" font-size="24px" font-style="normal" font-weight="normal" text-decoration="none" x="600" y="30"></text><text fill="#eeeeee" stroke="none" font-family="Arial" font-size="24px" font-style="normal" font-weight="normal" text-decoration="none" x="600" y="60"></text><text fill="#eeeeee" stroke="none" font-family="Arial" font-size="24px" font-style="normal" font-weight="normal" text-decoration="none" x="600" y="90"></text><text fill="#eeeeee" stroke="none" font-family="Arial" font-size="24px" font-style="normal" font-weight="normal" text-decoration="none" x="600" y="120"></text><text fill="#eeeeee" stroke="none" font-family="Arial" font-size="24px" font-style="normal" font-weight="normal" text-decoration="none" x="600" y="150"></text><text fill="#eeeeee" stroke="none" font-family="Arial" font-size="24px" font-style="normal" font-weight="normal" text-decoration="none" x="600" y="180"></text><text fill="#eeeeee" stroke="none" font-family="Arial" font-size="24px" font-style="normal" font-weight="normal" text-decoration="none" x="600" y="210"></text><text fill="#eeeeee" stroke="none" font-family="Arial" font-size="24px" font-style="normal" font-weight="normal" text-decoration="none" x="600" y="240"></text><text fill="#eeeeee" stroke="none" font-family="Arial" font-size="24px" font-style="normal" font-weight="normal" text-decoration="none" x="600" y="270"></text><text fill="#eeeeee" stroke="none" font-family="Arial" font-size="24px" font-style="normal" font-weight="normal" text-decoration="none" x="600" y="300"></text><text fill="#eeeeee" stroke="none" font-family="Arial" font-size="24px" font-style="normal" font-weight="normal" text-decoration="none" x="600" y="330"></text><text fill="#eeeeee" stroke="none" font-family="Arial" font-size="24px" font-style="normal" font-weight="normal" text-decoration="none" x="600" y="360"></text><text fill="#eeeeee" stroke="none" font-family="Arial" font-size="24px" font-style="normal" font-weight="normal" text-decoration="none" x="600" y="390"></text><text fill="#eeeeee" stroke="none" font-family="Arial" font-size="24px" font-style="normal" font-weight="normal" text-decoration="none" x="600" y="420"></text><text fill="#eeeeee" stroke="none" font-family="Arial" font-size="24px" font-style="normal" font-weight="normal" text-decoration="none" x="600" y="450"></text><text fill="#eeeeee" stroke="none" font-family="Arial" font-size="24px" font-style="normal" font-weight="normal" text-decoration="none" x="600" y="480"></text><text fill="#eeeeee" stroke="none" font-family="Arial" font-size="24px" font-style="normal" font-weight="normal" text-decoration="none" x="600" y="510"></text><text fill="#eeeeee" stroke="none" font-family="Arial" font-size="24px" font-style="normal" font-weight="normal" text-decoration="none" x="600" y="540"></text><text fill="#eeeeee" stroke="none" font-family="Arial" font-size="24px" font-style="normal" font-weight="normal" text-decoration="none" x="800" y="0"></text><text fill="#eeeeee" stroke="none" font-family="Arial" font-size="24px" font-style="normal" font-weight="normal" text-decoration="none" x="800" y="30"></text><text fill="#eeeeee" stroke="none" font-family="Arial" font-size="24px" font-style="normal" font-weight="normal" text-decoration="none" x="800" y="60"></text><text fill="#eeeeee" stroke="none" font-family="Arial" font-size="24px" font-style="normal" font-weight="normal" text-decoration="none" x="800" y="90"></text><text fill="#eeeeee" stroke="none" font-family="Arial" font-size="24px" font-style="normal" font-weight="normal" text-decoration="none" x="800" y="120"></text><text fill="#eeeeee" stroke="none" font-family="Arial" font-size="24px" font-style="normal" font-weight="normal" text-decoration="none" x="800" y="150"></text><text fill="#eeeeee" stroke="none" font-family="Arial" font-size="24px" font-style="normal" font-weight="normal" text-decoration="none" x="800" y="180"></text><text fill="#eeeeee" stroke="none" font-family="Arial" font-size="24px" font-style="normal" font-weight="normal" text-decoration="none" x="800" y="210"></text><text fill="#eeeeee" stroke="none" font-family="Arial" font-size="24px" font-style="normal" font-weight="normal" text-decoration="none" x="800" y="240"></text><text fill="#eeeeee" stroke="none" font-family="Arial" font-size="24px" font-style="normal" font-weight="normal" text-decoration="none" x="800" y="270"></text><text fill="#eeeeee" stroke="none" font-family="Arial" font-size="24px" font-style="normal" font-weight="normal" text-decoration="none" x="800" y="300"></text><text fill="#eeeeee" stroke="none" font-family="Arial" font-size="24px" font-style="normal" font-weight="normal" text-decoration="none" x="800" y="330"></text><text fill="#eeeeee" stroke="none" font-family="Arial" font-size="24px" font-style="normal" font-weight="normal" text-decoration="none" x="800" y="360"></text><text fill="#eeeeee" stroke="none" font-family="Arial" font-size="24px" font-style="normal" font-weight="normal" text-decoration="none" x="800" y="390"></text><text fill="#eeeeee" stroke="none" font-family="Arial" font-size="24px" font-style="normal" font-weight="normal" text-decoration="none" x="800" y="420"></text><text fill="#eeeeee" stroke="none" font-family="Arial" font-size="24px" font-style="normal" font-weight="normal" text-decoration="none" x="800" y="450"></text><text fill="#eeeeee" stroke="none" font-family="Arial" font-size="24px" font-style="normal" font-weight="normal" text-decoration="none" x="800" y="480"></text><text fill="#eeeeee" stroke="none" font-family="Arial" font-size="24px" font-style="normal" font-weight="normal" text-decoration="none" x="800" y="510"></text><text fill="#eeeeee" stroke="none" font-family="Arial" font-size="24px" font-style="normal" font-weight="normal" text-decoration="none" x="800" y="540"></text><g transform="translate(-46,-54) scale(1,1)"><rect fill="#C0C0C0" stroke="none" x="71" y="215" width="144" height="132" opacity="0.2"/></g><g transform="translate(-46,-54) scale(1,1)"><rect fill="#ffffff" stroke="none" x="64" y="208" width="144" height="132"/></g><g transform="translate(-46,-54) scale(1,1)"><path fill="none" stroke="#000000" d="M 64 208 L 208 208 L 208 340 L 64 340 L 64 208 Z Z" stroke-miterlimit="10"/></g><g transform="translate(-46,-54) scale(1,1)"><path fill="none" stroke="#000000" d="M 64 233 L 208 233" stroke-miterlimit="10"/></g><g transform="translate(-46,-54) scale(1,1)"><path fill="none" stroke="#000000" d="M 64 331 L 208 331" stroke-miterlimit="10"/></g><g transform="translate(-46,-54) scale(1,1)"><g><path fill="none" stroke="none"/><text fill="#000000" stroke="none" font-family="Arial" font-size="13px" font-style="normal" font-weight="bold" text-decoration="none" x="77.85546875" y="226">project suggestion</text></g></g><g transform="translate(-46,-54) scale(1,1)"><g><path fill="none" stroke="none"/><text fill="#000000" stroke="none" font-family="Arial" font-size="13px" font-style="normal" font-weight="normal" text-decoration="none" x="69" y="249">+project id</text></g></g><g transform="translate(-46,-54) scale(1,1)"><g><path fill="none" stroke="none"/><text fill="#000000" stroke="none" font-family="Arial" font-size="13px" font-style="normal" font-weight="normal" text-decoration="none" x="69" y="264">+project  title</text></g></g><g transform="translate(-46,-54) scale(1,1)"><g><path fill="none" stroke="none"/><text fill="#000000" stroke="none" font-family="Arial" font-size="13px" font-style="normal" font-weight="normal" text-decoration="none" x="69" y="279">+project description</text></g></g><g transform="translate(-46,-54) scale(1,1)"><g><path fill="none" stroke="none"/><text fill="#000000" stroke="none" font-family="Arial" font-size="13px" font-style="normal" font-weight="normal" text-decoration="none" x="69" y="294">+project goal</text></g></g><g transform="translate(-46,-54) scale(1,1)"><g><path fill="none" stroke="none"/><text fill="#000000" stroke="none" font-family="Arial" font-size="13px" font-style="normal" font-weight="normal" text-decoration="none" x="69" y="309">+project department</text></g></g><g transform="translate(-46,-54) scale(1,1)"><g><path fill="none" stroke="none"/><text fill="#000000" stroke="none" font-family="Arial" font-size="13px" font-style="normal" font-weight="normal" text-decoration="none" x="69" y="324">+supervisor id</text></g></g><g transform="translate(-46,-54) scale(1,1)"><rect fill="#C0C0C0" stroke="none" x="263" y="487" width="159.6689453125" height="132" opacity="0.2"/></g><g transform="translate(-46,-54) scale(1,1)"><rect fill="#ffffff" stroke="none" x="256" y="480" width="159.6689453125" height="132"/></g><g transform="translate(-46,-54) scale(1,1)"><path fill="none" stroke="#000000" d="M 256 480 L 415.6689453125 480 L 415.6689453125 612 L 256 612 L 256 480 Z Z" stroke-miterlimit="10"/></g><g transform="translate(-46,-54) scale(1,1)"><path fill="none" stroke="#000000" d="M 256 505 L 415.6689453125 505" stroke-miterlimit="10"/></g><g transform="translate(-46,-54) scale(1,1)"><path fill="none" stroke="#000000" d="M 256 603 L 415.6689453125 603" stroke-miterlimit="10"/></g><g transform="translate(-46,-54) scale(1,1)"><g><path fill="none" stroke="none"/><text fill="#000000" stroke="none" font-family="Arial" font-size="13px" font-style="normal" font-weight="bold" text-decoration="none" x="280.92724609375" y="498">registered project</text></g></g><g transform="translate(-46,-54) scale(1,1)"><g><path fill="none" stroke="none"/><text fill="#000000" stroke="none" font-family="Arial" font-size="13px" font-style="normal" font-weight="normal" text-decoration="none" x="261" y="521">+project id</text></g></g><g transform="translate(-46,-54) scale(1,1)"><g><path fill="none" stroke="none"/><text fill="#000000" stroke="none" font-family="Arial" font-size="13px" font-style="normal" font-weight="normal" text-decoration="none" x="261" y="536">+project title</text></g></g><g transform="translate(-46,-54) scale(1,1)"><g><path fill="none" stroke="none"/><text fill="#000000" stroke="none" font-family="Arial" font-size="13px" font-style="normal" font-weight="normal" text-decoration="none" x="261" y="551">+project department</text></g></g><g transform="translate(-46,-54) scale(1,1)"><g><path fill="none" stroke="none"/><text fill="#000000" stroke="none" font-family="Arial" font-size="13px" font-style="normal" font-weight="normal" text-decoration="none" x="261" y="566">+project description</text></g></g><g transform="translate(-46,-54) scale(1,1)"><g><path fill="none" stroke="none"/><text fill="#000000" stroke="none" font-family="Arial" font-size="13px" font-style="normal" font-weight="normal" text-decoration="none" x="261" y="581">+project goal</text></g></g><g transform="translate(-46,-54) scale(1,1)"><g><path fill="none" stroke="none"/><text fill="#000000" stroke="none" font-family="Arial" font-size="13px" font-style="normal" font-weight="normal" text-decoration="none" x="261" y="596">+team id</text></g></g><g transform="translate(-46,-54) scale(1,1)"><rect fill="#C0C0C0" stroke="none" x="455" y="255" width="156.77978515625" height="100" opacity="0.2"/></g><g transform="translate(-46,-54) scale(1,1)"><rect fill="#ffffff" stroke="none" x="448" y="248" width="156.77978515625" height="100"/></g><g transform="translate(-46,-54) scale(1,1)"><path fill="none" stroke="#000000" d="M 448 248 L 604.77978515625 248 L 604.77978515625 348 L 448 348 L 448 248 Z Z" stroke-miterlimit="10"/></g><g transform="translate(-46,-54) scale(1,1)"><path fill="none" stroke="#000000" d="M 448 273 L 604.77978515625 273" stroke-miterlimit="10"/></g><g transform="translate(-46,-54) scale(1,1)"><path fill="none" stroke="#000000" d="M 448 311 L 604.77978515625 311" stroke-miterlimit="10"/></g><g transform="translate(-46,-54) scale(1,1)"><g><path fill="none" stroke="none"/><text fill="#000000" stroke="none" font-family="Arial" font-size="13px" font-style="normal" font-weight="bold" text-decoration="none" x="502.91943359375" y="266">student</text></g></g><g transform="translate(-46,-54) scale(1,1)"><g><path fill="none" stroke="none"/><text fill="#000000" stroke="none" font-family="Arial" font-size="13px" font-style="normal" font-weight="normal" text-decoration="none" x="453" y="289">+completed hours</text></g></g><g transform="translate(-46,-54) scale(1,1)"><g><path fill="none" stroke="none"/><text fill="#000000" stroke="none" font-family="Arial" font-size="13px" font-style="normal" font-weight="normal" text-decoration="none" x="453" y="304">+GPA</text></g></g><g transform="translate(-46,-54) scale(1,1)"><g><path fill="none" stroke="none"/><text fill="#000000" stroke="none" font-family="Arial" font-size="13px" font-style="normal" font-weight="normal" text-decoration="none" x="453" y="327">+register request()</text></g></g><g transform="translate(-46,-54) scale(1,1)"><g><path fill="none" stroke="none"/><text fill="#000000" stroke="none" font-family="Arial" font-size="13px" font-style="normal" font-weight="normal" text-decoration="none" x="453" y="342">+accept to send request()</text></g></g><g transform="translate(-46,-54) scale(1,1)"><rect fill="#C0C0C0" stroke="none" x="287" y="335" width="114.919921875" height="80" opacity="0.2"/></g><g transform="translate(-46,-54) scale(1,1)"><rect fill="#ffffff" stroke="none" x="280" y="328" width="114.919921875" height="80"/></g><g transform="translate(-46,-54) scale(1,1)"><path fill="none" stroke="#000000" d="M 280 328 L 394.919921875 328 L 394.919921875 408 L 280 408 L 280 328 Z Z" stroke-miterlimit="10"/></g><g transform="translate(-46,-54) scale(1,1)"><path fill="none" stroke="#000000" d="M 280 353 L 394.919921875 353" stroke-miterlimit="10"/></g><g transform="translate(-46,-54) scale(1,1)"><path fill="none" stroke="#000000" d="M 280 391 L 394.919921875 391" stroke-miterlimit="10"/></g><g transform="translate(-46,-54) scale(1,1)"><g><path fill="none" stroke="none"/><text fill="#000000" stroke="none" font-family="Arial" font-size="13px" font-style="normal" font-weight="bold" text-decoration="none" x="322.285888671875" y="345.5">team</text></g></g><g transform="translate(-46,-54) scale(1,1)"><g><path fill="none" stroke="none"/><text fill="#000000" stroke="none" font-family="Arial" font-size="13px" font-style="normal" font-weight="normal" text-decoration="none" x="285" y="369">+students id</text></g></g><g transform="translate(-46,-54) scale(1,1)"><g><path fill="none" stroke="none"/><text fill="#000000" stroke="none" font-family="Arial" font-size="13px" font-style="normal" font-weight="normal" text-decoration="none" x="285" y="384">+team id</text></g></g><g transform="translate(-46,-54) scale(1,1)"><rect fill="#C0C0C0" stroke="none" x="639" y="311" width="144" height="96" opacity="0.2"/></g><g transform="translate(-46,-54) scale(1,1)"><rect fill="#ffffff" stroke="none" x="632" y="304" width="144" height="96"/></g><g transform="translate(-46,-54) scale(1,1)"><path fill="none" stroke="#000000" d="M 632 304 L 776 304 L 776 400 L 632 400 L 632 304 Z Z" stroke-miterlimit="10"/></g><g transform="translate(-46,-54) scale(1,1)"><path fill="none" stroke="#000000" d="M 632 329 L 776 329" stroke-miterlimit="10"/></g><g transform="translate(-46,-54) scale(1,1)"><path fill="none" stroke="#000000" d="M 632 339 L 776 339" stroke-miterlimit="10"/></g><g transform="translate(-46,-54) scale(1,1)"><g><path fill="none" stroke="none"/><text fill="#000000" stroke="none" font-family="Arial" font-size="13px" font-style="normal" font-weight="bold" text-decoration="none" x="670.763671875" y="322">supervisor</text></g></g><g transform="translate(-46,-54) scale(1,1)"><g><path fill="none" stroke="none"/><text fill="#000000" stroke="none" font-family="Arial" font-size="13px" font-style="normal" font-weight="normal" text-decoration="none" x="637" y="355">+accept request()</text></g></g><g transform="translate(-46,-54) scale(1,1)"><g><path fill="none" stroke="none"/><text fill="#000000" stroke="none" font-family="Arial" font-size="13px" font-style="normal" font-weight="normal" text-decoration="none" x="637" y="370">+reject request()</text></g></g><g transform="translate(-46,-54) scale(1,1)"><rect fill="#C0C0C0" stroke="none" x="663" y="79" width="120" height="102" opacity="0.2"/></g><g transform="translate(-46,-54) scale(1,1)"><rect fill="#ffffff" stroke="none" x="656" y="72" width="120" height="102"/></g><g transform="translate(-46,-54) scale(1,1)"><path fill="none" stroke="#000000" d="M 656 72 L 776 72 L 776 174 L 656 174 L 656 72 Z Z" stroke-miterlimit="10"/></g><g transform="translate(-46,-54) scale(1,1)"><path fill="none" stroke="#000000" d="M 656 97 L 776 97" stroke-miterlimit="10"/></g><g transform="translate(-46,-54) scale(1,1)"><path fill="none" stroke="#000000" d="M 656 150 L 776 150" stroke-miterlimit="10"/></g><g transform="translate(-46,-54) scale(1,1)"><g><path fill="none" stroke="none"/><text fill="#000000" stroke="none" font-family="Arial" font-size="13px" font-style="normal" font-weight="bold" text-decoration="none" x="702.27001953125" y="88.5">user</text></g></g><g transform="translate(-46,-54) scale(1,1)"><g><path fill="none" stroke="none"/><text fill="#000000" stroke="none" font-family="Arial" font-size="13px" font-style="normal" font-weight="normal" text-decoration="none" x="661" y="113">+university id</text></g></g><g transform="translate(-46,-54) scale(1,1)"><g><path fill="none" stroke="none"/><text fill="#000000" stroke="none" font-family="Arial" font-size="13px" font-style="normal" font-weight="normal" text-decoration="none" x="661" y="128">+first name</text></g></g><g transform="translate(-46,-54) scale(1,1)"><g><path fill="none" stroke="none"/><text fill="#000000" stroke="none" font-family="Arial" font-size="13px" font-style="normal" font-weight="normal" text-decoration="none" x="661" y="143">+last name</text></g></g><g transform="translate(-46,-54) scale(1,1)"><rect fill="#C0C0C0" stroke="none" x="807" y="367" width="128" height="88" opacity="0.2"/></g><g transform="translate(-46,-54) scale(1,1)"><rect fill="#ffffff" stroke="none" x="800" y="360" width="128" height="88"/></g><g transform="translate(-46,-54) scale(1,1)"><path fill="none" stroke="#000000" d="M 800 360 L 928 360 L 928 448 L 800 448 L 800 360 Z Z" stroke-miterlimit="10"/></g><g transform="translate(-46,-54) scale(1,1)"><path fill="none" stroke="#000000" d="M 800 385 L 928 385" stroke-miterlimit="10"/></g><g transform="translate(-46,-54) scale(1,1)"><path fill="none" stroke="#000000" d="M 800 395 L 928 395" stroke-miterlimit="10"/></g><g transform="translate(-46,-54) scale(1,1)"><g><path fill="none" stroke="none"/><text fill="#000000" stroke="none" font-family="Arial" font-size="13px" font-style="normal" font-weight="bold" text-decoration="none" x="834.013671875" y="378">employee</text></g></g><g transform="translate(-46,-54) scale(1,1)"><g><path fill="none" stroke="none"/><text fill="#000000" stroke="none" font-family="Arial" font-size="13px" font-style="normal" font-weight="normal" text-decoration="none" x="805" y="411">+conform process()</text></g></g><g transform="translate(-46,-54) scale(1,1)"><rect fill="#C0C0C0" stroke="none" x="151" y="87" width="119.04638671875" height="102" opacity="0.2"/></g><g transform="translate(-46,-54) scale(1,1)"><rect fill="#ffffff" stroke="none" x="144" y="80" width="119.04638671875" height="102"/></g><g transform="translate(-46,-54) scale(1,1)"><path fill="none" stroke="#000000" d="M 144 80 L 263.04638671875 80 L 263.04638671875 182 L 144 182 L 144 80 Z Z" stroke-miterlimit="10"/></g><g transform="translate(-46,-54) scale(1,1)"><path fill="none" stroke="#000000" d="M 144 105 L 263.04638671875 105" stroke-miterlimit="10"/></g><g transform="translate(-46,-54) scale(1,1)"><path fill="none" stroke="#000000" d="M 144 173 L 263.04638671875 173" stroke-miterlimit="10"/></g><g transform="translate(-46,-54) scale(1,1)"><g><path fill="none" stroke="none"/><text fill="#000000" stroke="none" font-family="Arial" font-size="13px" font-style="normal" font-weight="bold" text-decoration="none" x="168.5" y="98">notification</text></g></g><g transform="translate(-46,-54) scale(1,1)"><g><path fill="none" stroke="none"/><text fill="#000000" stroke="none" font-family="Arial" font-size="13px" font-style="normal" font-weight="normal" text-decoration="none" x="149" y="121">+time</text></g></g><g transform="translate(-46,-54) scale(1,1)"><g><path fill="none" stroke="none"/><text fill="#000000" stroke="none" font-family="Arial" font-size="13px" font-style="normal" font-weight="normal" text-decoration="none" x="149" y="136">+sender</text></g></g><g transform="translate(-46,-54) scale(1,1)"><g><path fill="none" stroke="none"/><text fill="#000000" stroke="none" font-family="Arial" font-size="13px" font-style="normal" font-weight="normal" text-decoration="none" x="149" y="151">+reciever</text></g></g><g transform="translate(-46,-54) scale(1,1)"><g><path fill="none" stroke="none"/><text fill="#000000" stroke="none" font-family="Arial" font-size="13px" font-style="normal" font-weight="normal" text-decoration="none" x="149" y="165.5">+text</text></g></g><g transform="translate(-46,-54) scale(1,1)"><rect fill="#C0C0C0" stroke="none" x="359" y="71" width="128.142578125" height="130" opacity="0.2"/></g><g transform="translate(-46,-54) scale(1,1)"><rect fill="#ffffff" stroke="none" x="352" y="64" width="128.142578125" height="130"/></g><g transform="translate(-46,-54) scale(1,1)"><path fill="none" stroke="#000000" d="M 352 64 L 480.142578125 64 L 480.142578125 194 L 352 194 L 352 64 Z Z" stroke-miterlimit="10"/></g><g transform="translate(-46,-54) scale(1,1)"><path fill="none" stroke="#000000" d="M 352 89 L 480.142578125 89" stroke-miterlimit="10"/></g><g transform="translate(-46,-54) scale(1,1)"><path fill="none" stroke="#000000" d="M 352 172 L 480.142578125 172" stroke-miterlimit="10"/></g><g transform="translate(-46,-54) scale(1,1)"><g><path fill="none" stroke="none"/><text fill="#000000" stroke="none" font-family="Arial" font-size="13px" font-style="normal" font-weight="bold" text-decoration="none" x="391.150390625" y="81.5">account</text></g></g><g transform="translate(-46,-54) scale(1,1)"><g><path fill="none" stroke="none"/><text fill="#000000" stroke="none" font-family="Arial" font-size="13px" font-style="normal" font-weight="normal" text-decoration="none" x="357" y="105">+user id</text></g></g><g transform="translate(-46,-54) scale(1,1)"><g><path fill="none" stroke="none"/><text fill="#000000" stroke="none" font-family="Arial" font-size="13px" font-style="normal" font-weight="normal" text-decoration="none" x="357" y="119">+user name</text></g></g><g transform="translate(-46,-54) scale(1,1)"><g><path fill="none" stroke="none"/><text fill="#000000" stroke="none" font-family="Arial" font-size="13px" font-style="normal" font-weight="normal" text-decoration="none" x="357" y="135">+profile photo</text></g></g><g transform="translate(-46,-54) scale(1,1)"><g><path fill="none" stroke="none"/><text fill="#000000" stroke="none" font-family="Arial" font-size="13px" font-style="normal" font-weight="normal" text-decoration="none" x="357" y="150">+email</text></g></g><g transform="translate(-46,-54) scale(1,1)"><g><path fill="none" stroke="none"/><text fill="#000000" stroke="none" font-family="Arial" font-size="13px" font-style="normal" font-weight="normal" text-decoration="none" x="357" y="165">+password</text></g></g><g transform="translate(-46,-54) scale(1,1)"><g><path fill="none" stroke="none"/><text fill="#000000" stroke="none" font-family="Arial" font-size="13px" font-style="normal" font-weight="normal" text-decoration="none" x="357" y="188">+create()</text></g></g><g transform="translate(-46,-54) scale(1,1)"><rect fill="#C0C0C0" stroke="none" x="63" y="415" width="160" height="117" opacity="0.2"/></g><g transform="translate(-46,-54) scale(1,1)"><rect fill="#ffffff" stroke="none" x="56" y="408" width="160" height="117"/></g><g transform="translate(-46,-54) scale(1,1)"><path fill="none" stroke="#000000" d="M 56 408 L 216 408 L 216 525 L 56 525 L 56 408 Z Z" stroke-miterlimit="10"/></g><g transform="translate(-46,-54) scale(1,1)"><path fill="none" stroke="#000000" d="M 56 433 L 216 433" stroke-miterlimit="10"/></g><g transform="translate(-46,-54) scale(1,1)"><path fill="none" stroke="#000000" d="M 56 516 L 216 516" stroke-miterlimit="10"/></g><g transform="translate(-46,-54) scale(1,1)"><g><path fill="none" stroke="none"/><text fill="#000000" stroke="none" font-family="Arial" font-size="13px" font-style="normal" font-weight="bold" text-decoration="none" x="112.52001953125" y="425.5">request</text></g></g><g transform="translate(-46,-54) scale(1,1)"><g><path fill="none" stroke="none"/><text fill="#000000" stroke="none" font-family="Arial" font-size="13px" font-style="normal" font-weight="normal" text-decoration="none" x="61" y="449">+request id</text></g></g><g transform="translate(-46,-54) scale(1,1)"><g><path fill="none" stroke="none"/><text fill="#000000" stroke="none" font-family="Arial" font-size="13px" font-style="normal" font-weight="normal" text-decoration="none" x="61" y="464">+project</text></g></g><g transform="translate(-46,-54) scale(1,1)"><g><path fill="none" stroke="none"/><text fill="#000000" stroke="none" font-family="Arial" font-size="13px" font-style="normal" font-weight="normal" text-decoration="none" x="61" y="478.5">+team</text></g></g><g transform="translate(-46,-54) scale(1,1)"><g><path fill="none" stroke="none"/><text fill="#000000" stroke="none" font-family="Arial" font-size="13px" font-style="normal" font-weight="normal" text-decoration="none" x="61" y="494">+supervisor</text></g></g><g transform="translate(-46,-54) scale(1,1)"><g><path fill="none" stroke="none"/><text fill="#000000" stroke="none" font-family="Arial" font-size="13px" font-style="normal" font-weight="normal" text-decoration="none" x="61" y="508">+response</text></g></g><g transform="translate(-46,-54) scale(1,1)"><rect fill="#C0C0C0" stroke="none" x="519" y="455" width="143.7607421875" height="100" opacity="0.2"/></g><g transform="translate(-46,-54) scale(1,1)"><rect fill="#ffffff" stroke="none" x="512" y="448" width="143.7607421875" height="100"/></g><g transform="translate(-46,-54) scale(1,1)"><path fill="none" stroke="#000000" d="M 512 448 L 655.7607421875 448 L 655.7607421875 548 L 512 548 L 512 448 Z Z" stroke-miterlimit="10"/></g><g transform="translate(-46,-54) scale(1,1)"><path fill="none" stroke="#000000" d="M 512 473 L 655.7607421875 473" stroke-miterlimit="10"/></g><g transform="translate(-46,-54) scale(1,1)"><path fill="none" stroke="#000000" d="M 512 496 L 655.7607421875 496" stroke-miterlimit="10"/></g><g transform="translate(-46,-54) scale(1,1)"><g><path fill="none" stroke="none"/><text fill="#000000" stroke="none" font-family="Arial" font-size="13px" font-style="normal" font-weight="bold" text-decoration="none" x="551.01220703125" y="466">project list</text></g></g><g transform="translate(-46,-54) scale(1,1)"><g><path fill="none" stroke="none"/><text fill="#000000" stroke="none" font-family="Arial" font-size="13px" font-style="normal" font-weight="normal" text-decoration="none" x="517" y="489">+registered projects</text></g></g><g transform="translate(-46,-54) scale(1,1)"><g><path fill="none" stroke="none"/><text fill="#000000" stroke="none" font-family="Arial" font-size="13px" font-style="normal" font-weight="normal" text-decoration="none" x="517" y="512">+filter_by_department()</text></g></g><g transform="translate(-46,-54) scale(1,1)"><g><path fill="none" stroke="none"/><text fill="#000000" stroke="none" font-family="Arial" font-size="13px" font-style="normal" font-weight="normal" text-decoration="none" x="517" y="527">+filter_by_superviser()</text></g></g><g transform="translate(-46,-54) scale(1,1)"><g><path fill="none" stroke="none"/><text fill="#000000" stroke="none" font-family="Arial" font-size="13px" font-style="normal" font-weight="normal" text-decoration="none" x="517" y="542">+display()</text></g></g><g transform="translate(-46,-54) scale(1,1)"><path fill="none" stroke="#000000" d="M 581 247 L 660 175" stroke-miterlimit="10"/></g><g transform="translate(-46,-54) scale(1,1)"><path fill="#FFFFFF" stroke="none" d="M 650.6487723679606 194.91367725393238 L 660 175 L 639.30658730435 182.46877975358188"/></g><g transform="translate(-46,-54) scale(1,1)"><path fill="none" stroke="#000000" d="M 650.6487723679606 194.91367725393238 L 660 175 L 639.30658730435 182.46877975358188 L 650.6487723679606 194.91367725393238" stroke-miterlimit="10"/></g><g transform="translate(-46,-54) scale(1,1)"><path fill="none" stroke="#000000" d="M 707 303 L 713 175" stroke-miterlimit="10"/></g><g transform="translate(-46,-54) scale(1,1)"><path fill="#FFFFFF" stroke="none" d="M 720.4580955316603 195.6972657865871 L 713 175 L 703.638492935458 194.90884691489012"/></g><g transform="translate(-46,-54) scale(1,1)"><path fill="none" stroke="#000000" d="M 720.4580955316603 195.6972657865871 L 713 175 L 703.638492935458 194.90884691489012 L 720.4580955316603 195.6972657865871" stroke-miterlimit="10"/></g><g transform="translate(-46,-54) scale(1,1)"><path fill="none" stroke="#000000" d="M 840 359 L 743 175" stroke-miterlimit="10"/></g><g transform="translate(-46,-54) scale(1,1)"><path fill="#FFFFFF" stroke="none" d="M 759.9260613902909 189.0537698078524 L 743 175 L 745.0310168554873 196.9060487202217"/></g><g transform="translate(-46,-54) scale(1,1)"><path fill="none" stroke="#000000" d="M 759.9260613902909 189.0537698078524 L 743 175 L 745.0310168554873 196.9060487202217 L 759.9260613902909 189.0537698078524" stroke-miterlimit="10"/></g><g transform="translate(-46,-54) scale(1,1)"><path fill="none" stroke="#000000" d="M 655 124 L 481 128" stroke-miterlimit="10"/></g><g transform="translate(-46,-54) scale(1,1)"><path fill="#000000" stroke="none" d="M 491.0632456169828 123.55803110633624 L 481 128 L 491.2567355430437 131.97484288998498 L 502.99418911770107 127.49438645706434"/></g><g transform="translate(-46,-54) scale(1,1)"><path fill="none" stroke="#000000" d="M 491.0632456169828 123.55803110633624 L 481 128 L 491.2567355430437 131.97484288998498 L 502.99418911770107 127.49438645706434 L 491.0632456169828 123.55803110633624" stroke-miterlimit="10"/></g><g transform="translate(-46,-54) scale(1,1)"><path fill="none" stroke="#000000" d="M 351 130 L 264 130" stroke-miterlimit="10"/></g><g transform="translate(-46,-54) scale(1,1)"><path fill="none" stroke="#000000" d="M 136 341 L 136 407" stroke-miterlimit="10"/></g><g transform="translate(-46,-54) scale(1,1)"><g><path fill="none" stroke="none"/><text fill="#000000" stroke="none" font-family="Arial" font-size="13px" font-style="normal" font-weight="normal" text-decoration="none" x="119.5" y="367">1</text></g></g><g transform="translate(-46,-54) scale(1,1)"><g><path fill="none" stroke="none"/><text fill="#000000" stroke="none" font-family="Arial" font-size="13px" font-style="normal" font-weight="normal" text-decoration="none" x="119.5" y="390">1</text></g></g><g transform="translate(-46,-54) scale(1,1)"><path fill="none" stroke="#000000" d="M 279 396 L 217 427" stroke-miterlimit="10"/></g><g transform="translate(-46,-54) scale(1,1)"><g><path fill="none" stroke="none"/><text fill="#000000" stroke="none" font-family="Arial" font-size="13px" font-style="normal" font-weight="normal" text-decoration="none" x="250.5" y="399">1</text></g></g><g transform="translate(-46,-54) scale(1,1)"><g><path fill="none" stroke="none"/><text fill="#000000" stroke="none" font-family="Arial" font-size="13px" font-style="normal" font-weight="normal" text-decoration="none" x="220.5" y="411">1..*</text></g></g><g transform="translate(-46,-54) scale(1,1)"><path fill="none" stroke="#000000" d="M 447 327 L 396 346" stroke-miterlimit="10"/></g><g transform="translate(-46,-54) scale(1,1)"><g><path fill="none" stroke="none"/><text fill="#000000" stroke="none" font-family="Arial" font-size="13px" font-style="normal" font-weight="normal" text-decoration="none" x="423.5" y="326">1..*</text></g></g><g transform="translate(-46,-54) scale(1,1)"><g><path fill="none" stroke="none"/><text fill="#000000" stroke="none" font-family="Arial" font-size="13px" font-style="normal" font-weight="normal" text-decoration="none" x="399.5" y="339">1</text></g></g><g transform="translate(-46,-54) scale(1,1)"><path fill="none" stroke="#000000" d="M 337 409 L 336 479" stroke-miterlimit="10"/></g><g transform="translate(-46,-54) scale(1,1)"><g><path fill="none" stroke="none"/><text fill="#000000" stroke="none" font-family="Arial" font-size="13px" font-style="normal" font-weight="normal" text-decoration="none" x="320.5" y="435">1</text></g></g><g transform="translate(-46,-54) scale(1,1)"><g><path fill="none" stroke="none"/><text fill="#000000" stroke="none" font-family="Arial" font-size="13px" font-style="normal" font-weight="normal" text-decoration="none" x="319.5" y="462">1</text></g></g><g transform="translate(-46,-54) scale(1,1)"><path fill="none" stroke="#000000" d="M 511 512 L 417 530" stroke-miterlimit="10"/></g><g transform="translate(-46,-54) scale(1,1)"><g><path fill="none" stroke="none"/><text fill="#000000" stroke="none" font-family="Arial" font-size="13px" font-style="normal" font-weight="normal" text-decoration="none" x="440.5" y="533">+contain</text></g></g><g transform="translate(-46,-54) scale(1,1)"><g><path fill="none" stroke="none"/><text fill="#000000" stroke="none" font-family="Arial" font-size="13px" font-style="normal" font-weight="normal" text-decoration="none" x="483.726806640625" y="508">1</text></g></g><g transform="translate(-46,-54) scale(1,1)"><g><path fill="none" stroke="none"/><text fill="#000000" stroke="none" font-family="Arial" font-size="13px" font-style="normal" font-weight="normal" text-decoration="none" x="424.74365234375" y="522">1..*</text></g></g></g></svg>