<svg version="1.1" xmlns="http://www.w3.org/2000/svg" xmlns:xlink="http://www.w3.org/1999/xlink" width="453" height="365"><defs/><g><text fill="#eeeeee" stroke="none" font-family="Arial" font-size="24px" font-style="normal" font-weight="normal" text-decoration="none" x="0" y="0"></text><text fill="#eeeeee" stroke="none" font-family="Arial" font-size="24px" font-style="normal" font-weight="normal" text-decoration="none" x="0" y="30"></text><text fill="#eeeeee" stroke="none" font-family="Arial" font-size="24px" font-style="normal" font-weight="normal" text-decoration="none" x="0" y="60"></text><text fill="#eeeeee" stroke="none" font-family="Arial" font-size="24px" font-style="normal" font-weight="normal" text-decoration="none" x="0" y="90"></text><text fill="#eeeeee" stroke="none" font-family="Arial" font-size="24px" font-style="normal" font-weight="normal" text-decoration="none" x="0" y="120"></text><text fill="#eeeeee" stroke="none" font-family="Arial" font-size="24px" font-style="normal" font-weight="normal" text-decoration="none" x="0" y="150"></text><text fill="#eeeeee" stroke="none" font-family="Arial" font-size="24px" font-style="normal" font-weight="normal" text-decoration="none" x="0" y="180"></text><text fill="#eeeeee" stroke="none" font-family="Arial" font-size="24px" font-style="normal" font-weight="normal" text-decoration="none" x="0" y="210"></text><text fill="#eeeeee" stroke="none" font-family="Arial" font-size="24px" font-style="normal" font-weight="normal" text-decoration="none" x="0" y="240"></text><text fill="#eeeeee" stroke="none" font-family="Arial" font-size="24px" font-style="normal" font-weight="normal" text-decoration="none" x="0" y="270"></text><text fill="#eeeeee" stroke="none" font-family="Arial" font-size="24px" font-style="normal" font-weight="normal" text-decoration="none" x="0" y="300"></text><text fill="#eeeeee" stroke="none" font-family="Arial" font-size="24px" font-style="normal" font-weight="normal" text-decoration="none" x="0" y="330"></text><text fill="#eeeeee" stroke="none" font-family="Arial" font-size="24px" font-style="normal" font-weight="normal" text-decoration="none" x="0" y="360"></text><text fill="#eeeeee" stroke="none" font-family="Arial" font-size="24px" font-style="normal" font-weight="normal" text-decoration="none" x="200" y="0"></text><text fill="#eeeeee" stroke="none" font-family="Arial" font-size="24px" font-style="normal" font-weight="normal" text-decoration="none" x="200" y="30"></text><text fill="#eeeeee" stroke="none" font-family="Arial" font-size="24px" font-style="normal" font-weight="normal" text-decoration="none" x="200" y="60"></text><text fill="#eeeeee" stroke="none" font-family="Arial" font-size="24px" font-style="normal" font-weight="normal" text-decoration="none" x="200" y="90"></text><text fill="#eeeeee" stroke="none" font-family="Arial" font-size="24px" font-style="normal" font-weight="normal" text-decoration="none" x="200" y="120"></text><text fill="#eeeeee" stroke="none" font-family="Arial" font-size="24px" font-style="normal" font-weight="normal" text-decoration="none" x="200" y="150"></text><text fill="#eeeeee" stroke="none" font-family="Arial" font-size="24px" font-style="normal" font-weight="normal" text-decoration="none" x="200" y="180"></text><text fill="#eeeeee" stroke="none" font-family="Arial" font-size="24px" font-style="normal" font-weight="normal" text-decoration="none" x="200" y="210"></text><text fill="#eeeeee" stroke="none" font-family="Arial" font-size="24px" font-style="normal" font-weight="normal" text-decoration="none" x="200" y="240"></text><text fill="#eeeeee" stroke="none" font-family="Arial" font-size="24px" font-style="normal" font-weight="normal" text-decoration="none" x="200" y="270"></text><text fill="#eeeeee" stroke="none" font-family="Arial" font-size="24px" font-style="normal" font-weight="normal" text-decoration="none" x="200" y="300"></text><text fill="#eeeeee" stroke="none" font-family="Arial" font-size="24px" font-style="normal" font-weight="normal" text-decoration="none" x="200" y="330"></text><text fill="#eeeeee" stroke="none" font-family="Arial" font-size="24px" font-style="normal" font-weight="normal" text-decoration="none" x="200" y="360"></text><text fill="#eeeeee" stroke="none" font-family="Arial" font-size="24px" font-style="normal" font-weight="normal" text-decoration="none" x="400" y="0"></text><text fill="#eeeeee" stroke="none" font-family="Arial" font-size="24px" font-style="normal" font-weight="normal" text-decoration="none" x="400" y="30"></text><text fill="#eeeeee" stroke="none" font-family="Arial" font-size="24px" font-style="normal" font-weight="normal" text-decoration="none" x="400" y="60"></text><text fill="#eeeeee" stroke="none" font-family="Arial" font-size="24px" font-style="normal" font-weight="normal" text-decoration="none" x="400" y="90"></text><text fill="#eeeeee" stroke="none" font-family="Arial" font-size="24px" font-style="normal" font-weight="normal" text-decoration="none" x="400" y="120"></text><text fill="#eeeeee" stroke="none" font-family="Arial" font-size="24px" font-style="normal" font-weight="normal" text-decoration="none" x="400" y="150"></text><text fill="#eeeeee" stroke="none" font-family="Arial" font-size="24px" font-style="normal" font-weight="normal" text-decoration="none" x="400" y="180"></text><text fill="#eeeeee" stroke="none" font-family="Arial" font-size="24px" font-style="normal" font-weight="normal" text-decoration="none" x="400" y="210"></text><text fill="#eeeeee" stroke="none" font-family="Arial" font-size="24px" font-style="normal" font-weight="normal" text-decoration="none" x="400" y="240"></text><text fill="#eeeeee" stroke="none" font-family="Arial" font-size="24px" font-style="normal" font-weight="normal" text-decoration="none" x="400" y="270"></text><text fill="#eeeeee" stroke="none" font-family="Arial" font-size="24px" font-style="normal" font-weight="normal" text-decoration="none" x="400" y="300"></text><text fill="#eeeeee" stroke="none" font-family="Arial" font-size="24px" font-style="normal" font-weight="normal" text-decoration="none" x="400" y="330"></text><text fill="#eeeeee" stroke="none" font-family="Arial" font-size="24px" font-style="normal" font-weight="normal" text-decoration="none" x="400" y="360"></text><g transform="translate(-94,-166) scale(1,1)"><path fill="#C0C0C0" stroke="none" d="M 111 200.5 C 111 195.2532944 115.2532944 191 120.5 191 C 125.7467056 191 130 195.2532944 130 200.5 C 130 205.7467056 125.7467056 210 120.5 210 C 115.2532944 210 111 205.7467056 111 200.5 Z" opacity="0.2"/></g><g transform="translate(-94,-166) scale(1,1)"><path fill="#000000" stroke="none" d="M 104 193.5 C 104 188.2532944 108.2532944 184 113.5 184 C 118.7467056 184 123 188.2532944 123 193.5 C 123 198.7467056 118.7467056 203 113.5 203 C 108.2532944 203 104 198.7467056 104 193.5 Z"/></g><g transform="translate(-94,-166) scale(1,1)"><path fill="#C0C0C0" stroke="none" d="M 185 183 L 394.33349609375 183 Q 404.33349609375 183 404.33349609375 193 L 404.33349609375 213 Q 404.33349609375 223 394.33349609375 223 L 185 223 Q 175 223 175 213 L 175 193 Q 175 183 185 183 Z" opacity="0.2"/></g><g transform="translate(-94,-166) scale(1,1)"><path fill="#ffffff" stroke="none" d="M 178 176 L 387.33349609375 176 Q 397.33349609375 176 397.33349609375 186 L 397.33349609375 206 Q 397.33349609375 216 387.33349609375 216 L 178 216 Q 168 216 168 206 L 168 186 Q 168 176 178 176 Z"/></g><g transform="translate(-94,-166) scale(1,1)"><path fill="none" stroke="#000000" d="M 178 176 L 387.33349609375 176 Q 397.33349609375 176 397.33349609375 186 L 397.33349609375 206 Q 397.33349609375 216 387.33349609375 216 L 178 216 Q 168 216 168 206 L 168 186 Q 168 176 178 176 Z" stroke-miterlimit="10"/></g><g transform="translate(-94,-166) scale(1,1)"><g><path fill="none" stroke="none"/><text fill="#000000" stroke="none" font-family="Arial" font-size="13px" font-style="normal" font-weight="bold" text-decoration="none" x="172.5" y="194">chose to delete registration request</text></g></g><g transform="translate(-94,-166) scale(1,1)"><path fill="none" stroke="#000000" d="M 124 193 L 167 194" stroke-miterlimit="10"/></g><g transform="translate(-94,-166) scale(1,1)"><path fill="none" stroke="#000000" d="M 156.7422028826507 197.97210250362454 L 167 194 L 156.9379414824055 189.55534271416747" stroke-miterlimit="10"/></g><g transform="translate(-94,-166) scale(1,1)"><path fill="#C0C0C0" stroke="none" d="M 169 247 L 405.06982421875 247 Q 415.06982421875 247 415.06982421875 257 L 415.06982421875 277 Q 415.06982421875 287 405.06982421875 287 L 169 287 Q 159 287 159 277 L 159 257 Q 159 247 169 247 Z" opacity="0.2"/></g><g transform="translate(-94,-166) scale(1,1)"><path fill="#ffffff" stroke="none" d="M 162 240 L 398.06982421875 240 Q 408.06982421875 240 408.06982421875 250 L 408.06982421875 270 Q 408.06982421875 280 398.06982421875 280 L 162 280 Q 152 280 152 270 L 152 250 Q 152 240 162 240 Z"/></g><g transform="translate(-94,-166) scale(1,1)"><path fill="none" stroke="#000000" d="M 162 240 L 398.06982421875 240 Q 408.06982421875 240 408.06982421875 250 L 408.06982421875 270 Q 408.06982421875 280 398.06982421875 280 L 162 280 Q 152 280 152 270 L 152 250 Q 152 240 162 240 Z" stroke-miterlimit="10"/></g><g transform="translate(-94,-166) scale(1,1)"><g><path fill="none" stroke="none"/><text fill="#000000" stroke="none" font-family="Arial" font-size="13px" font-style="normal" font-weight="bold" text-decoration="none" x="156.5" y="258">check if all students accepted or not yet</text></g></g><g transform="translate(-94,-166) scale(1,1)"><path fill="none" stroke="#000000" d="M 281 217 L 281 239" stroke-miterlimit="10"/></g><g transform="translate(-94,-166) scale(1,1)"><path fill="none" stroke="#000000" d="M 276.790482243984 228.83732514237585 L 281 239 L 285.209517756016 228.83732514237585" stroke-miterlimit="10"/></g><g transform="translate(-94,-166) scale(1,1)"><path fill="#C0C0C0" stroke="none" d="M 279 328.5 L 290.5 319 L 301 328.5 L 290.5 337 L 279 328.5" opacity="0.2"/></g><g transform="translate(-94,-166) scale(1,1)"><path fill="#ffffff" stroke="none" d="M 272 321 L 283 312 L 294 321 L 283 330 L 272 321"/></g><g transform="translate(-94,-166) scale(1,1)"><path fill="none" stroke="#000000" d="M 272 321 L 283 312 L 294 321 L 283 330 L 272 321 L 272 321" stroke-miterlimit="10"/></g><g transform="translate(-94,-166) scale(1,1)"><path fill="#C0C0C0" stroke="none" d="M 519 331.5 C 519 324.59644 524.59644 319 531.5 319 C 538.40356 319 544 324.59644 544 331.5 C 544 338.40356 538.40356 344 531.5 344 C 524.59644 344 519 338.40356 519 331.5 Z" opacity="0.2"/></g><g transform="translate(-94,-166) scale(1,1)"><path fill="none" stroke="#000000" d="M 512 324.5 C 512 317.59644 517.59644 312 524.5 312 C 531.40356 312 537 317.59644 537 324.5 C 537 331.40356 531.40356 337 524.5 337 C 517.59644 337 512 331.40356 512 324.5 Z" stroke-miterlimit="10"/></g><g transform="translate(-94,-166) scale(1,1)"><path fill="#000000" stroke="none" d="M 517 324.5 C 517 320.357864 520.357864 317 524.5 317 C 528.642136 317 532 320.357864 532 324.5 C 532 328.642136 528.642136 332 524.5 332 C 520.357864 332 517 328.642136 517 324.5 Z"/></g><g transform="translate(-94,-166) scale(1,1)"><path fill="#C0C0C0" stroke="none" d="M 249 367 L 326.1435546875 367 Q 336.1435546875 367 336.1435546875 377 L 336.1435546875 397 Q 336.1435546875 407 326.1435546875 407 L 249 407 Q 239 407 239 397 L 239 377 Q 239 367 249 367 Z" opacity="0.2"/></g><g transform="translate(-94,-166) scale(1,1)"><path fill="#ffffff" stroke="none" d="M 242 360 L 319.1435546875 360 Q 329.1435546875 360 329.1435546875 370 L 329.1435546875 390 Q 329.1435546875 400 319.1435546875 400 L 242 400 Q 232 400 232 390 L 232 370 Q 232 360 242 360 Z"/></g><g transform="translate(-94,-166) scale(1,1)"><path fill="none" stroke="#000000" d="M 242 360 L 319.1435546875 360 Q 329.1435546875 360 329.1435546875 370 L 329.1435546875 390 Q 329.1435546875 400 319.1435546875 400 L 242 400 Q 232 400 232 390 L 232 370 Q 232 360 242 360 Z" stroke-miterlimit="10"/></g><g transform="translate(-94,-166) scale(1,1)"><g><path fill="none" stroke="none"/><text fill="#000000" stroke="none" font-family="Arial" font-size="13px" font-style="normal" font-weight="bold" text-decoration="none" x="236.5" y="378">delete request</text></g></g><g transform="translate(-94,-166) scale(1,1)"><path fill="#C0C0C0" stroke="none" d="M 177 439 L 393.55078125 439 Q 403.55078125 439 403.55078125 449 L 403.55078125 469 Q 403.55078125 479 393.55078125 479 L 177 479 Q 167 479 167 469 L 167 449 Q 167 439 177 439 Z" opacity="0.2"/></g><g transform="translate(-94,-166) scale(1,1)"><path fill="#ffffff" stroke="none" d="M 170 432 L 386.55078125 432 Q 396.55078125 432 396.55078125 442 L 396.55078125 462 Q 396.55078125 472 386.55078125 472 L 170 472 Q 160 472 160 462 L 160 442 Q 160 432 170 432 Z"/></g><g transform="translate(-94,-166) scale(1,1)"><path fill="none" stroke="#000000" d="M 170 432 L 386.55078125 432 Q 396.55078125 432 396.55078125 442 L 396.55078125 462 Q 396.55078125 472 386.55078125 472 L 170 472 Q 160 472 160 462 L 160 442 Q 160 432 170 432 Z" stroke-miterlimit="10"/></g><g transform="translate(-94,-166) scale(1,1)"><g><path fill="none" stroke="none"/><text fill="#000000" stroke="none" font-family="Arial" font-size="13px" font-style="normal" font-weight="bold" text-decoration="none" x="164.5" y="450">send notifications for team members</text></g></g><g transform="translate(-94,-166) scale(1,1)"><path fill="#C0C0C0" stroke="none" d="M 271 515.5 C 271 508.59644 276.59644 503 283.5 503 C 290.40356 503 296 508.59644 296 515.5 C 296 522.40356 290.40356 528 283.5 528 C 276.59644 528 271 522.40356 271 515.5 Z" opacity="0.2"/></g><g transform="translate(-94,-166) scale(1,1)"><path fill="none" stroke="#000000" d="M 264 508.5 C 264 501.59644 269.59644 496 276.5 496 C 283.40356 496 289 501.59644 289 508.5 C 289 515.40356 283.40356 521 276.5 521 C 269.59644 521 264 515.40356 264 508.5 Z" stroke-miterlimit="10"/></g><g transform="translate(-94,-166) scale(1,1)"><path fill="#000000" stroke="none" d="M 269 508.5 C 269 504.357864 272.357864 501 276.5 501 C 280.642136 501 284 504.357864 284 508.5 C 284 512.642136 280.642136 516 276.5 516 C 272.357864 516 269 512.642136 269 508.5 Z"/></g><g transform="translate(-94,-166) scale(1,1)"><path fill="none" stroke="#000000" d="M 281 281 L 283 311" stroke-miterlimit="10"/></g><g transform="translate(-94,-166) scale(1,1)"><path fill="none" stroke="#000000" d="M 278.1237945855094 301.13984681885256 L 283 311 L 286.5241832628826 300.5798209070277" stroke-miterlimit="10"/></g><g transform="translate(-94,-166) scale(1,1)"><path fill="none" stroke="#000000" d="M 295 321 L 511 324" stroke-miterlimit="10"/></g><g transform="translate(-94,-166) scale(1,1)"><path fill="none" stroke="#000000" d="M 500.7798453106822 328.06797715411676 L 511 324 L 500.89676508302 319.6497535457958" stroke-miterlimit="10"/></g><g transform="translate(-94,-166) scale(1,1)"><g><path fill="none" stroke="none"/><text fill="#000000" stroke="none" font-family="Arial" font-size="13px" font-style="normal" font-weight="normal" text-decoration="none" x="291.5" y="312">[all student accept the request already]</text></g></g><g transform="translate(-94,-166) scale(1,1)"><path fill="none" stroke="#000000" d="M 282 331 L 281 359" stroke-miterlimit="10"/></g><g transform="translate(-94,-166) scale(1,1)"><path fill="none" stroke="#000000" d="M 277.1558857396898 348.6935561150473 L 281 359 L 285.56955709984743 348.99404437791003" stroke-miterlimit="10"/></g><g transform="translate(-94,-166) scale(1,1)"><g><path fill="none" stroke="none"/><text fill="#000000" stroke="none" font-family="Arial" font-size="13px" font-style="normal" font-weight="normal" text-decoration="none" x="132.5" y="334">[student still can delete]</text></g></g><g transform="translate(-94,-166) scale(1,1)"><path fill="none" stroke="#000000" d="M 279 401 L 279 431" stroke-miterlimit="10"/></g><g transform="translate(-94,-166) scale(1,1)"><path fill="none" stroke="#000000" d="M 274.790482243984 420.83732514237585 L 279 431 L 283.209517756016 420.83732514237585" stroke-miterlimit="10"/></g><g transform="translate(-94,-166) scale(1,1)"><path fill="none" stroke="#000000" d="M 277 473 L 276 495" stroke-miterlimit="10"/></g><g transform="translate(-94,-166) scale(1,1)"><path fill="none" stroke="#000000" d="M 272.25628748624484 484.6566631779511 L 276 495 L 280.66663910167813 485.0389518877435" stroke-miterlimit="10"/></g><g transform="translate(-94,-166) scale(1,1)"><path fill="#ffffff" stroke="none" d="M 448 352 L 506 352 L 516 362 L 516 401 L 448 401 L 448 352"/></g><g transform="translate(-94,-166) scale(1,1)"><path fill="none" stroke="#000000" d="M 448 352 L 506 352 L 516 362 L 516 401 L 448 401 L 448 352 L 448 352" stroke-miterlimit="10"/></g><g transform="translate(-94,-166) scale(1,1)"><path fill="none" stroke="#000000" d="M 506 352 L 506 362 L 516 362 L 506 352" stroke-miterlimit="10"/></g><g transform="translate(-94,-166) scale(1,1)"><g><path fill="none" stroke="none"/><text fill="#000000" stroke="none" font-family="Arial" font-size="13px" font-style="normal" font-weight="normal" text-decoration="none" x="453" y="367">the use</text><text fill="#000000" stroke="none" font-family="Arial" font-size="13px" font-style="normal" font-weight="normal" text-decoration="none" x="453" y="380">case will</text><text fill="#000000" stroke="none" font-family="Arial" font-size="13px" font-style="normal" font-weight="normal" text-decoration="none" x="453" y="393">fail</text></g></g><g transform="translate(-94,-166) scale(1,1)"><path fill="none" stroke="#000000" d="M 513 338 L 503 351" stroke-miterlimit="10" stroke-dasharray="3"/></g></g></svg>