<svg version="1.1" xmlns="http://www.w3.org/2000/svg" xmlns:xlink="http://www.w3.org/1999/xlink" width="768.05517578125" height="533"><defs/><g><text fill="#eeeeee" stroke="none" font-family="Arial" font-size="24px" font-style="normal" font-weight="normal" text-decoration="none" x="0" y="0"></text><text fill="#eeeeee" stroke="none" font-family="Arial" font-size="24px" font-style="normal" font-weight="normal" text-decoration="none" x="0" y="30"></text><text fill="#eeeeee" stroke="none" font-family="Arial" font-size="24px" font-style="normal" font-weight="normal" text-decoration="none" x="0" y="60"></text><text fill="#eeeeee" stroke="none" font-family="Arial" font-size="24px" font-style="normal" font-weight="normal" text-decoration="none" x="0" y="90"></text><text fill="#eeeeee" stroke="none" font-family="Arial" font-size="24px" font-style="normal" font-weight="normal" text-decoration="none" x="0" y="120"></text><text fill="#eeeeee" stroke="none" font-family="Arial" font-size="24px" font-style="normal" font-weight="normal" text-decoration="none" x="0" y="150"></text><text fill="#eeeeee" stroke="none" font-family="Arial" font-size="24px" font-style="normal" font-weight="normal" text-decoration="none" x="0" y="180"></text><text fill="#eeeeee" stroke="none" font-family="Arial" font-size="24px" font-style="normal" font-weight="normal" text-decoration="none" x="0" y="210"></text><text fill="#eeeeee" stroke="none" font-family="Arial" font-size="24px" font-style="normal" font-weight="normal" text-decoration="none" x="0" y="240"></text><text fill="#eeeeee" stroke="none" font-family="Arial" font-size="24px" font-style="normal" font-weight="normal" text-decoration="none" x="0" y="270"></text><text fill="#eeeeee" stroke="none" font-family="Arial" font-size="24px" font-style="normal" font-weight="normal" text-decoration="none" x="0" y="300"></text><text fill="#eeeeee" stroke="none" font-family="Arial" font-size="24px" font-style="normal" font-weight="normal" text-decoration="none" x="0" y="330"></text><text fill="#eeeeee" stroke="none" font-family="Arial" font-size="24px" font-style="normal" font-weight="normal" text-decoration="none" x="0" y="360"></text><text fill="#eeeeee" stroke="none" font-family="Arial" font-size="24px" font-style="normal" font-weight="normal" text-decoration="none" x="0" y="390"></text><text fill="#eeeeee" stroke="none" font-family="Arial" font-size="24px" font-style="normal" font-weight="normal" text-decoration="none" x="0" y="420"></text><text fill="#eeeeee" stroke="none" font-family="Arial" font-size="24px" font-style="normal" font-weight="normal" text-decoration="none" x="0" y="450"></text><text fill="#eeeeee" stroke="none" font-family="Arial" font-size="24px" font-style="normal" font-weight="normal" text-decoration="none" x="0" y="480"></text><text fill="#eeeeee" stroke="none" font-family="Arial" font-size="24px" font-style="normal" font-weight="normal" text-decoration="none" x="0" y="510"></text><text fill="#eeeeee" stroke="none" font-family="Arial" font-size="24px" font-style="normal" font-weight="normal" text-decoration="none" x="200" y="0"></text><text fill="#eeeeee" stroke="none" font-family="Arial" font-size="24px" font-style="normal" font-weight="normal" text-decoration="none" x="200" y="30"></text><text fill="#eeeeee" stroke="none" font-family="Arial" font-size="24px" font-style="normal" font-weight="normal" text-decoration="none" x="200" y="60"></text><text fill="#eeeeee" stroke="none" font-family="Arial" font-size="24px" font-style="normal" font-weight="normal" text-decoration="none" x="200" y="90"></text><text fill="#eeeeee" stroke="none" font-family="Arial" font-size="24px" font-style="normal" font-weight="normal" text-decoration="none" x="200" y="120"></text><text fill="#eeeeee" stroke="none" font-family="Arial" font-size="24px" font-style="normal" font-weight="normal" text-decoration="none" x="200" y="150"></text><text fill="#eeeeee" stroke="none" font-family="Arial" font-size="24px" font-style="normal" font-weight="normal" text-decoration="none" x="200" y="180"></text><text fill="#eeeeee" stroke="none" font-family="Arial" font-size="24px" font-style="normal" font-weight="normal" text-decoration="none" x="200" y="210"></text><text fill="#eeeeee" stroke="none" font-family="Arial" font-size="24px" font-style="normal" font-weight="normal" text-decoration="none" x="200" y="240"></text><text fill="#eeeeee" stroke="none" font-family="Arial" font-size="24px" font-style="normal" font-weight="normal" text-decoration="none" x="200" y="270"></text><text fill="#eeeeee" stroke="none" font-family="Arial" font-size="24px" font-style="normal" font-weight="normal" text-decoration="none" x="200" y="300"></text><text fill="#eeeeee" stroke="none" font-family="Arial" font-size="24px" font-style="normal" font-weight="normal" text-decoration="none" x="200" y="330"></text><text fill="#eeeeee" stroke="none" font-family="Arial" font-size="24px" font-style="normal" font-weight="normal" text-decoration="none" x="200" y="360"></text><text fill="#eeeeee" stroke="none" font-family="Arial" font-size="24px" font-style="normal" font-weight="normal" text-decoration="none" x="200" y="390"></text><text fill="#eeeeee" stroke="none" font-family="Arial" font-size="24px" font-style="normal" font-weight="normal" text-decoration="none" x="200" y="420"></text><text fill="#eeeeee" stroke="none" font-family="Arial" font-size="24px" font-style="normal" font-weight="normal" text-decoration="none" x="200" y="450"></text><text fill="#eeeeee" stroke="none" font-family="Arial" font-size="24px" font-style="normal" font-weight="normal" text-decoration="none" x="200" y="480"></text><text fill="#eeeeee" stroke="none" font-family="Arial" font-size="24px" font-style="normal" font-weight="normal" text-decoration="none" x="200" y="510"></text><text fill="#eeeeee" stroke="none" font-family="Arial" font-size="24px" font-style="normal" font-weight="normal" text-decoration="none" x="400" y="0"></text><text fill="#eeeeee" stroke="none" font-family="Arial" font-size="24px" font-style="normal" font-weight="normal" text-decoration="none" x="400" y="30"></text><text fill="#eeeeee" stroke="none" font-family="Arial" font-size="24px" font-style="normal" font-weight="normal" text-decoration="none" x="400" y="60"></text><text fill="#eeeeee" stroke="none" font-family="Arial" font-size="24px" font-style="normal" font-weight="normal" text-decoration="none" x="400" y="90"></text><text fill="#eeeeee" stroke="none" font-family="Arial" font-size="24px" font-style="normal" font-weight="normal" text-decoration="none" x="400" y="120"></text><text fill="#eeeeee" stroke="none" font-family="Arial" font-size="24px" font-style="normal" font-weight="normal" text-decoration="none" x="400" y="150"></text><text fill="#eeeeee" stroke="none" font-family="Arial" font-size="24px" font-style="normal" font-weight="normal" text-decoration="none" x="400" y="180"></text><text fill="#eeeeee" stroke="none" font-family="Arial" font-size="24px" font-style="normal" font-weight="normal" text-decoration="none" x="400" y="210"></text><text fill="#eeeeee" stroke="none" font-family="Arial" font-size="24px" font-style="normal" font-weight="normal" text-decoration="none" x="400" y="240"></text><text fill="#eeeeee" stroke="none" font-family="Arial" font-size="24px" font-style="normal" font-weight="normal" text-decoration="none" x="400" y="270"></text><text fill="#eeeeee" stroke="none" font-family="Arial" font-size="24px" font-style="normal" font-weight="normal" text-decoration="none" x="400" y="300"></text><text fill="#eeeeee" stroke="none" font-family="Arial" font-size="24px" font-style="normal" font-weight="normal" text-decoration="none" x="400" y="330"></text><text fill="#eeeeee" stroke="none" font-family="Arial" font-size="24px" font-style="normal" font-weight="normal" text-decoration="none" x="400" y="360"></text><text fill="#eeeeee" stroke="none" font-family="Arial" font-size="24px" font-style="normal" font-weight="normal" text-decoration="none" x="400" y="390"></text><text fill="#eeeeee" stroke="none" font-family="Arial" font-size="24px" font-style="normal" font-weight="normal" text-decoration="none" x="400" y="420"></text><text fill="#eeeeee" stroke="none" font-family="Arial" font-size="24px" font-style="normal" font-weight="normal" text-decoration="none" x="400" y="450"></text><text fill="#eeeeee" stroke="none" font-family="Arial" font-size="24px" font-style="normal" font-weight="normal" text-decoration="none" x="400" y="480"></text><text fill="#eeeeee" stroke="none" font-family="Arial" font-size="24px" font-style="normal" font-weight="normal" text-decoration="none" x="400" y="510"></text><text fill="#eeeeee" stroke="none" font-family="Arial" font-size="24px" font-style="normal" font-weight="normal" text-decoration="none" x="600" y="0"></text><text fill="#eeeeee" stroke="none" font-family="Arial" font-size="24px" font-style="normal" font-weight="normal" text-decoration="none" x="600" y="30"></text><text fill="#eeeeee" stroke="none" font-family="Arial" font-size="24px" font-style="normal" font-weight="normal" text-decoration="none" x="600" y="60"></text><text fill="#eeeeee" stroke="none" font-family="Arial" font-size="24px" font-style="normal" font-weight="normal" text-decoration="none" x="600" y="90"></text><text fill="#eeeeee" stroke="none" font-family="Arial" font-size="24px" font-style="normal" font-weight="normal" text-decoration="none" x="600" y="120"></text><text fill="#eeeeee" stroke="none" font-family="Arial" font-size="24px" font-style="normal" font-weight="normal" text-decoration="none" x="600" y="150"></text><text fill="#eeeeee" stroke="none" font-family="Arial" font-size="24px" font-style="normal" font-weight="normal" text-decoration="none" x="600" y="180"></text><text fill="#eeeeee" stroke="none" font-family="Arial" font-size="24px" font-style="normal" font-weight="normal" text-decoration="none" x="600" y="210"></text><text fill="#eeeeee" stroke="none" font-family="Arial" font-size="24px" font-style="normal" font-weight="normal" text-decoration="none" x="600" y="240"></text><text fill="#eeeeee" stroke="none" font-family="Arial" font-size="24px" font-style="normal" font-weight="normal" text-decoration="none" x="600" y="270"></text><text fill="#eeeeee" stroke="none" font-family="Arial" font-size="24px" font-style="normal" font-weight="normal" text-decoration="none" x="600" y="300"></text><text fill="#eeeeee" stroke="none" font-family="Arial" font-size="24px" font-style="normal" font-weight="normal" text-decoration="none" x="600" y="330"></text><text fill="#eeeeee" stroke="none" font-family="Arial" font-size="24px" font-style="normal" font-weight="normal" text-decoration="none" x="600" y="360"></text><text fill="#eeeeee" stroke="none" font-family="Arial" font-size="24px" font-style="normal" font-weight="normal" text-decoration="none" x="600" y="390"></text><text fill="#eeeeee" stroke="none" font-family="Arial" font-size="24px" font-style="normal" font-weight="normal" text-decoration="none" x="600" y="420"></text><text fill="#eeeeee" stroke="none" font-family="Arial" font-size="24px" font-style="normal" font-weight="normal" text-decoration="none" x="600" y="450"></text><text fill="#eeeeee" stroke="none" font-family="Arial" font-size="24px" font-style="normal" font-weight="normal" text-decoration="none" x="600" y="480"></text><text fill="#eeeeee" stroke="none" font-family="Arial" font-size="24px" font-style="normal" font-weight="normal" text-decoration="none" x="600" y="510"></text><g transform="translate(-70,-94) scale(1,1)"><path fill="#C0C0C0" stroke="none" d="M 87 136.5 C 87 131.2532944 91.2532944 127 96.5 127 C 101.7467056 127 106 131.2532944 106 136.5 C 106 141.7467056 101.7467056 146 96.5 146 C 91.2532944 146 87 141.7467056 87 136.5 Z" opacity="0.2"/></g><g transform="translate(-70,-94) scale(1,1)"><path fill="#000000" stroke="none" d="M 80 129.5 C 80 124.2532944 84.2532944 120 89.5 120 C 94.7467056 120 99 124.2532944 99 129.5 C 99 134.7467056 94.7467056 139 89.5 139 C 84.2532944 139 80 134.7467056 80 129.5 Z"/></g><g transform="translate(-70,-94) scale(1,1)"><path fill="#C0C0C0" stroke="none" d="M 145 111 L 336.26171875 111 Q 346.26171875 111 346.26171875 121 L 346.26171875 141 Q 346.26171875 151 336.26171875 151 L 145 151 Q 135 151 135 141 L 135 121 Q 135 111 145 111 Z" opacity="0.2"/></g><g transform="translate(-70,-94) scale(1,1)"><path fill="#ffffff" stroke="none" d="M 138 104 L 329.26171875 104 Q 339.26171875 104 339.26171875 114 L 339.26171875 134 Q 339.26171875 144 329.26171875 144 L 138 144 Q 128 144 128 134 L 128 114 Q 128 104 138 104 Z"/></g><g transform="translate(-70,-94) scale(1,1)"><path fill="none" stroke="#000000" d="M 138 104 L 329.26171875 104 Q 339.26171875 104 339.26171875 114 L 339.26171875 134 Q 339.26171875 144 329.26171875 144 L 138 144 Q 128 144 128 134 L 128 114 Q 128 104 138 104 Z" stroke-miterlimit="10"/></g><g transform="translate(-70,-94) scale(1,1)"><g><path fill="none" stroke="none"/><text fill="#000000" stroke="none" font-family="Arial" font-size="13px" font-style="normal" font-weight="bold" text-decoration="none" x="157.7763671875" y="122">chose to register project</text></g></g><g transform="translate(-70,-94) scale(1,1)"><path fill="none" stroke="#000000" d="M 100 129 L 127 128" stroke-miterlimit="10"/></g><g transform="translate(-70,-94) scale(1,1)"><path fill="none" stroke="#000000" d="M 117.00008950612359 132.58277100829406 L 127 128 L 116.68848702193164 124.16950393511131" stroke-miterlimit="10"/></g><g transform="translate(-70,-94) scale(1,1)"><path fill="#C0C0C0" stroke="none" d="M 223 272.5 L 235.5 263 L 247 272.5 L 235.5 281 L 223 272.5" opacity="0.2"/></g><g transform="translate(-70,-94) scale(1,1)"><path fill="#ffffff" stroke="none" d="M 216 265 L 228 256 L 240 265 L 228 274 L 216 265"/></g><g transform="translate(-70,-94) scale(1,1)"><path fill="none" stroke="#000000" d="M 216 265 L 228 256 L 240 265 L 228 274 L 216 265 L 216 265" stroke-miterlimit="10"/></g><g transform="translate(-70,-94) scale(1,1)"><path fill="#C0C0C0" stroke="none" d="M 185 199 L 292.49169921875 199 Q 302.49169921875 199 302.49169921875 209 L 302.49169921875 229 Q 302.49169921875 239 292.49169921875 239 L 185 239 Q 175 239 175 229 L 175 209 Q 175 199 185 199 Z" opacity="0.2"/></g><g transform="translate(-70,-94) scale(1,1)"><path fill="#ffffff" stroke="none" d="M 178 192 L 285.49169921875 192 Q 295.49169921875 192 295.49169921875 202 L 295.49169921875 222 Q 295.49169921875 232 285.49169921875 232 L 178 232 Q 168 232 168 222 L 168 202 Q 168 192 178 192 Z"/></g><g transform="translate(-70,-94) scale(1,1)"><path fill="none" stroke="#000000" d="M 178 192 L 285.49169921875 192 Q 295.49169921875 192 295.49169921875 202 L 295.49169921875 222 Q 295.49169921875 232 285.49169921875 232 L 178 232 Q 168 232 168 222 L 168 202 Q 168 192 178 192 Z" stroke-miterlimit="10"/></g><g transform="translate(-70,-94) scale(1,1)"><g><path fill="none" stroke="none"/><text fill="#000000" stroke="none" font-family="Arial" font-size="13px" font-style="normal" font-weight="bold" text-decoration="none" x="172.5" y="210">add team members</text></g></g><g transform="translate(-70,-94) scale(1,1)"><path fill="none" stroke="#000000" d="M 233 145 L 231 191" stroke-miterlimit="10"/></g><g transform="translate(-70,-94) scale(1,1)"><path fill="none" stroke="#000000" d="M 227.23589374918507 180.6640673312673 L 231 191 L 235.64698302489055 181.02976686499363" stroke-miterlimit="10"/></g><g transform="translate(-70,-94) scale(1,1)"><path fill="none" stroke="#000000" d="M 230 233 L 229 255" stroke-miterlimit="10"/></g><g transform="translate(-70,-94) scale(1,1)"><path fill="none" stroke="#000000" d="M 225.25628748624487 244.6566631779511 L 229 255 L 233.6666391016781 245.0389518877435" stroke-miterlimit="10"/></g><g transform="translate(-70,-94) scale(1,1)"><path fill="#C0C0C0" stroke="none" d="M 329 247 L 506.51904296875 247 Q 516.51904296875 247 516.51904296875 257 L 516.51904296875 277 Q 516.51904296875 287 506.51904296875 287 L 329 287 Q 319 287 319 277 L 319 257 Q 319 247 329 247 Z" opacity="0.2"/></g><g transform="translate(-70,-94) scale(1,1)"><path fill="#ffffff" stroke="none" d="M 322 240 L 499.51904296875 240 Q 509.51904296875 240 509.51904296875 250 L 509.51904296875 270 Q 509.51904296875 280 499.51904296875 280 L 322 280 Q 312 280 312 270 L 312 250 Q 312 240 322 240 Z"/></g><g transform="translate(-70,-94) scale(1,1)"><path fill="none" stroke="#000000" d="M 322 240 L 499.51904296875 240 Q 509.51904296875 240 509.51904296875 250 L 509.51904296875 270 Q 509.51904296875 280 499.51904296875 280 L 322 280 Q 312 280 312 270 L 312 250 Q 312 240 322 240 Z" stroke-miterlimit="10"/></g><g transform="translate(-70,-94) scale(1,1)"><g><path fill="none" stroke="none"/><text fill="#000000" stroke="none" font-family="Arial" font-size="13px" font-style="normal" font-weight="bold" text-decoration="none" x="316.5" y="258">send request for other student</text></g></g><g transform="translate(-70,-94) scale(1,1)"><path fill="#C0C0C0" stroke="none" d="M 407 320.5 L 418.5 311 L 429 320.5 L 418.5 329 L 407 320.5" opacity="0.2"/></g><g transform="translate(-70,-94) scale(1,1)"><path fill="#ffffff" stroke="none" d="M 400 313 L 411 304 L 422 313 L 411 322 L 400 313"/></g><g transform="translate(-70,-94) scale(1,1)"><path fill="none" stroke="#000000" d="M 400 313 L 411 304 L 422 313 L 411 322 L 400 313 L 400 313" stroke-miterlimit="10"/></g><g transform="translate(-70,-94) scale(1,1)"><path fill="#C0C0C0" stroke="none" d="M 239 435.5 C 239 428.59644 244.59644 423 251.5 423 C 258.40356 423 264 428.59644 264 435.5 C 264 442.40356 258.40356 448 251.5 448 C 244.59644 448 239 442.40356 239 435.5 Z" opacity="0.2"/></g><g transform="translate(-70,-94) scale(1,1)"><path fill="none" stroke="#000000" d="M 232 428.5 C 232 421.59644 237.59644 416 244.5 416 C 251.40356 416 257 421.59644 257 428.5 C 257 435.40356 251.40356 441 244.5 441 C 237.59644 441 232 435.40356 232 428.5 Z" stroke-miterlimit="10"/></g><g transform="translate(-70,-94) scale(1,1)"><path fill="#000000" stroke="none" d="M 237 428.5 C 237 424.357864 240.357864 421 244.5 421 C 248.642136 421 252 424.357864 252 428.5 C 252 432.642136 248.642136 436 244.5 436 C 240.357864 436 237 432.642136 237 428.5 Z"/></g><g transform="translate(-70,-94) scale(1,1)"><path fill="#C0C0C0" stroke="none" d="M 521 367 L 681.93896484375 367 Q 691.93896484375 367 691.93896484375 377 L 691.93896484375 397 Q 691.93896484375 407 681.93896484375 407 L 521 407 Q 511 407 511 397 L 511 377 Q 511 367 521 367 Z" opacity="0.2"/></g><g transform="translate(-70,-94) scale(1,1)"><path fill="#ffffff" stroke="none" d="M 514 360 L 674.93896484375 360 Q 684.93896484375 360 684.93896484375 370 L 684.93896484375 390 Q 684.93896484375 400 674.93896484375 400 L 514 400 Q 504 400 504 390 L 504 370 Q 504 360 514 360 Z"/></g><g transform="translate(-70,-94) scale(1,1)"><path fill="none" stroke="#000000" d="M 514 360 L 674.93896484375 360 Q 684.93896484375 360 684.93896484375 370 L 684.93896484375 390 Q 684.93896484375 400 674.93896484375 400 L 514 400 Q 504 400 504 390 L 504 370 Q 504 360 514 360 Z" stroke-miterlimit="10"/></g><g transform="translate(-70,-94) scale(1,1)"><g><path fill="none" stroke="none"/><text fill="#000000" stroke="none" font-family="Arial" font-size="13px" font-style="normal" font-weight="bold" text-decoration="none" x="508.5" y="378">send request for supervisor</text></g></g><g transform="translate(-70,-94) scale(1,1)"><path fill="#C0C0C0" stroke="none" d="M 393 503 L 570.525390625 503 Q 580.525390625 503 580.525390625 513 L 580.525390625 533 Q 580.525390625 543 570.525390625 543 L 393 543 Q 383 543 383 533 L 383 513 Q 383 503 393 503 Z" opacity="0.2"/></g><g transform="translate(-70,-94) scale(1,1)"><path fill="#ffffff" stroke="none" d="M 386 496 L 563.525390625 496 Q 573.525390625 496 573.525390625 506 L 573.525390625 526 Q 573.525390625 536 563.525390625 536 L 386 536 Q 376 536 376 526 L 376 506 Q 376 496 386 496 Z"/></g><g transform="translate(-70,-94) scale(1,1)"><path fill="none" stroke="#000000" d="M 386 496 L 563.525390625 496 Q 573.525390625 496 573.525390625 506 L 573.525390625 526 Q 573.525390625 536 563.525390625 536 L 386 536 Q 376 536 376 526 L 376 506 Q 376 496 386 496 Z" stroke-miterlimit="10"/></g><g transform="translate(-70,-94) scale(1,1)"><g><path fill="none" stroke="none"/><text fill="#000000" stroke="none" font-family="Arial" font-size="13px" font-style="normal" font-weight="bold" text-decoration="none" x="380.5" y="514">send the response notification</text></g></g><g transform="translate(-70,-94) scale(1,1)"><path fill="#C0C0C0" stroke="none" d="M 641 503 L 819.25537109375 503 Q 829.25537109375 503 829.25537109375 513 L 829.25537109375 533 Q 829.25537109375 543 819.25537109375 543 L 641 543 Q 631 543 631 533 L 631 513 Q 631 503 641 503 Z" opacity="0.2"/></g><g transform="translate(-70,-94) scale(1,1)"><path fill="#ffffff" stroke="none" d="M 634 496 L 812.25537109375 496 Q 822.25537109375 496 822.25537109375 506 L 822.25537109375 526 Q 822.25537109375 536 812.25537109375 536 L 634 536 Q 624 536 624 526 L 624 506 Q 624 496 634 496 Z"/></g><g transform="translate(-70,-94) scale(1,1)"><path fill="none" stroke="#000000" d="M 634 496 L 812.25537109375 496 Q 822.25537109375 496 822.25537109375 506 L 822.25537109375 526 Q 822.25537109375 536 812.25537109375 536 L 634 536 Q 624 536 624 526 L 624 506 Q 624 496 634 496 Z" stroke-miterlimit="10"/></g><g transform="translate(-70,-94) scale(1,1)"><g><path fill="none" stroke="none"/><text fill="#000000" stroke="none" font-family="Arial" font-size="13px" font-style="normal" font-weight="bold" text-decoration="none" x="628.5" y="514">add project to my project page</text></g></g><g transform="translate(-70,-94) scale(1,1)"><path fill="#C0C0C0" stroke="none" d="M 599 611.5 C 599 604.59644 604.59644 599 611.5 599 C 618.40356 599 624 604.59644 624 611.5 C 624 618.40356 618.40356 624 611.5 624 C 604.59644 624 599 618.40356 599 611.5 Z" opacity="0.2"/></g><g transform="translate(-70,-94) scale(1,1)"><path fill="none" stroke="#000000" d="M 592 604.5 C 592 597.59644 597.59644 592 604.5 592 C 611.40356 592 617 597.59644 617 604.5 C 617 611.40356 611.40356 617 604.5 617 C 597.59644 617 592 611.40356 592 604.5 Z" stroke-miterlimit="10"/></g><g transform="translate(-70,-94) scale(1,1)"><path fill="#000000" stroke="none" d="M 597 604.5 C 597 600.357864 600.357864 597 604.5 597 C 608.642136 597 612 600.357864 612 604.5 C 612 608.642136 608.642136 612 604.5 612 C 600.357864 612 597 608.642136 597 604.5 Z"/></g><g transform="translate(-70,-94) scale(1,1)"><path fill="none" stroke="#000000" d="M 241 265 L 311 263" stroke-miterlimit="10"/></g><g transform="translate(-70,-94) scale(1,1)"><path fill="none" stroke="#000000" d="M 300.96169351038094 267.4980443328709 L 311 263 L 300.7212477597107 259.0824430594122" stroke-miterlimit="10"/></g><g transform="translate(-70,-94) scale(1,1)"><g><path fill="none" stroke="none"/><text fill="#000000" stroke="none" font-family="Arial" font-size="13px" font-style="normal" font-weight="normal" text-decoration="none" x="221.55908203125" y="291">[adding finished]</text></g></g><g transform="translate(-70,-94) scale(1,1)"><path fill="none" stroke="#000000" d="M 410 281 L 411 303" stroke-miterlimit="10"/></g><g transform="translate(-70,-94) scale(1,1)"><path fill="none" stroke="#000000" d="M 406.33336089832187 293.0389518877435 L 411 303 L 414.74371251375516 292.6566631779511" stroke-miterlimit="10"/></g><g transform="translate(-70,-94) scale(1,1)"><path fill="#C0C0C0" stroke="none" d="M 591 440.5 L 602.5 431 L 613 440.5 L 602.5 449 L 591 440.5" opacity="0.2"/></g><g transform="translate(-70,-94) scale(1,1)"><path fill="#ffffff" stroke="none" d="M 584 433 L 595 424 L 606 433 L 595 442 L 584 433"/></g><g transform="translate(-70,-94) scale(1,1)"><path fill="none" stroke="#000000" d="M 584 433 L 595 424 L 606 433 L 595 442 L 584 433 L 584 433" stroke-miterlimit="10"/></g><g transform="translate(-70,-94) scale(1,1)"><path fill="none" stroke="#000000" d="M 215 265 L 128 264 L 128 208 L 167 210" stroke-miterlimit="10"/></g><g transform="translate(-70,-94) scale(1,1)"><path fill="none" stroke="#000000" d="M 156.6350725839661 213.68351457990175 L 167 210 L 157.06625139956802 205.2755276756641" stroke-miterlimit="10"/></g><g transform="translate(-70,-94) scale(1,1)"><g><path fill="none" stroke="none"/><text fill="#000000" stroke="none" font-family="Arial" font-size="13px" font-style="normal" font-weight="normal" text-decoration="none" x="102.5" y="257">[adding not finished]</text></g></g><g transform="translate(-70,-94) scale(1,1)"><path fill="none" stroke="#000000" d="M 399 321 L 258 418" stroke-miterlimit="10"/></g><g transform="translate(-70,-94) scale(1,1)"><path fill="none" stroke="#000000" d="M 263.98688024705194 408.77193059695264 L 258 418 L 268.75859407299714 415.70813316868737" stroke-miterlimit="10"/></g><g transform="translate(-70,-94) scale(1,1)"><g><path fill="none" stroke="none"/><text fill="#000000" stroke="none" font-family="Arial" font-size="13px" font-style="normal" font-weight="normal" text-decoration="none" x="126.5" y="368">[reject the request from a student]</text></g></g><g transform="translate(-70,-94) scale(1,1)"><path fill="none" stroke="#000000" d="M 423 317 L 537 359" stroke-miterlimit="10"/></g><g transform="translate(-70,-94) scale(1,1)"><path fill="none" stroke="#000000" d="M 526.0086711525645 359.4366808531763 L 537 359 L 528.9191768452317 351.53673683022225" stroke-miterlimit="10"/></g><g transform="translate(-70,-94) scale(1,1)"><g><path fill="none" stroke="none"/><text fill="#000000" stroke="none" font-family="Arial" font-size="13px" font-style="normal" font-weight="normal" text-decoration="none" x="479.5" y="331">[all students accept to make request]</text></g></g><g transform="translate(-70,-94) scale(1,1)"><path fill="none" stroke="#000000" d="M 594 401 L 595 423" stroke-miterlimit="10"/></g><g transform="translate(-70,-94) scale(1,1)"><path fill="none" stroke="#000000" d="M 590.3333608983219 413.0389518877435 L 595 423 L 598.7437125137551 412.6566631779511" stroke-miterlimit="10"/></g><g transform="translate(-70,-94) scale(1,1)"><path fill="#C0C0C0" stroke="none" d="M 570 479 L 633 479 Q 636 479 636 482 L 636 481 Q 636 484 633 484 L 570 484 Q 567 484 567 481 L 567 482 Q 567 479 570 479 Z" opacity="0.2"/></g><g transform="translate(-70,-94) scale(1,1)"><path fill="#000000" stroke="none" d="M 563 472 L 626 472 Q 629 472 629 475 L 629 475 Q 629 478 626 478 L 563 478 Q 560 478 560 475 L 560 475 Q 560 472 563 472 Z"/></g><g transform="translate(-70,-94) scale(1,1)"><path fill="none" stroke="#000000" d="M 595 443 L 594 471" stroke-miterlimit="10"/></g><g transform="translate(-70,-94) scale(1,1)"><path fill="none" stroke="#000000" d="M 590.1558857396898 460.6935561150473 L 594 471 L 598.5695570998474 460.99404437791003" stroke-miterlimit="10"/></g><g transform="translate(-70,-94) scale(1,1)"><g><path fill="none" stroke="none"/><text fill="#000000" stroke="none" font-family="Arial" font-size="13px" font-style="normal" font-weight="normal" text-decoration="none" x="599.5" y="455">[accept the request from the supervisor]</text></g></g><g transform="translate(-70,-94) scale(1,1)"><path fill="none" stroke="#000000" d="M 583 478 L 534 495" stroke-miterlimit="10"/></g><g transform="translate(-70,-94) scale(1,1)"><path fill="none" stroke="#000000" d="M 542.221489257108 487.6919828684343 L 534 495 L 544.981019275911 495.64592233439583" stroke-miterlimit="10"/></g><g transform="translate(-70,-94) scale(1,1)"><path fill="none" stroke="#000000" d="M 606 478 L 659 495" stroke-miterlimit="10"/></g><g transform="translate(-70,-94) scale(1,1)"><path fill="none" stroke="#000000" d="M 648.0372426303838 495.90440635497873 L 659 495 L 650.6086480568879 487.88767178999524" stroke-miterlimit="10"/></g><g transform="translate(-70,-94) scale(1,1)"><path fill="none" stroke="#000000" d="M 583 433 L 258 428" stroke-miterlimit="10"/></g><g transform="translate(-70,-94) scale(1,1)"><path fill="none" stroke="#000000" d="M 268.2262265365326 423.9473106677766 L 258 428 L 268.09671823878955 432.3653500210745" stroke-miterlimit="10"/></g><g transform="translate(-70,-94) scale(1,1)"><g><path fill="none" stroke="none"/><text fill="#000000" stroke="none" font-family="Arial" font-size="13px" font-style="normal" font-weight="normal" text-decoration="none" x="318.5" y="449">[reject request from the supervisor]</text></g></g><g transform="translate(-70,-94) scale(1,1)"><path fill="#C0C0C0" stroke="none" d="M 578 567 L 641 567 Q 644 567 644 570 L 644 569 Q 644 572 641 572 L 578 572 Q 575 572 575 569 L 575 570 Q 575 567 578 567 Z" opacity="0.2"/></g><g transform="translate(-70,-94) scale(1,1)"><path fill="#000000" stroke="none" d="M 571 560 L 634 560 Q 637 560 637 563 L 637 563 Q 637 566 634 566 L 571 566 Q 568 566 568 563 L 568 563 Q 568 560 571 560 Z"/></g><g transform="translate(-70,-94) scale(1,1)"><path fill="none" stroke="#000000" d="M 668 537 L 610 559" stroke-miterlimit="10"/></g><g transform="translate(-70,-94) scale(1,1)"><path fill="none" stroke="#000000" d="M 618.0091525568739 551.4598756428875 L 610 559 L 620.9949991484272 559.331653020619" stroke-miterlimit="10"/></g><g transform="translate(-70,-94) scale(1,1)"><path fill="none" stroke="#000000" d="M 532 537 L 594 559" stroke-miterlimit="10"/></g><g transform="translate(-70,-94) scale(1,1)"><path fill="none" stroke="#000000" d="M 583.0147090648375 559.5686678027065 L 594 559 L 585.8301174269033 551.6343351459757" stroke-miterlimit="10"/></g><g transform="translate(-70,-94) scale(1,1)"><path fill="none" stroke="#000000" d="M 602 566 L 603 591" stroke-miterlimit="10"/></g><g transform="translate(-70,-94) scale(1,1)"><path fill="none" stroke="#000000" d="M 598.3876636439958 581.0136917061868 L 603 591 L 606.7999719991309 580.6771993719814" stroke-miterlimit="10"/></g><g transform="translate(-70,-94) scale(1,1)"><path fill="#ffffff" stroke="none" d="M 136 432 L 194 432 L 204 442 L 204 481 L 136 481 L 136 432"/></g><g transform="translate(-70,-94) scale(1,1)"><path fill="none" stroke="#000000" d="M 136 432 L 194 432 L 204 442 L 204 481 L 136 481 L 136 432 L 136 432" stroke-miterlimit="10"/></g><g transform="translate(-70,-94) scale(1,1)"><path fill="none" stroke="#000000" d="M 194 432 L 194 442 L 204 442 L 194 432" stroke-miterlimit="10"/></g><g transform="translate(-70,-94) scale(1,1)"><g><path fill="none" stroke="none"/><text fill="#000000" stroke="none" font-family="Arial" font-size="13px" font-style="normal" font-weight="normal" text-decoration="none" x="141" y="447">the use</text><text fill="#000000" stroke="none" font-family="Arial" font-size="13px" font-style="normal" font-weight="normal" text-decoration="none" x="141" y="460">case will</text><text fill="#000000" stroke="none" font-family="Arial" font-size="13px" font-style="normal" font-weight="normal" text-decoration="none" x="141" y="473">fail</text></g></g><g transform="translate(-70,-94) scale(1,1)"><path fill="none" stroke="#000000" d="M 231 433 L 206 443" stroke-miterlimit="10" stroke-dasharray="3"/></g></g></svg>