<svg version="1.1" xmlns="http://www.w3.org/2000/svg" xmlns:xlink="http://www.w3.org/1999/xlink" width="624.71875" height="406"><defs/><g><text fill="#eeeeee" stroke="none" font-family="Arial" font-size="24px" font-style="normal" font-weight="normal" text-decoration="none" x="0" y="0"></text><text fill="#eeeeee" stroke="none" font-family="Arial" font-size="24px" font-style="normal" font-weight="normal" text-decoration="none" x="0" y="30"></text><text fill="#eeeeee" stroke="none" font-family="Arial" font-size="24px" font-style="normal" font-weight="normal" text-decoration="none" x="0" y="60"></text><text fill="#eeeeee" stroke="none" font-family="Arial" font-size="24px" font-style="normal" font-weight="normal" text-decoration="none" x="0" y="90"></text><text fill="#eeeeee" stroke="none" font-family="Arial" font-size="24px" font-style="normal" font-weight="normal" text-decoration="none" x="0" y="120"></text><text fill="#eeeeee" stroke="none" font-family="Arial" font-size="24px" font-style="normal" font-weight="normal" text-decoration="none" x="0" y="150"></text><text fill="#eeeeee" stroke="none" font-family="Arial" font-size="24px" font-style="normal" font-weight="normal" text-decoration="none" x="0" y="180"></text><text fill="#eeeeee" stroke="none" font-family="Arial" font-size="24px" font-style="normal" font-weight="normal" text-decoration="none" x="0" y="210"></text><text fill="#eeeeee" stroke="none" font-family="Arial" font-size="24px" font-style="normal" font-weight="normal" text-decoration="none" x="0" y="240"></text><text fill="#eeeeee" stroke="none" font-family="Arial" font-size="24px" font-style="normal" font-weight="normal" text-decoration="none" x="0" y="270"></text><text fill="#eeeeee" stroke="none" font-family="Arial" font-size="24px" font-style="normal" font-weight="normal" text-decoration="none" x="0" y="300"></text><text fill="#eeeeee" stroke="none" font-family="Arial" font-size="24px" font-style="normal" font-weight="normal" text-decoration="none" x="0" y="330"></text><text fill="#eeeeee" stroke="none" font-family="Arial" font-size="24px" font-style="normal" font-weight="normal" text-decoration="none" x="0" y="360"></text><text fill="#eeeeee" stroke="none" font-family="Arial" font-size="24px" font-style="normal" font-weight="normal" text-decoration="none" x="0" y="390"></text><text fill="#eeeeee" stroke="none" font-family="Arial" font-size="24px" font-style="normal" font-weight="normal" text-decoration="none" x="200" y="0"></text><text fill="#eeeeee" stroke="none" font-family="Arial" font-size="24px" font-style="normal" font-weight="normal" text-decoration="none" x="200" y="30"></text><text fill="#eeeeee" stroke="none" font-family="Arial" font-size="24px" font-style="normal" font-weight="normal" text-decoration="none" x="200" y="60"></text><text fill="#eeeeee" stroke="none" font-family="Arial" font-size="24px" font-style="normal" font-weight="normal" text-decoration="none" x="200" y="90"></text><text fill="#eeeeee" stroke="none" font-family="Arial" font-size="24px" font-style="normal" font-weight="normal" text-decoration="none" x="200" y="120"></text><text fill="#eeeeee" stroke="none" font-family="Arial" font-size="24px" font-style="normal" font-weight="normal" text-decoration="none" x="200" y="150"></text><text fill="#eeeeee" stroke="none" font-family="Arial" font-size="24px" font-style="normal" font-weight="normal" text-decoration="none" x="200" y="180"></text><text fill="#eeeeee" stroke="none" font-family="Arial" font-size="24px" font-style="normal" font-weight="normal" text-decoration="none" x="200" y="210"></text><text fill="#eeeeee" stroke="none" font-family="Arial" font-size="24px" font-style="normal" font-weight="normal" text-decoration="none" x="200" y="240"></text><text fill="#eeeeee" stroke="none" font-family="Arial" font-size="24px" font-style="normal" font-weight="normal" text-decoration="none" x="200" y="270"></text><text fill="#eeeeee" stroke="none" font-family="Arial" font-size="24px" font-style="normal" font-weight="normal" text-decoration="none" x="200" y="300"></text><text fill="#eeeeee" stroke="none" font-family="Arial" font-size="24px" font-style="normal" font-weight="normal" text-decoration="none" x="200" y="330"></text><text fill="#eeeeee" stroke="none" font-family="Arial" font-size="24px" font-style="normal" font-weight="normal" text-decoration="none" x="200" y="360"></text><text fill="#eeeeee" stroke="none" font-family="Arial" font-size="24px" font-style="normal" font-weight="normal" text-decoration="none" x="200" y="390"></text><text fill="#eeeeee" stroke="none" font-family="Arial" font-size="24px" font-style="normal" font-weight="normal" text-decoration="none" x="400" y="0"></text><text fill="#eeeeee" stroke="none" font-family="Arial" font-size="24px" font-style="normal" font-weight="normal" text-decoration="none" x="400" y="30"></text><text fill="#eeeeee" stroke="none" font-family="Arial" font-size="24px" font-style="normal" font-weight="normal" text-decoration="none" x="400" y="60"></text><text fill="#eeeeee" stroke="none" font-family="Arial" font-size="24px" font-style="normal" font-weight="normal" text-decoration="none" x="400" y="90"></text><text fill="#eeeeee" stroke="none" font-family="Arial" font-size="24px" font-style="normal" font-weight="normal" text-decoration="none" x="400" y="120"></text><text fill="#eeeeee" stroke="none" font-family="Arial" font-size="24px" font-style="normal" font-weight="normal" text-decoration="none" x="400" y="150"></text><text fill="#eeeeee" stroke="none" font-family="Arial" font-size="24px" font-style="normal" font-weight="normal" text-decoration="none" x="400" y="180"></text><text fill="#eeeeee" stroke="none" font-family="Arial" font-size="24px" font-style="normal" font-weight="normal" text-decoration="none" x="400" y="210"></text><text fill="#eeeeee" stroke="none" font-family="Arial" font-size="24px" font-style="normal" font-weight="normal" text-decoration="none" x="400" y="240"></text><text fill="#eeeeee" stroke="none" font-family="Arial" font-size="24px" font-style="normal" font-weight="normal" text-decoration="none" x="400" y="270"></text><text fill="#eeeeee" stroke="none" font-family="Arial" font-size="24px" font-style="normal" font-weight="normal" text-decoration="none" x="400" y="300"></text><text fill="#eeeeee" stroke="none" font-family="Arial" font-size="24px" font-style="normal" font-weight="normal" text-decoration="none" x="400" y="330"></text><text fill="#eeeeee" stroke="none" font-family="Arial" font-size="24px" font-style="normal" font-weight="normal" text-decoration="none" x="400" y="360"></text><text fill="#eeeeee" stroke="none" font-family="Arial" font-size="24px" font-style="normal" font-weight="normal" text-decoration="none" x="400" y="390"></text><text fill="#eeeeee" stroke="none" font-family="Arial" font-size="24px" font-style="normal" font-weight="normal" text-decoration="none" x="600" y="0"></text><text fill="#eeeeee" stroke="none" font-family="Arial" font-size="24px" font-style="normal" font-weight="normal" text-decoration="none" x="600" y="30"></text><text fill="#eeeeee" stroke="none" font-family="Arial" font-size="24px" font-style="normal" font-weight="normal" text-decoration="none" x="600" y="60"></text><text fill="#eeeeee" stroke="none" font-family="Arial" font-size="24px" font-style="normal" font-weight="normal" text-decoration="none" x="600" y="90"></text><text fill="#eeeeee" stroke="none" font-family="Arial" font-size="24px" font-style="normal" font-weight="normal" text-decoration="none" x="600" y="120"></text><text fill="#eeeeee" stroke="none" font-family="Arial" font-size="24px" font-style="normal" font-weight="normal" text-decoration="none" x="600" y="150"></text><text fill="#eeeeee" stroke="none" font-family="Arial" font-size="24px" font-style="normal" font-weight="normal" text-decoration="none" x="600" y="180"></text><text fill="#eeeeee" stroke="none" font-family="Arial" font-size="24px" font-style="normal" font-weight="normal" text-decoration="none" x="600" y="210"></text><text fill="#eeeeee" stroke="none" font-family="Arial" font-size="24px" font-style="normal" font-weight="normal" text-decoration="none" x="600" y="240"></text><text fill="#eeeeee" stroke="none" font-family="Arial" font-size="24px" font-style="normal" font-weight="normal" text-decoration="none" x="600" y="270"></text><text fill="#eeeeee" stroke="none" font-family="Arial" font-size="24px" font-style="normal" font-weight="normal" text-decoration="none" x="600" y="300"></text><text fill="#eeeeee" stroke="none" font-family="Arial" font-size="24px" font-style="normal" font-weight="normal" text-decoration="none" x="600" y="330"></text><text fill="#eeeeee" stroke="none" font-family="Arial" font-size="24px" font-style="normal" font-weight="normal" text-decoration="none" x="600" y="360"></text><text fill="#eeeeee" stroke="none" font-family="Arial" font-size="24px" font-style="normal" font-weight="normal" text-decoration="none" x="600" y="390"></text><g transform="translate(-118,-197) scale(1,1)"><path fill="#C0C0C0" stroke="none" d="M 135 272.5 C 135 267.2532944 139.2532944 263 144.5 263 C 149.7467056 263 154 267.2532944 154 272.5 C 154 277.7467056 149.7467056 282 144.5 282 C 139.2532944 282 135 277.7467056 135 272.5 Z" opacity="0.2"/></g><g transform="translate(-118,-197) scale(1,1)"><path fill="#000000" stroke="none" d="M 128 265.5 C 128 260.2532944 132.2532944 256 137.5 256 C 142.7467056 256 147 260.2532944 147 265.5 C 147 270.7467056 142.7467056 275 137.5 275 C 132.2532944 275 128 270.7467056 128 265.5 Z"/></g><g transform="translate(-118,-197) scale(1,1)"><path fill="#C0C0C0" stroke="none" d="M 209 255 L 355.447265625 255 Q 365.447265625 255 365.447265625 265 L 365.447265625 285 Q 365.447265625 295 355.447265625 295 L 209 295 Q 199 295 199 285 L 199 265 Q 199 255 209 255 Z" opacity="0.2"/></g><g transform="translate(-118,-197) scale(1,1)"><path fill="#ffffff" stroke="none" d="M 202 248 L 348.447265625 248 Q 358.447265625 248 358.447265625 258 L 358.447265625 278 Q 358.447265625 288 348.447265625 288 L 202 288 Q 192 288 192 278 L 192 258 Q 192 248 202 248 Z"/></g><g transform="translate(-118,-197) scale(1,1)"><path fill="none" stroke="#000000" d="M 202 248 L 348.447265625 248 Q 358.447265625 248 358.447265625 258 L 358.447265625 278 Q 358.447265625 288 348.447265625 288 L 202 288 Q 192 288 192 278 L 192 258 Q 192 248 202 248 Z" stroke-miterlimit="10"/></g><g transform="translate(-118,-197) scale(1,1)"><g><path fill="none" stroke="none"/><text fill="#000000" stroke="none" font-family="Arial" font-size="13px" font-style="normal" font-weight="bold" text-decoration="none" x="196.5" y="266">enter student information</text></g></g><g transform="translate(-118,-197) scale(1,1)"><path fill="#C0C0C0" stroke="none" d="M 431 275.5 L 443.5 263 L 455 275.5 L 443.5 287 L 431 275.5" opacity="0.2"/></g><g transform="translate(-118,-197) scale(1,1)"><path fill="#ffffff" stroke="none" d="M 424 268 L 436 256 L 448 268 L 436 280 L 424 268"/></g><g transform="translate(-118,-197) scale(1,1)"><path fill="none" stroke="#000000" d="M 424 268 L 436 256 L 448 268 L 436 280 L 424 268 L 424 268" stroke-miterlimit="10"/></g><g transform="translate(-118,-197) scale(1,1)"><path fill="none" stroke="#000000" d="M 148 265 L 191 266" stroke-miterlimit="10"/></g><g transform="translate(-118,-197) scale(1,1)"><path fill="none" stroke="#000000" d="M 180.7422028826507 269.97210250362457 L 191 266 L 180.9379414824055 261.55534271416747" stroke-miterlimit="10"/></g><g transform="translate(-118,-197) scale(1,1)"><path fill="none" stroke="#000000" d="M 359 268 L 423 268" stroke-miterlimit="10"/></g><g transform="translate(-118,-197) scale(1,1)"><path fill="none" stroke="#000000" d="M 412.83732514237585 272.209517756016 L 423 268 L 412.83732514237585 263.790482243984" stroke-miterlimit="10"/></g><g transform="translate(-118,-197) scale(1,1)"><path fill="none" stroke="#000000" d="M 435 255 L 432 224 L 272 224 L 274 247" stroke-miterlimit="10"/></g><g transform="translate(-118,-197) scale(1,1)"><path fill="none" stroke="#000000" d="M 268.9259189305698 237.24019973048368 L 274 247 L 277.31330382111696 236.51086191391437" stroke-miterlimit="10"/></g><g transform="translate(-118,-197) scale(1,1)"><g><path fill="none" stroke="none"/><text fill="#000000" stroke="none" font-family="Arial" font-size="13px" font-style="normal" font-weight="normal" text-decoration="none" x="280.944091796875" y="218">[there is missing filed]</text></g></g><g transform="translate(-118,-197) scale(1,1)"><path fill="#C0C0C0" stroke="none" d="M 345 335 L 536.28076171875 335 Q 546.28076171875 335 546.28076171875 345 L 546.28076171875 365 Q 546.28076171875 375 536.28076171875 375 L 345 375 Q 335 375 335 365 L 335 345 Q 335 335 345 335 Z" opacity="0.2"/></g><g transform="translate(-118,-197) scale(1,1)"><path fill="#ffffff" stroke="none" d="M 338 328 L 529.28076171875 328 Q 539.28076171875 328 539.28076171875 338 L 539.28076171875 358 Q 539.28076171875 368 529.28076171875 368 L 338 368 Q 328 368 328 358 L 328 338 Q 328 328 338 328 Z"/></g><g transform="translate(-118,-197) scale(1,1)"><path fill="none" stroke="#000000" d="M 338 328 L 529.28076171875 328 Q 539.28076171875 328 539.28076171875 338 L 539.28076171875 358 Q 539.28076171875 368 529.28076171875 368 L 338 368 Q 328 368 328 358 L 328 338 Q 328 328 338 328 Z" stroke-miterlimit="10"/></g><g transform="translate(-118,-197) scale(1,1)"><g><path fill="none" stroke="none"/><text fill="#000000" stroke="none" font-family="Arial" font-size="13px" font-style="normal" font-weight="bold" text-decoration="none" x="332.5" y="346">check and compare student data</text></g></g><g transform="translate(-118,-197) scale(1,1)"><path fill="none" stroke="#000000" d="M 436 281 L 434 327" stroke-miterlimit="10"/></g><g transform="translate(-118,-197) scale(1,1)"><path fill="none" stroke="#000000" d="M 430.23589374918504 316.6640673312673 L 434 327 L 438.6469830248906 317.02976686499363" stroke-miterlimit="10"/></g><g transform="translate(-118,-197) scale(1,1)"><g><path fill="none" stroke="none"/><text fill="#000000" stroke="none" font-family="Arial" font-size="13px" font-style="normal" font-weight="normal" text-decoration="none" x="446.5" y="307">[form completed]</text></g></g><g transform="translate(-118,-197) scale(1,1)"><path fill="#C0C0C0" stroke="none" d="M 431 411.5 L 442.5 399 L 453 411.5 L 442.5 423 L 431 411.5" opacity="0.2"/></g><g transform="translate(-118,-197) scale(1,1)"><path fill="#ffffff" stroke="none" d="M 424 404 L 435 392 L 446 404 L 435 416 L 424 404"/></g><g transform="translate(-118,-197) scale(1,1)"><path fill="none" stroke="#000000" d="M 424 404 L 435 392 L 446 404 L 435 416 L 424 404 L 424 404" stroke-miterlimit="10"/></g><g transform="translate(-118,-197) scale(1,1)"><path fill="#C0C0C0" stroke="none" d="M 225 439 L 329.59716796875 439 Q 339.59716796875 439 339.59716796875 449 L 339.59716796875 469 Q 339.59716796875 479 329.59716796875 479 L 225 479 Q 215 479 215 469 L 215 449 Q 215 439 225 439 Z" opacity="0.2"/></g><g transform="translate(-118,-197) scale(1,1)"><path fill="#ffffff" stroke="none" d="M 218 432 L 322.59716796875 432 Q 332.59716796875 432 332.59716796875 442 L 332.59716796875 462 Q 332.59716796875 472 322.59716796875 472 L 218 472 Q 208 472 208 462 L 208 442 Q 208 432 218 432 Z"/></g><g transform="translate(-118,-197) scale(1,1)"><path fill="none" stroke="#000000" d="M 218 432 L 322.59716796875 432 Q 332.59716796875 432 332.59716796875 442 L 332.59716796875 462 Q 332.59716796875 472 322.59716796875 472 L 218 472 Q 208 472 208 462 L 208 442 Q 208 432 218 432 Z" stroke-miterlimit="10"/></g><g transform="translate(-118,-197) scale(1,1)"><g><path fill="none" stroke="none"/><text fill="#000000" stroke="none" font-family="Arial" font-size="13px" font-style="normal" font-weight="bold" text-decoration="none" x="212.5" y="450">make new account</text></g></g><g transform="translate(-118,-197) scale(1,1)"><path fill="none" stroke="#000000" d="M 434 369 L 435 391" stroke-miterlimit="10"/></g><g transform="translate(-118,-197) scale(1,1)"><path fill="none" stroke="#000000" d="M 430.33336089832187 381.0389518877435 L 435 391 L 438.74371251375516 380.6566631779511" stroke-miterlimit="10"/></g><g transform="translate(-118,-197) scale(1,1)"><path fill="none" stroke="#000000" d="M 423 407 L 334 433" stroke-miterlimit="10"/></g><g transform="translate(-118,-197) scale(1,1)"><path fill="none" stroke="#000000" d="M 342.5745311334123 426.1096142457666 L 334 433 L 344.93534760174066 434.1908706181213" stroke-miterlimit="10"/></g><g transform="translate(-118,-197) scale(1,1)"><g><path fill="none" stroke="none"/><text fill="#000000" stroke="none" font-family="Arial" font-size="13px" font-style="normal" font-weight="normal" text-decoration="none" x="307.5" y="414">[correct data]</text></g></g><g transform="translate(-118,-197) scale(1,1)"><path fill="#C0C0C0" stroke="none" d="M 511 459.5 C 511 452.59644 516.59644 447 523.5 447 C 530.40356 447 536 452.59644 536 459.5 C 536 466.40356 530.40356 472 523.5 472 C 516.59644 472 511 466.40356 511 459.5 Z" opacity="0.2"/></g><g transform="translate(-118,-197) scale(1,1)"><path fill="none" stroke="#000000" d="M 504 452.5 C 504 445.59644 509.59644 440 516.5 440 C 523.40356 440 529 445.59644 529 452.5 C 529 459.40356 523.40356 465 516.5 465 C 509.59644 465 504 459.40356 504 452.5 Z" stroke-miterlimit="10"/></g><g transform="translate(-118,-197) scale(1,1)"><path fill="#000000" stroke="none" d="M 509 452.5 C 509 448.357864 512.357864 445 516.5 445 C 520.642136 445 524 448.357864 524 452.5 C 524 456.642136 520.642136 460 516.5 460 C 512.357864 460 509 456.642136 509 452.5 Z"/></g><g transform="translate(-118,-197) scale(1,1)"><path fill="none" stroke="#000000" d="M 447 411 L 503 444" stroke-miterlimit="10"/></g><g transform="translate(-118,-197) scale(1,1)"><path fill="none" stroke="#000000" d="M 492.1073249542234 442.46714960054305 L 503 444 L 496.3816045218704 435.21382669786937" stroke-miterlimit="10"/></g><g transform="translate(-118,-197) scale(1,1)"><g><path fill="none" stroke="none"/><text fill="#000000" stroke="none" font-family="Arial" font-size="13px" font-style="normal" font-weight="normal" text-decoration="none" x="465.5" y="413">[entered data do not match any student's data]</text></g></g><g transform="translate(-118,-197) scale(1,1)"><path fill="#C0C0C0" stroke="none" d="M 241 511 L 332 511 Q 342 511 342 521 L 342 541 Q 342 551 332 551 L 241 551 Q 231 551 231 541 L 231 521 Q 231 511 241 511 Z" opacity="0.2"/></g><g transform="translate(-118,-197) scale(1,1)"><path fill="#ffffff" stroke="none" d="M 234 504 L 325 504 Q 335 504 335 514 L 335 534 Q 335 544 325 544 L 234 544 Q 224 544 224 534 L 224 514 Q 224 504 234 504 Z"/></g><g transform="translate(-118,-197) scale(1,1)"><path fill="none" stroke="#000000" d="M 234 504 L 325 504 Q 335 504 335 514 L 335 534 Q 335 544 325 544 L 234 544 Q 224 544 224 534 L 224 514 Q 224 504 234 504 Z" stroke-miterlimit="10"/></g><g transform="translate(-118,-197) scale(1,1)"><g><path fill="none" stroke="none"/><text fill="#000000" stroke="none" font-family="Arial" font-size="13px" font-style="normal" font-weight="bold" text-decoration="none" x="236.89453125" y="522">log in student</text></g></g><g transform="translate(-118,-197) scale(1,1)"><path fill="none" stroke="#000000" d="M 273 473 L 276 503" stroke-miterlimit="10"/></g><g transform="translate(-118,-197) scale(1,1)"><path fill="none" stroke="#000000" d="M 270.80014933638 493.30662323666047 L 276 503 L 279.1774027765504 492.46889789264344" stroke-miterlimit="10"/></g><g transform="translate(-118,-197) scale(1,1)"><path fill="#C0C0C0" stroke="none" d="M 271 587.5 C 271 580.59644 276.59644 575 283.5 575 C 290.40356 575 296 580.59644 296 587.5 C 296 594.40356 290.40356 600 283.5 600 C 276.59644 600 271 594.40356 271 587.5 Z" opacity="0.2"/></g><g transform="translate(-118,-197) scale(1,1)"><path fill="none" stroke="#000000" d="M 264 580.5 C 264 573.59644 269.59644 568 276.5 568 C 283.40356 568 289 573.59644 289 580.5 C 289 587.40356 283.40356 593 276.5 593 C 269.59644 593 264 587.40356 264 580.5 Z" stroke-miterlimit="10"/></g><g transform="translate(-118,-197) scale(1,1)"><path fill="#000000" stroke="none" d="M 269 580.5 C 269 576.357864 272.357864 573 276.5 573 C 280.642136 573 284 576.357864 284 580.5 C 284 584.642136 280.642136 588 276.5 588 C 272.357864 588 269 584.642136 269 580.5 Z"/></g><g transform="translate(-118,-197) scale(1,1)"><path fill="none" stroke="#000000" d="M 278 545 L 277 567" stroke-miterlimit="10"/></g><g transform="translate(-118,-197) scale(1,1)"><path fill="none" stroke="#000000" d="M 273.25628748624484 556.656663177951 L 277 567 L 281.66663910167813 557.0389518877435" stroke-miterlimit="10"/></g><g transform="translate(-118,-197) scale(1,1)"><path fill="#ffffff" stroke="none" d="M 560 464 L 618 464 L 628 474 L 628 513 L 560 513 L 560 464"/></g><g transform="translate(-118,-197) scale(1,1)"><path fill="none" stroke="#000000" d="M 560 464 L 618 464 L 628 474 L 628 513 L 560 513 L 560 464 L 560 464" stroke-miterlimit="10"/></g><g transform="translate(-118,-197) scale(1,1)"><path fill="none" stroke="#000000" d="M 618 464 L 618 474 L 628 474 L 618 464" stroke-miterlimit="10"/></g><g transform="translate(-118,-197) scale(1,1)"><g><path fill="none" stroke="none"/><text fill="#000000" stroke="none" font-family="Arial" font-size="13px" font-style="normal" font-weight="normal" text-decoration="none" x="565" y="479">the use</text><text fill="#000000" stroke="none" font-family="Arial" font-size="13px" font-style="normal" font-weight="normal" text-decoration="none" x="565" y="492">case will</text><text fill="#000000" stroke="none" font-family="Arial" font-size="13px" font-style="normal" font-weight="normal" text-decoration="none" x="565" y="505">fail</text></g></g><g transform="translate(-118,-197) scale(1,1)"><path fill="none" stroke="#000000" d="M 530 459 L 559 472" stroke-miterlimit="10" stroke-dasharray="3"/></g></g></svg>