<svg version="1.1" xmlns="http://www.w3.org/2000/svg" xmlns:xlink="http://www.w3.org/1999/xlink" width="847.47265625" height="604"><defs/><g><text fill="#eeeeee" stroke="none" font-family="Arial" font-size="24px" font-style="normal" font-weight="normal" text-decoration="none" x="0" y="0"></text><text fill="#eeeeee" stroke="none" font-family="Arial" font-size="24px" font-style="normal" font-weight="normal" text-decoration="none" x="0" y="30"></text><text fill="#eeeeee" stroke="none" font-family="Arial" font-size="24px" font-style="normal" font-weight="normal" text-decoration="none" x="0" y="60"></text><text fill="#eeeeee" stroke="none" font-family="Arial" font-size="24px" font-style="normal" font-weight="normal" text-decoration="none" x="0" y="90"></text><text fill="#eeeeee" stroke="none" font-family="Arial" font-size="24px" font-style="normal" font-weight="normal" text-decoration="none" x="0" y="120"></text><text fill="#eeeeee" stroke="none" font-family="Arial" font-size="24px" font-style="normal" font-weight="normal" text-decoration="none" x="0" y="150"></text><text fill="#eeeeee" stroke="none" font-family="Arial" font-size="24px" font-style="normal" font-weight="normal" text-decoration="none" x="0" y="180"></text><text fill="#eeeeee" stroke="none" font-family="Arial" font-size="24px" font-style="normal" font-weight="normal" text-decoration="none" x="0" y="210"></text><text fill="#eeeeee" stroke="none" font-family="Arial" font-size="24px" font-style="normal" font-weight="normal" text-decoration="none" x="0" y="240"></text><text fill="#eeeeee" stroke="none" font-family="Arial" font-size="24px" font-style="normal" font-weight="normal" text-decoration="none" x="0" y="270"></text><text fill="#eeeeee" stroke="none" font-family="Arial" font-size="24px" font-style="normal" font-weight="normal" text-decoration="none" x="0" y="300"></text><text fill="#eeeeee" stroke="none" font-family="Arial" font-size="24px" font-style="normal" font-weight="normal" text-decoration="none" x="0" y="330"></text><text fill="#eeeeee" stroke="none" font-family="Arial" font-size="24px" font-style="normal" font-weight="normal" text-decoration="none" x="0" y="360"></text><text fill="#eeeeee" stroke="none" font-family="Arial" font-size="24px" font-style="normal" font-weight="normal" text-decoration="none" x="0" y="390"></text><text fill="#eeeeee" stroke="none" font-family="Arial" font-size="24px" font-style="normal" font-weight="normal" text-decoration="none" x="0" y="420"></text><text fill="#eeeeee" stroke="none" font-family="Arial" font-size="24px" font-style="normal" font-weight="normal" text-decoration="none" x="0" y="450"></text><text fill="#eeeeee" stroke="none" font-family="Arial" font-size="24px" font-style="normal" font-weight="normal" text-decoration="none" x="0" y="480"></text><text fill="#eeeeee" stroke="none" font-family="Arial" font-size="24px" font-style="normal" font-weight="normal" text-decoration="none" x="0" y="510"></text><text fill="#eeeeee" stroke="none" font-family="Arial" font-size="24px" font-style="normal" font-weight="normal" text-decoration="none" x="0" y="540"></text><text fill="#eeeeee" stroke="none" font-family="Arial" font-size="24px" font-style="normal" font-weight="normal" text-decoration="none" x="0" y="570"></text><text fill="#eeeeee" stroke="none" font-family="Arial" font-size="24px" font-style="normal" font-weight="normal" text-decoration="none" x="0" y="600"></text><text fill="#eeeeee" stroke="none" font-family="Arial" font-size="24px" font-style="normal" font-weight="normal" text-decoration="none" x="200" y="0"></text><text fill="#eeeeee" stroke="none" font-family="Arial" font-size="24px" font-style="normal" font-weight="normal" text-decoration="none" x="200" y="30"></text><text fill="#eeeeee" stroke="none" font-family="Arial" font-size="24px" font-style="normal" font-weight="normal" text-decoration="none" x="200" y="60"></text><text fill="#eeeeee" stroke="none" font-family="Arial" font-size="24px" font-style="normal" font-weight="normal" text-decoration="none" x="200" y="90"></text><text fill="#eeeeee" stroke="none" font-family="Arial" font-size="24px" font-style="normal" font-weight="normal" text-decoration="none" x="200" y="120"></text><text fill="#eeeeee" stroke="none" font-family="Arial" font-size="24px" font-style="normal" font-weight="normal" text-decoration="none" x="200" y="150"></text><text fill="#eeeeee" stroke="none" font-family="Arial" font-size="24px" font-style="normal" font-weight="normal" text-decoration="none" x="200" y="180"></text><text fill="#eeeeee" stroke="none" font-family="Arial" font-size="24px" font-style="normal" font-weight="normal" text-decoration="none" x="200" y="210"></text><text fill="#eeeeee" stroke="none" font-family="Arial" font-size="24px" font-style="normal" font-weight="normal" text-decoration="none" x="200" y="240"></text><text fill="#eeeeee" stroke="none" font-family="Arial" font-size="24px" font-style="normal" font-weight="normal" text-decoration="none" x="200" y="270"></text><text fill="#eeeeee" stroke="none" font-family="Arial" font-size="24px" font-style="normal" font-weight="normal" text-decoration="none" x="200" y="300"></text><text fill="#eeeeee" stroke="none" font-family="Arial" font-size="24px" font-style="normal" font-weight="normal" text-decoration="none" x="200" y="330"></text><text fill="#eeeeee" stroke="none" font-family="Arial" font-size="24px" font-style="normal" font-weight="normal" text-decoration="none" x="200" y="360"></text><text fill="#eeeeee" stroke="none" font-family="Arial" font-size="24px" font-style="normal" font-weight="normal" text-decoration="none" x="200" y="390"></text><text fill="#eeeeee" stroke="none" font-family="Arial" font-size="24px" font-style="normal" font-weight="normal" text-decoration="none" x="200" y="420"></text><text fill="#eeeeee" stroke="none" font-family="Arial" font-size="24px" font-style="normal" font-weight="normal" text-decoration="none" x="200" y="450"></text><text fill="#eeeeee" stroke="none" font-family="Arial" font-size="24px" font-style="normal" font-weight="normal" text-decoration="none" x="200" y="480"></text><text fill="#eeeeee" stroke="none" font-family="Arial" font-size="24px" font-style="normal" font-weight="normal" text-decoration="none" x="200" y="510"></text><text fill="#eeeeee" stroke="none" font-family="Arial" font-size="24px" font-style="normal" font-weight="normal" text-decoration="none" x="200" y="540"></text><text fill="#eeeeee" stroke="none" font-family="Arial" font-size="24px" font-style="normal" font-weight="normal" text-decoration="none" x="200" y="570"></text><text fill="#eeeeee" stroke="none" font-family="Arial" font-size="24px" font-style="normal" font-weight="normal" text-decoration="none" x="200" y="600"></text><text fill="#eeeeee" stroke="none" font-family="Arial" font-size="24px" font-style="normal" font-weight="normal" text-decoration="none" x="400" y="0"></text><text fill="#eeeeee" stroke="none" font-family="Arial" font-size="24px" font-style="normal" font-weight="normal" text-decoration="none" x="400" y="30"></text><text fill="#eeeeee" stroke="none" font-family="Arial" font-size="24px" font-style="normal" font-weight="normal" text-decoration="none" x="400" y="60"></text><text fill="#eeeeee" stroke="none" font-family="Arial" font-size="24px" font-style="normal" font-weight="normal" text-decoration="none" x="400" y="90"></text><text fill="#eeeeee" stroke="none" font-family="Arial" font-size="24px" font-style="normal" font-weight="normal" text-decoration="none" x="400" y="120"></text><text fill="#eeeeee" stroke="none" font-family="Arial" font-size="24px" font-style="normal" font-weight="normal" text-decoration="none" x="400" y="150"></text><text fill="#eeeeee" stroke="none" font-family="Arial" font-size="24px" font-style="normal" font-weight="normal" text-decoration="none" x="400" y="180"></text><text fill="#eeeeee" stroke="none" font-family="Arial" font-size="24px" font-style="normal" font-weight="normal" text-decoration="none" x="400" y="210"></text><text fill="#eeeeee" stroke="none" font-family="Arial" font-size="24px" font-style="normal" font-weight="normal" text-decoration="none" x="400" y="240"></text><text fill="#eeeeee" stroke="none" font-family="Arial" font-size="24px" font-style="normal" font-weight="normal" text-decoration="none" x="400" y="270"></text><text fill="#eeeeee" stroke="none" font-family="Arial" font-size="24px" font-style="normal" font-weight="normal" text-decoration="none" x="400" y="300"></text><text fill="#eeeeee" stroke="none" font-family="Arial" font-size="24px" font-style="normal" font-weight="normal" text-decoration="none" x="400" y="330"></text><text fill="#eeeeee" stroke="none" font-family="Arial" font-size="24px" font-style="normal" font-weight="normal" text-decoration="none" x="400" y="360"></text><text fill="#eeeeee" stroke="none" font-family="Arial" font-size="24px" font-style="normal" font-weight="normal" text-decoration="none" x="400" y="390"></text><text fill="#eeeeee" stroke="none" font-family="Arial" font-size="24px" font-style="normal" font-weight="normal" text-decoration="none" x="400" y="420"></text><text fill="#eeeeee" stroke="none" font-family="Arial" font-size="24px" font-style="normal" font-weight="normal" text-decoration="none" x="400" y="450"></text><text fill="#eeeeee" stroke="none" font-family="Arial" font-size="24px" font-style="normal" font-weight="normal" text-decoration="none" x="400" y="480"></text><text fill="#eeeeee" stroke="none" font-family="Arial" font-size="24px" font-style="normal" font-weight="normal" text-decoration="none" x="400" y="510"></text><text fill="#eeeeee" stroke="none" font-family="Arial" font-size="24px" font-style="normal" font-weight="normal" text-decoration="none" x="400" y="540"></text><text fill="#eeeeee" stroke="none" font-family="Arial" font-size="24px" font-style="normal" font-weight="normal" text-decoration="none" x="400" y="570"></text><text fill="#eeeeee" stroke="none" font-family="Arial" font-size="24px" font-style="normal" font-weight="normal" text-decoration="none" x="400" y="600"></text><text fill="#eeeeee" stroke="none" font-family="Arial" font-size="24px" font-style="normal" font-weight="normal" text-decoration="none" x="600" y="0"></text><text fill="#eeeeee" stroke="none" font-family="Arial" font-size="24px" font-style="normal" font-weight="normal" text-decoration="none" x="600" y="30"></text><text fill="#eeeeee" stroke="none" font-family="Arial" font-size="24px" font-style="normal" font-weight="normal" text-decoration="none" x="600" y="60"></text><text fill="#eeeeee" stroke="none" font-family="Arial" font-size="24px" font-style="normal" font-weight="normal" text-decoration="none" x="600" y="90"></text><text fill="#eeeeee" stroke="none" font-family="Arial" font-size="24px" font-style="normal" font-weight="normal" text-decoration="none" x="600" y="120"></text><text fill="#eeeeee" stroke="none" font-family="Arial" font-size="24px" font-style="normal" font-weight="normal" text-decoration="none" x="600" y="150"></text><text fill="#eeeeee" stroke="none" font-family="Arial" font-size="24px" font-style="normal" font-weight="normal" text-decoration="none" x="600" y="180"></text><text fill="#eeeeee" stroke="none" font-family="Arial" font-size="24px" font-style="normal" font-weight="normal" text-decoration="none" x="600" y="210"></text><text fill="#eeeeee" stroke="none" font-family="Arial" font-size="24px" font-style="normal" font-weight="normal" text-decoration="none" x="600" y="240"></text><text fill="#eeeeee" stroke="none" font-family="Arial" font-size="24px" font-style="normal" font-weight="normal" text-decoration="none" x="600" y="270"></text><text fill="#eeeeee" stroke="none" font-family="Arial" font-size="24px" font-style="normal" font-weight="normal" text-decoration="none" x="600" y="300"></text><text fill="#eeeeee" stroke="none" font-family="Arial" font-size="24px" font-style="normal" font-weight="normal" text-decoration="none" x="600" y="330"></text><text fill="#eeeeee" stroke="none" font-family="Arial" font-size="24px" font-style="normal" font-weight="normal" text-decoration="none" x="600" y="360"></text><text fill="#eeeeee" stroke="none" font-family="Arial" font-size="24px" font-style="normal" font-weight="normal" text-decoration="none" x="600" y="390"></text><text fill="#eeeeee" stroke="none" font-family="Arial" font-size="24px" font-style="normal" font-weight="normal" text-decoration="none" x="600" y="420"></text><text fill="#eeeeee" stroke="none" font-family="Arial" font-size="24px" font-style="normal" font-weight="normal" text-decoration="none" x="600" y="450"></text><text fill="#eeeeee" stroke="none" font-family="Arial" font-size="24px" font-style="normal" font-weight="normal" text-decoration="none" x="600" y="480"></text><text fill="#eeeeee" stroke="none" font-family="Arial" font-size="24px" font-style="normal" font-weight="normal" text-decoration="none" x="600" y="510"></text><text fill="#eeeeee" stroke="none" font-family="Arial" font-size="24px" font-style="normal" font-weight="normal" text-decoration="none" x="600" y="540"></text><text fill="#eeeeee" stroke="none" font-family="Arial" font-size="24px" font-style="normal" font-weight="normal" text-decoration="none" x="600" y="570"></text><text fill="#eeeeee" stroke="none" font-family="Arial" font-size="24px" font-style="normal" font-weight="normal" text-decoration="none" x="600" y="600"></text><text fill="#eeeeee" stroke="none" font-family="Arial" font-size="24px" font-style="normal" font-weight="normal" text-decoration="none" x="800" y="0"></text><text fill="#eeeeee" stroke="none" font-family="Arial" font-size="24px" font-style="normal" font-weight="normal" text-decoration="none" x="800" y="30"></text><text fill="#eeeeee" stroke="none" font-family="Arial" font-size="24px" font-style="normal" font-weight="normal" text-decoration="none" x="800" y="60"></text><text fill="#eeeeee" stroke="none" font-family="Arial" font-size="24px" font-style="normal" font-weight="normal" text-decoration="none" x="800" y="90"></text><text fill="#eeeeee" stroke="none" font-family="Arial" font-size="24px" font-style="normal" font-weight="normal" text-decoration="none" x="800" y="120"></text><text fill="#eeeeee" stroke="none" font-family="Arial" font-size="24px" font-style="normal" font-weight="normal" text-decoration="none" x="800" y="150"></text><text fill="#eeeeee" stroke="none" font-family="Arial" font-size="24px" font-style="normal" font-weight="normal" text-decoration="none" x="800" y="180"></text><text fill="#eeeeee" stroke="none" font-family="Arial" font-size="24px" font-style="normal" font-weight="normal" text-decoration="none" x="800" y="210"></text><text fill="#eeeeee" stroke="none" font-family="Arial" font-size="24px" font-style="normal" font-weight="normal" text-decoration="none" x="800" y="240"></text><text fill="#eeeeee" stroke="none" font-family="Arial" font-size="24px" font-style="normal" font-weight="normal" text-decoration="none" x="800" y="270"></text><text fill="#eeeeee" stroke="none" font-family="Arial" font-size="24px" font-style="normal" font-weight="normal" text-decoration="none" x="800" y="300"></text><text fill="#eeeeee" stroke="none" font-family="Arial" font-size="24px" font-style="normal" font-weight="normal" text-decoration="none" x="800" y="330"></text><text fill="#eeeeee" stroke="none" font-family="Arial" font-size="24px" font-style="normal" font-weight="normal" text-decoration="none" x="800" y="360"></text><text fill="#eeeeee" stroke="none" font-family="Arial" font-size="24px" font-style="normal" font-weight="normal" text-decoration="none" x="800" y="390"></text><text fill="#eeeeee" stroke="none" font-family="Arial" font-size="24px" font-style="normal" font-weight="normal" text-decoration="none" x="800" y="420"></text><text fill="#eeeeee" stroke="none" font-family="Arial" font-size="24px" font-style="normal" font-weight="normal" text-decoration="none" x="800" y="450"></text><text fill="#eeeeee" stroke="none" font-family="Arial" font-size="24px" font-style="normal" font-weight="normal" text-decoration="none" x="800" y="480"></text><text fill="#eeeeee" stroke="none" font-family="Arial" font-size="24px" font-style="normal" font-weight="normal" text-decoration="none" x="800" y="510"></text><text fill="#eeeeee" stroke="none" font-family="Arial" font-size="24px" font-style="normal" font-weight="normal" text-decoration="none" x="800" y="540"></text><text fill="#eeeeee" stroke="none" font-family="Arial" font-size="24px" font-style="normal" font-weight="normal" text-decoration="none" x="800" y="570"></text><text fill="#eeeeee" stroke="none" font-family="Arial" font-size="24px" font-style="normal" font-weight="normal" text-decoration="none" x="800" y="600"></text><g transform="translate(-46,-230) scale(1,1)"><rect fill="#C0C0C0" stroke="none" x="191" y="247" width="560" height="584" opacity="0.2"/></g><g transform="translate(-46,-230) scale(1,1)"><rect fill="#ffffff" stroke="none" x="184" y="240" width="560" height="584"/></g><g transform="translate(-46,-230) scale(1,1)"><path fill="none" stroke="#000000" d="M 184 240 L 744 240 L 744 824 L 184 824 L 184 240 Z Z" stroke-miterlimit="10"/></g><g transform="translate(-46,-230) scale(1,1)"><g><path fill="none" stroke="none"/><text fill="#000000" stroke="none" font-family="Arial" font-size="13px" font-style="normal" font-weight="bold" text-decoration="none" x="381.274169921875" y="258">UseCaseDiagram - sprint 2</text></g></g><g transform="translate(-46,-230) scale(1,1)"><path fill="#ffffff" stroke="none" d="M 75.29118625710227 377.68 C 75.29118625710227 372.886167936 79.17702858204773 369 83.970458984375 369 C 88.76388938670227 369 92.64973171164773 372.886167936 92.64973171164773 377.68 C 92.64973171164773 382.473832064 88.76388938670227 386.36 83.970458984375 386.36 C 79.17702858204773 386.36 75.29118625710227 382.473832064 75.29118625710227 377.68 Z"/></g><g transform="translate(-46,-230) scale(1,1)"><path fill="none" stroke="#000000" d="M 75.29118625710227 377.68 C 75.29118625710227 372.886167936 79.17702858204773 369 83.970458984375 369 C 88.76388938670227 369 92.64973171164773 372.886167936 92.64973171164773 377.68 C 92.64973171164773 382.473832064 88.76388938670227 386.36 83.970458984375 386.36 C 79.17702858204773 386.36 75.29118625710227 382.473832064 75.29118625710227 377.68 Z" stroke-miterlimit="10"/></g><g transform="translate(-46,-230) scale(1,1)"><path fill="none" stroke="#000000" d="M 83.970458984375 386.36 L 83.970458984375 403.64" stroke-miterlimit="10"/></g><g transform="translate(-46,-230) scale(1,1)"><path fill="none" stroke="#000000" d="M 74.78064080255682 392.84 L 93.16027716619318 392.84" stroke-miterlimit="10"/></g><g transform="translate(-46,-230) scale(1,1)"><path fill="none" stroke="#000000" d="M 83.970458984375 403.64 L 71.20682262073863 421" stroke-miterlimit="10"/></g><g transform="translate(-46,-230) scale(1,1)"><path fill="none" stroke="#000000" d="M 83.970458984375 403.64 L 96.73409534801137 421" stroke-miterlimit="10"/></g><g transform="translate(-46,-230) scale(1,1)"><g><path fill="none" stroke="none"/><text fill="#000000" stroke="none" font-family="Arial" font-size="13px" font-style="normal" font-weight="bold" text-decoration="none" x="60.5" y="440">student</text></g></g><g transform="translate(-46,-230) scale(1,1)"><path fill="#ffffff" stroke="none" d="M 837.0570553977273 465.68 C 837.0570553977273 460.886167936 840.9428977226727 457 845.736328125 457 C 850.5297585273273 457 854.4156008522727 460.886167936 854.4156008522727 465.68 C 854.4156008522727 470.473832064 850.5297585273273 474.36 845.736328125 474.36 C 840.9428977226727 474.36 837.0570553977273 470.473832064 837.0570553977273 465.68 Z"/></g><g transform="translate(-46,-230) scale(1,1)"><path fill="none" stroke="#000000" d="M 837.0570553977273 465.68 C 837.0570553977273 460.886167936 840.9428977226727 457 845.736328125 457 C 850.5297585273273 457 854.4156008522727 460.886167936 854.4156008522727 465.68 C 854.4156008522727 470.473832064 850.5297585273273 474.36 845.736328125 474.36 C 840.9428977226727 474.36 837.0570553977273 470.473832064 837.0570553977273 465.68 Z" stroke-miterlimit="10"/></g><g transform="translate(-46,-230) scale(1,1)"><path fill="none" stroke="#000000" d="M 845.736328125 474.36 L 845.736328125 491.64" stroke-miterlimit="10"/></g><g transform="translate(-46,-230) scale(1,1)"><path fill="none" stroke="#000000" d="M 836.5465099431818 480.84 L 854.9261463068182 480.84" stroke-miterlimit="10"/></g><g transform="translate(-46,-230) scale(1,1)"><path fill="none" stroke="#000000" d="M 845.736328125 491.64 L 832.9726917613636 509" stroke-miterlimit="10"/></g><g transform="translate(-46,-230) scale(1,1)"><path fill="none" stroke="#000000" d="M 845.736328125 491.64 L 858.4999644886364 509" stroke-miterlimit="10"/></g><g transform="translate(-46,-230) scale(1,1)"><g><path fill="none" stroke="none"/><text fill="#000000" stroke="none" font-family="Arial" font-size="13px" font-style="normal" font-weight="bold" text-decoration="none" x="812.5" y="528">supervisor</text></g></g><g transform="translate(-46,-230) scale(1,1)"><path fill="#ffffff" stroke="none" d="M 89.80705539772727 513.6800000000001 C 89.80705539772727 508.88616793600005 93.69289772267273 505 98.486328125 505 C 103.27975852732727 505 107.16560085227273 508.88616793600005 107.16560085227273 513.6800000000001 C 107.16560085227273 518.473832064 103.27975852732727 522.36 98.486328125 522.36 C 93.69289772267273 522.36 89.80705539772727 518.473832064 89.80705539772727 513.6800000000001 Z"/></g><g transform="translate(-46,-230) scale(1,1)"><path fill="none" stroke="#000000" d="M 89.80705539772727 513.6800000000001 C 89.80705539772727 508.88616793600005 93.69289772267273 505 98.486328125 505 C 103.27975852732727 505 107.16560085227273 508.88616793600005 107.16560085227273 513.6800000000001 C 107.16560085227273 518.473832064 103.27975852732727 522.36 98.486328125 522.36 C 93.69289772267273 522.36 89.80705539772727 518.473832064 89.80705539772727 513.6800000000001 Z" stroke-miterlimit="10"/></g><g transform="translate(-46,-230) scale(1,1)"><path fill="none" stroke="#000000" d="M 98.486328125 522.36 L 98.486328125 539.64" stroke-miterlimit="10"/></g><g transform="translate(-46,-230) scale(1,1)"><path fill="none" stroke="#000000" d="M 89.29650994318182 528.84 L 107.67614630681818 528.84" stroke-miterlimit="10"/></g><g transform="translate(-46,-230) scale(1,1)"><path fill="none" stroke="#000000" d="M 98.486328125 539.64 L 85.72269176136363 557" stroke-miterlimit="10"/></g><g transform="translate(-46,-230) scale(1,1)"><path fill="none" stroke="#000000" d="M 98.486328125 539.64 L 111.24996448863637 557" stroke-miterlimit="10"/></g><g transform="translate(-46,-230) scale(1,1)"><g><path fill="none" stroke="none"/><text fill="#000000" stroke="none" font-family="Arial" font-size="13px" font-style="normal" font-weight="bold" text-decoration="none" x="68.5" y="576">employee</text></g></g><g transform="translate(-46,-230) scale(1,1)"><path fill="#C0C0C0" stroke="none" d="M 415 537 C 415 522.6405952 447.6832096 511 488 511 C 528.3167904 511 561 522.6405952 561 537 C 561 551.3594048 528.3167904 563 488 563 C 447.6832096 563 415 551.3594048 415 537 Z" opacity="0.2"/></g><g transform="translate(-46,-230) scale(1,1)"><path fill="#ffffff" stroke="none" d="M 408 530 C 408 515.6405952 440.6832096 504 481 504 C 521.3167904 504 554 515.6405952 554 530 C 554 544.3594048 521.3167904 556 481 556 C 440.6832096 556 408 544.3594048 408 530 Z"/></g><g transform="translate(-46,-230) scale(1,1)"><path fill="none" stroke="#000000" d="M 408 530 C 408 515.6405952 440.6832096 504 481 504 C 521.3167904 504 554 515.6405952 554 530 C 554 544.3594048 521.3167904 556 481 556 C 440.6832096 556 408 544.3594048 408 530 Z" stroke-miterlimit="10"/></g><g transform="translate(-46,-230) scale(1,1)"><g><path fill="none" stroke="none"/><text fill="#000000" stroke="none" font-family="Arial" font-size="13px" font-style="normal" font-weight="normal" text-decoration="none" x="454.9873046875" y="527">«UC-04»</text></g></g><g transform="translate(-46,-230) scale(1,1)"><g><path fill="none" stroke="none"/><text fill="#000000" stroke="none" font-family="Arial" font-size="13px" font-style="normal" font-weight="bold" text-decoration="none" x="433.67822265625" y="542">register project</text></g></g><g transform="translate(-46,-230) scale(1,1)"><path fill="#C0C0C0" stroke="none" d="M 239 369 C 239 354.6405952 261.6096176 343 289.5 343 C 317.3903824 343 340 354.6405952 340 369 C 340 383.3594048 317.3903824 395 289.5 395 C 261.6096176 395 239 383.3594048 239 369 Z" opacity="0.2"/></g><g transform="translate(-46,-230) scale(1,1)"><path fill="#ffffff" stroke="none" d="M 232 362 C 232 347.6405952 254.6096176 336 282.5 336 C 310.3903824 336 333 347.6405952 333 362 C 333 376.3594048 310.3903824 388 282.5 388 C 254.6096176 388 232 376.3594048 232 362 Z"/></g><g transform="translate(-46,-230) scale(1,1)"><path fill="none" stroke="#000000" d="M 232 362 C 232 347.6405952 254.6096176 336 282.5 336 C 310.3903824 336 333 347.6405952 333 362 C 333 376.3594048 310.3903824 388 282.5 388 C 254.6096176 388 232 376.3594048 232 362 Z" stroke-miterlimit="10"/></g><g transform="translate(-46,-230) scale(1,1)"><g><path fill="none" stroke="none"/><text fill="#000000" stroke="none" font-family="Arial" font-size="13px" font-style="normal" font-weight="normal" text-decoration="none" x="256.4873046875" y="359">«UC-01»</text></g></g><g transform="translate(-46,-230) scale(1,1)"><g><path fill="none" stroke="none"/><text fill="#000000" stroke="none" font-family="Arial" font-size="13px" font-style="normal" font-weight="bold" text-decoration="none" x="261.555908203125" y="374">sign in</text></g></g><g transform="translate(-46,-230) scale(1,1)"><path fill="#C0C0C0" stroke="none" d="M 199 281 C 199 266.6405952 238.17508 255 286.5 255 C 334.82492 255 374 266.6405952 374 281 C 374 295.3594048 334.82492 307 286.5 307 C 238.17508 307 199 295.3594048 199 281 Z" opacity="0.2"/></g><g transform="translate(-46,-230) scale(1,1)"><path fill="#ffffff" stroke="none" d="M 192 274 C 192 259.6405952 231.17508 248 279.5 248 C 327.82492 248 367 259.6405952 367 274 C 367 288.3594048 327.82492 300 279.5 300 C 231.17508 300 192 288.3594048 192 274 Z"/></g><g transform="translate(-46,-230) scale(1,1)"><path fill="none" stroke="#000000" d="M 192 274 C 192 259.6405952 231.17508 248 279.5 248 C 327.82492 248 367 259.6405952 367 274 C 367 288.3594048 327.82492 300 279.5 300 C 231.17508 300 192 288.3594048 192 274 Z" stroke-miterlimit="10"/></g><g transform="translate(-46,-230) scale(1,1)"><g><path fill="none" stroke="none"/><text fill="#000000" stroke="none" font-family="Arial" font-size="13px" font-style="normal" font-weight="normal" text-decoration="none" x="253.4873046875" y="271">«UC-02»</text></g></g><g transform="translate(-46,-230) scale(1,1)"><g><path fill="none" stroke="none"/><text fill="#000000" stroke="none" font-family="Arial" font-size="13px" font-style="normal" font-weight="bold" text-decoration="none" x="222.075927734375" y="286">check student info</text></g></g><g transform="translate(-46,-230) scale(1,1)"><path fill="#C0C0C0" stroke="none" d="M 439 353 C 439 338.6405952 461.6096176 327 489.5 327 C 517.3903824 327 540 338.6405952 540 353 C 540 367.3594048 517.3903824 379 489.5 379 C 461.6096176 379 439 367.3594048 439 353 Z" opacity="0.2"/></g><g transform="translate(-46,-230) scale(1,1)"><path fill="#ffffff" stroke="none" d="M 432 346 C 432 331.6405952 454.6096176 320 482.5 320 C 510.3903824 320 533 331.6405952 533 346 C 533 360.3594048 510.3903824 372 482.5 372 C 454.6096176 372 432 360.3594048 432 346 Z"/></g><g transform="translate(-46,-230) scale(1,1)"><path fill="none" stroke="#000000" d="M 432 346 C 432 331.6405952 454.6096176 320 482.5 320 C 510.3903824 320 533 331.6405952 533 346 C 533 360.3594048 510.3903824 372 482.5 372 C 454.6096176 372 432 360.3594048 432 346 Z" stroke-miterlimit="10"/></g><g transform="translate(-46,-230) scale(1,1)"><g><path fill="none" stroke="none"/><text fill="#000000" stroke="none" font-family="Arial" font-size="13px" font-style="normal" font-weight="normal" text-decoration="none" x="456.4873046875" y="343">«UC-03»</text></g></g><g transform="translate(-46,-230) scale(1,1)"><g><path fill="none" stroke="none"/><text fill="#000000" stroke="none" font-family="Arial" font-size="13px" font-style="normal" font-weight="bold" text-decoration="none" x="465.1708984375" y="358">log in</text></g></g><g transform="translate(-46,-230) scale(1,1)"><path fill="#C0C0C0" stroke="none" d="M 599 633 C 599 618.6405952 629.4446336 607 667 607 C 704.5553664 607 735 618.6405952 735 633 C 735 647.3594048 704.5553664 659 667 659 C 629.4446336 659 599 647.3594048 599 633 Z" opacity="0.2"/></g><g transform="translate(-46,-230) scale(1,1)"><path fill="#ffffff" stroke="none" d="M 592 626 C 592 611.6405952 622.4446336 600 660 600 C 697.5553664 600 728 611.6405952 728 626 C 728 640.3594048 697.5553664 652 660 652 C 622.4446336 652 592 640.3594048 592 626 Z"/></g><g transform="translate(-46,-230) scale(1,1)"><path fill="none" stroke="#000000" d="M 592 626 C 592 611.6405952 622.4446336 600 660 600 C 697.5553664 600 728 611.6405952 728 626 C 728 640.3594048 697.5553664 652 660 652 C 622.4446336 652 592 640.3594048 592 626 Z" stroke-miterlimit="10"/></g><g transform="translate(-46,-230) scale(1,1)"><g><path fill="none" stroke="none"/><text fill="#000000" stroke="none" font-family="Arial" font-size="13px" font-style="normal" font-weight="normal" text-decoration="none" x="633.9873046875" y="623">«UC-07»</text></g></g><g transform="translate(-46,-230) scale(1,1)"><g><path fill="none" stroke="none"/><text fill="#000000" stroke="none" font-family="Arial" font-size="13px" font-style="normal" font-weight="bold" text-decoration="none" x="622.425048828125" y="637.5">accept team</text></g></g><g transform="translate(-46,-230) scale(1,1)"><path fill="#C0C0C0" stroke="none" d="M 631 569 C 631 554.6405952 655.624336 543 686 543 C 716.375664 543 741 554.6405952 741 569 C 741 583.3594048 716.375664 595 686 595 C 655.624336 595 631 583.3594048 631 569 Z" opacity="0.2"/></g><g transform="translate(-46,-230) scale(1,1)"><path fill="#ffffff" stroke="none" d="M 624 562 C 624 547.6405952 648.624336 536 679 536 C 709.375664 536 734 547.6405952 734 562 C 734 576.3594048 709.375664 588 679 588 C 648.624336 588 624 576.3594048 624 562 Z"/></g><g transform="translate(-46,-230) scale(1,1)"><path fill="none" stroke="#000000" d="M 624 562 C 624 547.6405952 648.624336 536 679 536 C 709.375664 536 734 547.6405952 734 562 C 734 576.3594048 709.375664 588 679 588 C 648.624336 588 624 576.3594048 624 562 Z" stroke-miterlimit="10"/></g><g transform="translate(-46,-230) scale(1,1)"><g><path fill="none" stroke="none"/><text fill="#000000" stroke="none" font-family="Arial" font-size="13px" font-style="normal" font-weight="normal" text-decoration="none" x="652.9873046875" y="559">«UC-08»</text></g></g><g transform="translate(-46,-230) scale(1,1)"><g><path fill="none" stroke="none"/><text fill="#000000" stroke="none" font-family="Arial" font-size="13px" font-style="normal" font-weight="bold" text-decoration="none" x="644.675048828125" y="574">reject team</text></g></g><g transform="translate(-46,-230) scale(1,1)"><path fill="#C0C0C0" stroke="none" d="M 463 793 C 463 778.6405952 523.2176944 767 597.5 767 C 671.7823056 767 732 778.6405952 732 793 C 732 807.3594048 671.7823056 819 597.5 819 C 523.2176944 819 463 807.3594048 463 793 Z" opacity="0.2"/></g><g transform="translate(-46,-230) scale(1,1)"><path fill="#ffffff" stroke="none" d="M 456 786 C 456 771.6405952 516.2176944 760 590.5 760 C 664.7823056 760 725 771.6405952 725 786 C 725 800.3594048 664.7823056 812 590.5 812 C 516.2176944 812 456 800.3594048 456 786 Z"/></g><g transform="translate(-46,-230) scale(1,1)"><path fill="none" stroke="#000000" d="M 456 786 C 456 771.6405952 516.2176944 760 590.5 760 C 664.7823056 760 725 771.6405952 725 786 C 725 800.3594048 664.7823056 812 590.5 812 C 516.2176944 812 456 800.3594048 456 786 Z" stroke-miterlimit="10"/></g><g transform="translate(-46,-230) scale(1,1)"><g><path fill="none" stroke="none"/><text fill="#000000" stroke="none" font-family="Arial" font-size="13px" font-style="normal" font-weight="normal" text-decoration="none" x="564.4873046875" y="783">«UC-06»</text></g></g><g transform="translate(-46,-230) scale(1,1)"><g><path fill="none" stroke="none"/><text fill="#000000" stroke="none" font-family="Arial" font-size="13px" font-style="normal" font-weight="bold" text-decoration="none" x="499.8427734375" y="798">check registration conditions</text></g></g><g transform="translate(-46,-230) scale(1,1)"><path fill="#C0C0C0" stroke="none" d="M 239 737 C 239 722.6405952 301.68012799999997 711 379 711 C 456.31987200000003 711 519 722.6405952 519 737 C 519 751.3594048 456.31987200000003 763 379 763 C 301.68012799999997 763 239 751.3594048 239 737 Z" opacity="0.2"/></g><g transform="translate(-46,-230) scale(1,1)"><path fill="#ffffff" stroke="none" d="M 232 730 C 232 715.6405952 294.68012799999997 704 372 704 C 449.31987200000003 704 512 715.6405952 512 730 C 512 744.3594048 449.31987200000003 756 372 756 C 294.68012799999997 756 232 744.3594048 232 730 Z"/></g><g transform="translate(-46,-230) scale(1,1)"><path fill="none" stroke="#000000" d="M 232 730 C 232 715.6405952 294.68012799999997 704 372 704 C 449.31987200000003 704 512 715.6405952 512 730 C 512 744.3594048 449.31987200000003 756 372 756 C 294.68012799999997 756 232 744.3594048 232 730 Z" stroke-miterlimit="10"/></g><g transform="translate(-46,-230) scale(1,1)"><g><path fill="none" stroke="none"/><text fill="#000000" stroke="none" font-family="Arial" font-size="13px" font-style="normal" font-weight="normal" text-decoration="none" x="345.9873046875" y="727">«UC-05»</text></g></g><g transform="translate(-46,-230) scale(1,1)"><g><path fill="none" stroke="none"/><text fill="#000000" stroke="none" font-family="Arial" font-size="13px" font-style="normal" font-weight="bold" text-decoration="none" x="277.34375" y="742">get team members acceptance</text></g></g><g transform="translate(-46,-230) scale(1,1)"><path fill="#C0C0C0" stroke="none" d="M 263 433 C 263 418.6405952 293.6684912 407 331.5 407 C 369.3315088 407 400 418.6405952 400 433 C 400 447.3594048 369.3315088 459 331.5 459 C 293.6684912 459 263 447.3594048 263 433 Z" opacity="0.2"/></g><g transform="translate(-46,-230) scale(1,1)"><path fill="#ffffff" stroke="none" d="M 256 426 C 256 411.6405952 286.6684912 400 324.5 400 C 362.3315088 400 393 411.6405952 393 426 C 393 440.3594048 362.3315088 452 324.5 452 C 286.6684912 452 256 440.3594048 256 426 Z"/></g><g transform="translate(-46,-230) scale(1,1)"><path fill="none" stroke="#000000" d="M 256 426 C 256 411.6405952 286.6684912 400 324.5 400 C 362.3315088 400 393 411.6405952 393 426 C 393 440.3594048 362.3315088 452 324.5 452 C 286.6684912 452 256 440.3594048 256 426 Z" stroke-miterlimit="10"/></g><g transform="translate(-46,-230) scale(1,1)"><g><path fill="none" stroke="none"/><text fill="#000000" stroke="none" font-family="Arial" font-size="13px" font-style="normal" font-weight="normal" text-decoration="none" x="298.4873046875" y="423">«UC-09»</text></g></g><g transform="translate(-46,-230) scale(1,1)"><g><path fill="none" stroke="none"/><text fill="#000000" stroke="none" font-family="Arial" font-size="13px" font-style="normal" font-weight="bold" text-decoration="none" x="280.42822265625" y="438">delete request</text></g></g><g transform="translate(-46,-230) scale(1,1)"><path fill="#C0C0C0" stroke="none" d="M 575 417 C 575 402.6405952 613.9512224 391 662 391 C 710.0487776 391 749 402.6405952 749 417 C 749 431.3594048 710.0487776 443 662 443 C 613.9512224 443 575 431.3594048 575 417 Z" opacity="0.2"/></g><g transform="translate(-46,-230) scale(1,1)"><path fill="#ffffff" stroke="none" d="M 568 410 C 568 395.6405952 606.9512224 384 655 384 C 703.0487776 384 742 395.6405952 742 410 C 742 424.3594048 703.0487776 436 655 436 C 606.9512224 436 568 424.3594048 568 410 Z"/></g><g transform="translate(-46,-230) scale(1,1)"><path fill="none" stroke="#000000" d="M 568 410 C 568 395.6405952 606.9512224 384 655 384 C 703.0487776 384 742 395.6405952 742 410 C 742 424.3594048 703.0487776 436 655 436 C 606.9512224 436 568 424.3594048 568 410 Z" stroke-miterlimit="10"/></g><g transform="translate(-46,-230) scale(1,1)"><g><path fill="none" stroke="none"/><text fill="#000000" stroke="none" font-family="Arial" font-size="13px" font-style="normal" font-weight="normal" text-decoration="none" x="628.9873046875" y="407">«UC-10»</text></g></g><g transform="translate(-46,-230) scale(1,1)"><g><path fill="none" stroke="none"/><text fill="#000000" stroke="none" font-family="Arial" font-size="13px" font-style="normal" font-weight="bold" text-decoration="none" x="597.92822265625" y="422">display project list</text></g></g><g transform="translate(-46,-230) scale(1,1)"><path fill="#C0C0C0" stroke="none" d="M 583 305 C 583 290.6405952 616.8024976 279 658.5 279 C 700.1975024 279 734 290.6405952 734 305 C 734 319.3594048 700.1975024 331 658.5 331 C 616.8024976 331 583 319.3594048 583 305 Z" opacity="0.2"/></g><g transform="translate(-46,-230) scale(1,1)"><path fill="#ffffff" stroke="none" d="M 576 298 C 576 283.6405952 609.8024976 272 651.5 272 C 693.1975024 272 727 283.6405952 727 298 C 727 312.3594048 693.1975024 324 651.5 324 C 609.8024976 324 576 312.3594048 576 298 Z"/></g><g transform="translate(-46,-230) scale(1,1)"><path fill="none" stroke="#000000" d="M 576 298 C 576 283.6405952 609.8024976 272 651.5 272 C 693.1975024 272 727 283.6405952 727 298 C 727 312.3594048 693.1975024 324 651.5 324 C 609.8024976 324 576 312.3594048 576 298 Z" stroke-miterlimit="10"/></g><g transform="translate(-46,-230) scale(1,1)"><g><path fill="none" stroke="none"/><text fill="#000000" stroke="none" font-family="Arial" font-size="13px" font-style="normal" font-weight="normal" text-decoration="none" x="625.9697265625" y="295">«UC-11»</text></g></g><g transform="translate(-46,-230) scale(1,1)"><g><path fill="none" stroke="none"/><text fill="#000000" stroke="none" font-family="Arial" font-size="13px" font-style="normal" font-weight="bold" text-decoration="none" x="602.740478515625" y="310">filter project list</text></g></g><g transform="translate(-46,-230) scale(1,1)"><path fill="none" stroke="#000000" d="M 567 431 L 134 534" stroke-miterlimit="10"/></g><g transform="translate(-46,-230) scale(1,1)"><path fill="none" stroke="#000000" d="M 113 400 L 231 374" stroke-miterlimit="10"/></g><g transform="translate(-46,-230) scale(1,1)"><path fill="none" stroke="#000000" d="M 113 416 L 407 507" stroke-miterlimit="10"/></g><g transform="translate(-46,-230) scale(1,1)"><path fill="none" stroke="#000000" d="M 807 499 L 555 523" stroke-miterlimit="10"/></g><g transform="translate(-46,-230) scale(1,1)"><path fill="none" stroke="#000000" d="M 134 542 L 407 533" stroke-miterlimit="10"/></g><g transform="translate(-46,-230) scale(1,1)"><path fill="none" stroke="#000000" d="M 281 335 L 280 301" stroke-miterlimit="10" stroke-dasharray="3"/></g><g transform="translate(-46,-230) scale(1,1)"><path fill="none" stroke="#000000" d="M 284.5064712133113 311.03452625705853 L 280 301 L 276.0910747917938 311.2820379165149" stroke-miterlimit="10"/></g><g transform="translate(-46,-230) scale(1,1)"><g><path fill="none" stroke="none"/><text fill="#000000" stroke="none" font-family="Arial" font-size="13px" font-style="normal" font-weight="normal" text-decoration="none" x="225.5" y="320">«include»</text></g></g><g transform="translate(-46,-230) scale(1,1)"><path fill="none" stroke="#000000" d="M 654 383 L 652 325" stroke-miterlimit="10" stroke-dasharray="3"/></g><g transform="translate(-46,-230) scale(1,1)"><path fill="none" stroke="#000000" d="M 656.5572462039613 335.01156866012917 L 652 325 L 648.1432116044656 335.30170778424974" stroke-miterlimit="10"/></g><g transform="translate(-46,-230) scale(1,1)"><g><path fill="none" stroke="none"/><text fill="#000000" stroke="none" font-family="Arial" font-size="13px" font-style="normal" font-weight="normal" text-decoration="none" x="596.5" y="360">«extend»</text></g></g><g transform="translate(-46,-230) scale(1,1)"><path fill="none" stroke="#000000" d="M 355 301 L 431 328" stroke-miterlimit="10" stroke-dasharray="3"/></g><g transform="translate(-46,-230) scale(1,1)"><path fill="none" stroke="#000000" d="M 420.0144954962698 328.56452705738826 L 431 328 L 422.8328943602145 320.63125618109956" stroke-miterlimit="10"/></g><g transform="translate(-46,-230) scale(1,1)"><g><path fill="none" stroke="none"/><text fill="#000000" stroke="none" font-family="Arial" font-size="13px" font-style="normal" font-weight="normal" text-decoration="none" x="375.5" y="298">«include»</text></g></g><g transform="translate(-46,-230) scale(1,1)"><path fill="none" stroke="#000000" d="M 582 383 L 534 365" stroke-miterlimit="10" stroke-dasharray="3"/></g><g transform="translate(-46,-230) scale(1,1)"><path fill="none" stroke="#000000" d="M 544.9936693532607 364.62685907330007 L 534 365 L 542.037548629421 372.50984767020555" stroke-miterlimit="10"/></g><g transform="translate(-46,-230) scale(1,1)"><g><path fill="none" stroke="none"/><text fill="#000000" stroke="none" font-family="Arial" font-size="13px" font-style="normal" font-weight="normal" text-decoration="none" x="519.5" y="407">«include»</text></g></g><g transform="translate(-46,-230) scale(1,1)"><path fill="none" stroke="#000000" d="M 481 503 L 482 373" stroke-miterlimit="10" stroke-dasharray="3"/></g><g transform="translate(-46,-230) scale(1,1)"><path fill="none" stroke="#000000" d="M 486.13122111036563 383.19475414795613 L 482 373 L 477.7124346711711 383.12999425227" stroke-miterlimit="10"/></g><g transform="translate(-46,-230) scale(1,1)"><g><path fill="none" stroke="none"/><text fill="#000000" stroke="none" font-family="Arial" font-size="13px" font-style="normal" font-weight="normal" text-decoration="none" x="423.5" y="442">«include»</text></g></g><g transform="translate(-46,-230) scale(1,1)"><path fill="none" stroke="#000000" d="M 492 557 L 579 759" stroke-miterlimit="10" stroke-dasharray="3"/></g><g transform="translate(-46,-230) scale(1,1)"><path fill="none" stroke="#000000" d="M 571.1138214025791 751.3313503711813 L 579 759 L 578.8461837911968 748.0010754810341" stroke-miterlimit="10"/></g><g transform="translate(-46,-230) scale(1,1)"><g><path fill="none" stroke="none"/><text fill="#000000" stroke="none" font-family="Arial" font-size="13px" font-style="normal" font-weight="normal" text-decoration="none" x="541.5" y="684">«include»</text></g></g><g transform="translate(-46,-230) scale(1,1)"><path fill="none" stroke="#000000" d="M 466 557 L 387 703" stroke-miterlimit="10" stroke-dasharray="3"/></g><g transform="translate(-46,-230) scale(1,1)"><path fill="none" stroke="#000000" d="M 388.1340861776069 692.0586176128535 L 387 703 L 395.53864570814216 696.0651943451294" stroke-miterlimit="10"/></g><g transform="translate(-46,-230) scale(1,1)"><g><path fill="none" stroke="none"/><text fill="#000000" stroke="none" font-family="Arial" font-size="13px" font-style="normal" font-weight="normal" text-decoration="none" x="424.5" y="649">«include»</text></g></g><g transform="translate(-46,-230) scale(1,1)"><path fill="none" stroke="#000000" d="M 623 553 L 555 542" stroke-miterlimit="10" stroke-dasharray="3"/></g><g transform="translate(-46,-230) scale(1,1)"><path fill="none" stroke="#000000" d="M 565.704474327304 539.4673671059371 L 555 542 L 564.360048279522 547.7783644922259" stroke-miterlimit="10"/></g><g transform="translate(-46,-230) scale(1,1)"><g><path fill="none" stroke="none"/><text fill="#000000" stroke="none" font-family="Arial" font-size="13px" font-style="normal" font-weight="normal" text-decoration="none" x="571.5" y="539">«extend»</text></g></g><g transform="translate(-46,-230) scale(1,1)"><path fill="none" stroke="#000000" d="M 610 599 L 531 557" stroke-miterlimit="10" stroke-dasharray="3"/></g><g transform="translate(-46,-230) scale(1,1)"><path fill="none" stroke="#000000" d="M 541.949410660055 558.0537581304421 L 531 557 L 537.997283007955 565.4875220474873" stroke-miterlimit="10"/></g><g transform="translate(-46,-230) scale(1,1)"><g><path fill="none" stroke="none"/><text fill="#000000" stroke="none" font-family="Arial" font-size="13px" font-style="normal" font-weight="normal" text-decoration="none" x="563.5" y="573">«extend»</text></g></g><g transform="translate(-46,-230) scale(1,1)"><path fill="none" stroke="#000000" d="M 113 409 L 255 421" stroke-miterlimit="10"/></g><g transform="translate(-46,-230) scale(1,1)"><path fill="none" stroke="#000000" d="M 377 399 L 431 372" stroke-miterlimit="10" stroke-dasharray="3"/></g><g transform="translate(-46,-230) scale(1,1)"><path fill="none" stroke="#000000" d="M 423.7927808450386 380.3099935049528 L 431 372 L 420.02767370306094 372.77977922099745" stroke-miterlimit="10"/></g><g transform="translate(-46,-230) scale(1,1)"><g><path fill="none" stroke="none"/><text fill="#000000" stroke="none" font-family="Arial" font-size="13px" font-style="normal" font-weight="normal" text-decoration="none" x="354.5" y="386">«include»</text></g></g><g transform="translate(-46,-230) scale(1,1)"><path fill="none" stroke="#000000" d="M 715 437 L 807 478" stroke-miterlimit="10"/></g><g transform="translate(-46,-230) scale(1,1)"><path fill="#C0C0C0" stroke="none" d="M 239 657 C 239 642.6405952 274.81721600000003 631 319 631 C 363.18278399999997 631 399 642.6405952 399 657 C 399 671.3594048 363.18278399999997 683 319 683 C 274.81721600000003 683 239 671.3594048 239 657 Z" opacity="0.2"/></g><g transform="translate(-46,-230) scale(1,1)"><path fill="#ffffff" stroke="none" d="M 232 650 C 232 635.6405952 267.81721600000003 624 312 624 C 356.18278399999997 624 392 635.6405952 392 650 C 392 664.3594048 356.18278399999997 676 312 676 C 267.81721600000003 676 232 664.3594048 232 650 Z"/></g><g transform="translate(-46,-230) scale(1,1)"><path fill="none" stroke="#000000" d="M 232 650 C 232 635.6405952 267.81721600000003 624 312 624 C 356.18278399999997 624 392 635.6405952 392 650 C 392 664.3594048 356.18278399999997 676 312 676 C 267.81721600000003 676 232 664.3594048 232 650 Z" stroke-miterlimit="10"/></g><g transform="translate(-46,-230) scale(1,1)"><g><path fill="none" stroke="none"/><text fill="#000000" stroke="none" font-family="Arial" font-size="13px" font-style="normal" font-weight="normal" text-decoration="none" x="285.9873046875" y="647">«UC-12»</text></g></g><g transform="translate(-46,-230) scale(1,1)"><g><path fill="none" stroke="none"/><text fill="#000000" stroke="none" font-family="Arial" font-size="13px" font-style="normal" font-weight="bold" text-decoration="none" x="260" y="662">send notification</text></g></g><g transform="translate(-46,-230) scale(1,1)"><path fill="none" stroke="#000000" d="M 443 557 L 350 623" stroke-miterlimit="10" stroke-dasharray="3"/></g><g transform="translate(-46,-230) scale(1,1)"><path fill="none" stroke="#000000" d="M 355.85148815826324 613.6854905478762 L 350 623 L 360.72397975376373 620.5512741597177" stroke-miterlimit="10"/></g><g transform="translate(-46,-230) scale(1,1)"><g><path fill="none" stroke="none"/><text fill="#000000" stroke="none" font-family="Arial" font-size="13px" font-style="normal" font-weight="normal" text-decoration="none" x="356.5" y="588">«include»</text></g></g><g transform="translate(-46,-230) scale(1,1)"><path fill="none" stroke="#000000" d="M 323 453 L 313 623" stroke-miterlimit="10" stroke-dasharray="3"/></g><g transform="translate(-46,-230) scale(1,1)"><path fill="none" stroke="#000000" d="M 309.3945191168192 612.60767073265 L 313 623 L 317.7990265153309 613.1020535207979" stroke-miterlimit="10"/></g><g transform="translate(-46,-230) scale(1,1)"><g><path fill="none" stroke="none"/><text fill="#000000" stroke="none" font-family="Arial" font-size="13px" font-style="normal" font-weight="normal" text-decoration="none" x="259.5" y="557">«include»</text></g></g></g></svg>